<?xml version="1.0" encoding="UTF-8"?>
<!DOCTYPE svg PUBLIC "-//W3C//DTD SVG 1.1//EN" "http://www.w3.org/Graphics/SVG/1.1/DTD/svg11.dtd">
<svg width="1685px" height="943px" viewBox="0 0 1685 943" version="1.1" xmlns="http://www.w3.org/2000/svg" xmlns:xlink="http://www.w3.org/1999/xlink">
  <g>
    <polyline stroke="#000000" stroke-width="2" stroke-linecap="butt" stroke-linejoin="bevel" fill="none" points="1640,20 1680,20 " />
    <circle stroke="#000000" stroke-width="1" stroke-linecap="round" stroke-linejoin="round" fill="#000000" cx="1660" cy="20" r="3" />
    <text x="1640" y="16" font-family="Times New Roman" font-size="11" fill="#000000">8-15</text>
    <polyline stroke="#000000" stroke-width="2" stroke-linecap="butt" stroke-linejoin="bevel" fill="none" points="1640,40 1680,40 " />
    <circle stroke="#000000" stroke-width="1" stroke-linecap="round" stroke-linejoin="round" fill="#000000" cx="1660" cy="40" r="3" />
    <text x="1640" y="36" font-family="Times New Roman" font-size="11" fill="#000000">15-20</text>
    <polyline stroke="#000000" stroke-width="2" stroke-linecap="butt" stroke-linejoin="bevel" fill="none" points="1640,60 1680,60 " />
    <circle stroke="#000000" stroke-width="1" stroke-linecap="round" stroke-linejoin="round" fill="#000000" cx="1660" cy="60" r="3" />
    <text x="1640" y="56" font-family="Times New Roman" font-size="11" fill="#000000">20-31</text>
    <rect stroke="#000000" stroke-width="1" stroke-linecap="round" stroke-linejoin="round" fill="none" x="1635.5" y="0.5" width="49" height="69" />
  </g>
  <clipPath id="clippath1">
    <path d="M-1,-1 H1685 V942H-1 z M1634,-1 H1686 V71 H1634 z" clip-rule="evenodd" />
  </clipPath>
  <g clip-path="url(#clippath1)">
    <line stroke="#9999ff" stroke-width="1" stroke-dasharray="1,10" stroke-linecap="round" stroke-linejoin="round" x1="102.5" y1="0.5" x2="102.5" y2="942.5" />
    <line stroke="#9999ff" stroke-width="1" stroke-dasharray="1,10" stroke-linecap="round" stroke-linejoin="round" x1="153.5" y1="0.5" x2="153.5" y2="942.5" />
    <line stroke="#9999ff" stroke-width="1" stroke-dasharray="1,10" stroke-linecap="round" stroke-linejoin="round" x1="204.5" y1="0.5" x2="204.5" y2="942.5" />
    <line stroke="#9999ff" stroke-width="1" stroke-dasharray="1,10" stroke-linecap="round" stroke-linejoin="round" x1="255.5" y1="0.5" x2="255.5" y2="942.5" />
    <line stroke="#9999ff" stroke-width="1" stroke-dasharray="1,10" stroke-linecap="round" stroke-linejoin="round" x1="306.5" y1="0.5" x2="306.5" y2="942.5" />
    <line stroke="#9999ff" stroke-width="1" stroke-dasharray="1,10" stroke-linecap="round" stroke-linejoin="round" x1="357.5" y1="0.5" x2="357.5" y2="942.5" />
    <line stroke="#9999ff" stroke-width="1" stroke-dasharray="1,10" stroke-linecap="round" stroke-linejoin="round" x1="408.5" y1="0.5" x2="408.5" y2="942.5" />
    <line stroke="#9999ff" stroke-width="1" stroke-dasharray="1,10" stroke-linecap="round" stroke-linejoin="round" x1="460.5" y1="0.5" x2="460.5" y2="942.5" />
    <line stroke="#9999ff" stroke-width="1" stroke-dasharray="1,10" stroke-linecap="round" stroke-linejoin="round" x1="511.5" y1="0.5" x2="511.5" y2="942.5" />
    <line stroke="#9999ff" stroke-width="1" stroke-dasharray="1,10" stroke-linecap="round" stroke-linejoin="round" x1="562.5" y1="0.5" x2="562.5" y2="942.5" />
    <line stroke="#9999ff" stroke-width="1" stroke-dasharray="1,10" stroke-linecap="round" stroke-linejoin="round" x1="613.5" y1="0.5" x2="613.5" y2="942.5" />
    <line stroke="#9999ff" stroke-width="1" stroke-dasharray="1,10" stroke-linecap="round" stroke-linejoin="round" x1="664.5" y1="0.5" x2="664.5" y2="942.5" />
    <line stroke="#9999ff" stroke-width="1" stroke-dasharray="1,10" stroke-linecap="round" stroke-linejoin="round" x1="715.5" y1="0.5" x2="715.5" y2="942.5" />
    <line stroke="#9999ff" stroke-width="1" stroke-dasharray="1,10" stroke-linecap="round" stroke-linejoin="round" x1="766.5" y1="0.5" x2="766.5" y2="942.5" />
    <line stroke="#9999ff" stroke-width="1" stroke-dasharray="1,10" stroke-linecap="round" stroke-linejoin="round" x1="817.5" y1="0.5" x2="817.5" y2="942.5" />
    <line stroke="#9999ff" stroke-width="1" stroke-dasharray="1,10" stroke-linecap="round" stroke-linejoin="round" x1="868.5" y1="0.5" x2="868.5" y2="942.5" />
    <line stroke="#9999ff" stroke-width="1" stroke-dasharray="1,10" stroke-linecap="round" stroke-linejoin="round" x1="919.5" y1="0.5" x2="919.5" y2="942.5" />
    <line stroke="#9999ff" stroke-width="1" stroke-dasharray="1,10" stroke-linecap="round" stroke-linejoin="round" x1="970.5" y1="0.5" x2="970.5" y2="942.5" />
    <line stroke="#9999ff" stroke-width="1" stroke-dasharray="1,10" stroke-linecap="round" stroke-linejoin="round" x1="1021.5" y1="0.5" x2="1021.5" y2="942.5" />
    <line stroke="#9999ff" stroke-width="1" stroke-dasharray="1,10" stroke-linecap="round" stroke-linejoin="round" x1="1072.5" y1="0.5" x2="1072.5" y2="942.5" />
    <line stroke="#9999ff" stroke-width="1" stroke-dasharray="1,10" stroke-linecap="round" stroke-linejoin="round" x1="1123.5" y1="0.5" x2="1123.5" y2="942.5" />
    <line stroke="#9999ff" stroke-width="1" stroke-dasharray="1,10" stroke-linecap="round" stroke-linejoin="round" x1="1174.5" y1="0.5" x2="1174.5" y2="942.5" />
    <line stroke="#9999ff" stroke-width="1" stroke-dasharray="1,10" stroke-linecap="round" stroke-linejoin="round" x1="1225.5" y1="0.5" x2="1225.5" y2="942.5" />
    <line stroke="#9999ff" stroke-width="1" stroke-dasharray="1,10" stroke-linecap="round" stroke-linejoin="round" x1="1277.5" y1="0.5" x2="1277.5" y2="942.5" />
    <line stroke="#9999ff" stroke-width="1" stroke-dasharray="1,10" stroke-linecap="round" stroke-linejoin="round" x1="1328.5" y1="0.5" x2="1328.5" y2="942.5" />
    <line stroke="#9999ff" stroke-width="1" stroke-dasharray="1,10" stroke-linecap="round" stroke-linejoin="round" x1="1379.5" y1="0.5" x2="1379.5" y2="942.5" />
    <line stroke="#9999ff" stroke-width="1" stroke-dasharray="1,10" stroke-linecap="round" stroke-linejoin="round" x1="1430.5" y1="0.5" x2="1430.5" y2="942.5" />
    <line stroke="#9999ff" stroke-width="1" stroke-dasharray="1,10" stroke-linecap="round" stroke-linejoin="round" x1="1481.5" y1="0.5" x2="1481.5" y2="942.5" />
    <line stroke="#9999ff" stroke-width="1" stroke-dasharray="1,10" stroke-linecap="round" stroke-linejoin="round" x1="1532.5" y1="0.5" x2="1532.5" y2="942.5" />
    <line stroke="#9999ff" stroke-width="1" stroke-dasharray="1,10" stroke-linecap="round" stroke-linejoin="round" x1="1583.5" y1="0.5" x2="1583.5" y2="942.5" />
    <line stroke="#9999ff" stroke-width="1" stroke-dasharray="1,10" stroke-linecap="round" stroke-linejoin="round" x1="1634.5" y1="0.5" x2="1634.5" y2="942.5" />
    <line stroke="#9999ff" stroke-width="1" stroke-dasharray="1,10" stroke-linecap="round" stroke-linejoin="round" x1="0.5" y1="837.5" x2="1684.5" y2="837.5" />
    <line stroke="#9999ff" stroke-width="1" stroke-dasharray="1,10" stroke-linecap="round" stroke-linejoin="round" x1="0.5" y1="784.5" x2="1684.5" y2="784.5" />
    <line stroke="#9999ff" stroke-width="1" stroke-dasharray="1,10" stroke-linecap="round" stroke-linejoin="round" x1="0.5" y1="731.5" x2="1684.5" y2="731.5" />
    <line stroke="#9999ff" stroke-width="1" stroke-dasharray="1,10" stroke-linecap="round" stroke-linejoin="round" x1="0.5" y1="678.5" x2="1684.5" y2="678.5" />
    <line stroke="#9999ff" stroke-width="1" stroke-dasharray="1,10" stroke-linecap="round" stroke-linejoin="round" x1="0.5" y1="625.5" x2="1684.5" y2="625.5" />
    <line stroke="#9999ff" stroke-width="1" stroke-dasharray="1,10" stroke-linecap="round" stroke-linejoin="round" x1="0.5" y1="572.5" x2="1684.5" y2="572.5" />
    <line stroke="#9999ff" stroke-width="1" stroke-dasharray="1,10" stroke-linecap="round" stroke-linejoin="round" x1="0.5" y1="519.5" x2="1684.5" y2="519.5" />
    <line stroke="#9999ff" stroke-width="1" stroke-dasharray="1,10" stroke-linecap="round" stroke-linejoin="round" x1="0.5" y1="466.5" x2="1684.5" y2="466.5" />
    <line stroke="#9999ff" stroke-width="1" stroke-dasharray="1,10" stroke-linecap="round" stroke-linejoin="round" x1="0.5" y1="413.5" x2="1684.5" y2="413.5" />
    <line stroke="#9999ff" stroke-width="1" stroke-dasharray="1,10" stroke-linecap="round" stroke-linejoin="round" x1="0.5" y1="360.5" x2="1684.5" y2="360.5" />
    <line stroke="#9999ff" stroke-width="1" stroke-dasharray="1,10" stroke-linecap="round" stroke-linejoin="round" x1="0.5" y1="307.5" x2="1684.5" y2="307.5" />
    <line stroke="#9999ff" stroke-width="1" stroke-dasharray="1,10" stroke-linecap="round" stroke-linejoin="round" x1="0.5" y1="254.5" x2="1684.5" y2="254.5" />
    <line stroke="#9999ff" stroke-width="1" stroke-dasharray="1,10" stroke-linecap="round" stroke-linejoin="round" x1="0.5" y1="201.5" x2="1684.5" y2="201.5" />
    <line stroke="#9999ff" stroke-width="1" stroke-dasharray="1,10" stroke-linecap="round" stroke-linejoin="round" x1="0.5" y1="148.5" x2="1684.5" y2="148.5" />
    <line stroke="#9999ff" stroke-width="1" stroke-dasharray="1,10" stroke-linecap="round" stroke-linejoin="round" x1="0.5" y1="95.5" x2="1684.5" y2="95.5" />
    <line stroke="#9999ff" stroke-width="1" stroke-dasharray="1,10" stroke-linecap="round" stroke-linejoin="round" x1="0.5" y1="42.5" x2="1684.5" y2="42.5" />
    <text x="99" y="907" font-family="Times New Roman" font-size="13" fill="#000000">1</text>
    <text x="150" y="907" font-family="Times New Roman" font-size="13" fill="#000000">2</text>
    <text x="201" y="907" font-family="Times New Roman" font-size="13" fill="#000000">3</text>
    <text x="252" y="907" font-family="Times New Roman" font-size="13" fill="#000000">4</text>
    <text x="303" y="907" font-family="Times New Roman" font-size="13" fill="#000000">5</text>
    <text x="354" y="907" font-family="Times New Roman" font-size="13" fill="#000000">6</text>
    <text x="405" y="907" font-family="Times New Roman" font-size="13" fill="#000000">7</text>
    <text x="457" y="907" font-family="Times New Roman" font-size="13" fill="#000000">8</text>
    <text x="508" y="907" font-family="Times New Roman" font-size="13" fill="#000000">9</text>
    <text x="556" y="907" font-family="Times New Roman" font-size="13" fill="#000000">10</text>
    <text x="607" y="907" font-family="Times New Roman" font-size="13" fill="#000000">11</text>
    <text x="658" y="907" font-family="Times New Roman" font-size="13" fill="#000000">12</text>
    <text x="709" y="907" font-family="Times New Roman" font-size="13" fill="#000000">13</text>
    <text x="760" y="907" font-family="Times New Roman" font-size="13" fill="#000000">14</text>
    <text x="811" y="907" font-family="Times New Roman" font-size="13" fill="#000000">15</text>
    <text x="862" y="907" font-family="Times New Roman" font-size="13" fill="#000000">16</text>
    <text x="913" y="907" font-family="Times New Roman" font-size="13" fill="#000000">17</text>
    <text x="964" y="907" font-family="Times New Roman" font-size="13" fill="#000000">18</text>
    <text x="1015" y="907" font-family="Times New Roman" font-size="13" fill="#000000">19</text>
    <text x="1066" y="907" font-family="Times New Roman" font-size="13" fill="#000000">20</text>
    <text x="1117" y="907" font-family="Times New Roman" font-size="13" fill="#000000">21</text>
    <text x="1168" y="907" font-family="Times New Roman" font-size="13" fill="#000000">22</text>
    <text x="1219" y="907" font-family="Times New Roman" font-size="13" fill="#000000">23</text>
    <text x="1271" y="907" font-family="Times New Roman" font-size="13" fill="#000000">24</text>
    <text x="1322" y="907" font-family="Times New Roman" font-size="13" fill="#000000">25</text>
    <text x="1373" y="907" font-family="Times New Roman" font-size="13" fill="#000000">26</text>
    <text x="1424" y="907" font-family="Times New Roman" font-size="13" fill="#000000">27</text>
    <text x="1475" y="907" font-family="Times New Roman" font-size="13" fill="#000000">28</text>
    <text x="1526" y="907" font-family="Times New Roman" font-size="13" fill="#000000">29</text>
    <text x="1577" y="907" font-family="Times New Roman" font-size="13" fill="#000000">30</text>
    <text x="1628" y="907" font-family="Times New Roman" font-size="13" fill="#000000">31</text>
    <text x="17" y="843" font-family="Times New Roman" font-size="13" fill="#000000">0.005</text>
    <text x="23" y="790" font-family="Times New Roman" font-size="13" fill="#000000">0.01</text>
    <text x="17" y="737" font-family="Times New Roman" font-size="13" fill="#000000">0.015</text>
    <text x="23" y="684" font-family="Times New Roman" font-size="13" fill="#000000">0.02</text>
    <text x="17" y="631" font-family="Times New Roman" font-size="13" fill="#000000">0.025</text>
    <text x="23" y="578" font-family="Times New Roman" font-size="13" fill="#000000">0.03</text>
    <text x="17" y="525" font-family="Times New Roman" font-size="13" fill="#000000">0.035</text>
    <text x="23" y="472" font-family="Times New Roman" font-size="13" fill="#000000">0.04</text>
    <text x="17" y="419" font-family="Times New Roman" font-size="13" fill="#000000">0.045</text>
    <text x="23" y="366" font-family="Times New Roman" font-size="13" fill="#000000">0.05</text>
    <text x="17" y="313" font-family="Times New Roman" font-size="13" fill="#000000">0.055</text>
    <text x="23" y="260" font-family="Times New Roman" font-size="13" fill="#000000">0.06</text>
    <text x="17" y="207" font-family="Times New Roman" font-size="13" fill="#000000">0.065</text>
    <text x="23" y="154" font-family="Times New Roman" font-size="13" fill="#000000">0.07</text>
    <text x="17" y="101" font-family="Times New Roman" font-size="13" fill="#000000">0.075</text>
    <text x="23" y="48" font-family="Times New Roman" font-size="13" fill="#000000">0.08</text>
    <text x="1674" y="880" font-family="Times New Roman" font-size="16" font-weight="700" fill="#000000">x</text>
    <text x="63" y="13" font-family="Times New Roman" font-size="16" font-weight="700" fill="#000000">f(x)</text>
    <line stroke="#0000ff" stroke-width="2" stroke-linecap="butt" stroke-linejoin="bevel" x1="0" y1="890" x2="1680" y2="890" />
    <polygon stroke="#0000ff" stroke-width="1" stroke-linecap="round" stroke-linejoin="round" fill="#0000ff" points="1679.5,884.5 1684.5,889.5 1684.5,890.5 1679.5,895.5 " />
    <line stroke="#0000ff" stroke-width="1" stroke-linecap="round" stroke-linejoin="round" x1="102.5" y1="895.5" x2="102.5" y2="884.5" />
    <line stroke="#0000ff" stroke-width="1" stroke-linecap="round" stroke-linejoin="round" x1="153.5" y1="895.5" x2="153.5" y2="884.5" />
    <line stroke="#0000ff" stroke-width="1" stroke-linecap="round" stroke-linejoin="round" x1="204.5" y1="895.5" x2="204.5" y2="884.5" />
    <line stroke="#0000ff" stroke-width="1" stroke-linecap="round" stroke-linejoin="round" x1="255.5" y1="895.5" x2="255.5" y2="884.5" />
    <line stroke="#0000ff" stroke-width="1" stroke-linecap="round" stroke-linejoin="round" x1="306.5" y1="895.5" x2="306.5" y2="884.5" />
    <line stroke="#0000ff" stroke-width="1" stroke-linecap="round" stroke-linejoin="round" x1="357.5" y1="895.5" x2="357.5" y2="884.5" />
    <line stroke="#0000ff" stroke-width="1" stroke-linecap="round" stroke-linejoin="round" x1="408.5" y1="895.5" x2="408.5" y2="884.5" />
    <line stroke="#0000ff" stroke-width="1" stroke-linecap="round" stroke-linejoin="round" x1="460.5" y1="895.5" x2="460.5" y2="884.5" />
    <line stroke="#0000ff" stroke-width="1" stroke-linecap="round" stroke-linejoin="round" x1="511.5" y1="895.5" x2="511.5" y2="884.5" />
    <line stroke="#0000ff" stroke-width="1" stroke-linecap="round" stroke-linejoin="round" x1="562.5" y1="895.5" x2="562.5" y2="884.5" />
    <line stroke="#0000ff" stroke-width="1" stroke-linecap="round" stroke-linejoin="round" x1="613.5" y1="895.5" x2="613.5" y2="884.5" />
    <line stroke="#0000ff" stroke-width="1" stroke-linecap="round" stroke-linejoin="round" x1="664.5" y1="895.5" x2="664.5" y2="884.5" />
    <line stroke="#0000ff" stroke-width="1" stroke-linecap="round" stroke-linejoin="round" x1="715.5" y1="895.5" x2="715.5" y2="884.5" />
    <line stroke="#0000ff" stroke-width="1" stroke-linecap="round" stroke-linejoin="round" x1="766.5" y1="895.5" x2="766.5" y2="884.5" />
    <line stroke="#0000ff" stroke-width="1" stroke-linecap="round" stroke-linejoin="round" x1="817.5" y1="895.5" x2="817.5" y2="884.5" />
    <line stroke="#0000ff" stroke-width="1" stroke-linecap="round" stroke-linejoin="round" x1="868.5" y1="895.5" x2="868.5" y2="884.5" />
    <line stroke="#0000ff" stroke-width="1" stroke-linecap="round" stroke-linejoin="round" x1="919.5" y1="895.5" x2="919.5" y2="884.5" />
    <line stroke="#0000ff" stroke-width="1" stroke-linecap="round" stroke-linejoin="round" x1="970.5" y1="895.5" x2="970.5" y2="884.5" />
    <line stroke="#0000ff" stroke-width="1" stroke-linecap="round" stroke-linejoin="round" x1="1021.5" y1="895.5" x2="1021.5" y2="884.5" />
    <line stroke="#0000ff" stroke-width="1" stroke-linecap="round" stroke-linejoin="round" x1="1072.5" y1="895.5" x2="1072.5" y2="884.5" />
    <line stroke="#0000ff" stroke-width="1" stroke-linecap="round" stroke-linejoin="round" x1="1123.5" y1="895.5" x2="1123.5" y2="884.5" />
    <line stroke="#0000ff" stroke-width="1" stroke-linecap="round" stroke-linejoin="round" x1="1174.5" y1="895.5" x2="1174.5" y2="884.5" />
    <line stroke="#0000ff" stroke-width="1" stroke-linecap="round" stroke-linejoin="round" x1="1225.5" y1="895.5" x2="1225.5" y2="884.5" />
    <line stroke="#0000ff" stroke-width="1" stroke-linecap="round" stroke-linejoin="round" x1="1277.5" y1="895.5" x2="1277.5" y2="884.5" />
    <line stroke="#0000ff" stroke-width="1" stroke-linecap="round" stroke-linejoin="round" x1="1328.5" y1="895.5" x2="1328.5" y2="884.5" />
    <line stroke="#0000ff" stroke-width="1" stroke-linecap="round" stroke-linejoin="round" x1="1379.5" y1="895.5" x2="1379.5" y2="884.5" />
    <line stroke="#0000ff" stroke-width="1" stroke-linecap="round" stroke-linejoin="round" x1="1430.5" y1="895.5" x2="1430.5" y2="884.5" />
    <line stroke="#0000ff" stroke-width="1" stroke-linecap="round" stroke-linejoin="round" x1="1481.5" y1="895.5" x2="1481.5" y2="884.5" />
    <line stroke="#0000ff" stroke-width="1" stroke-linecap="round" stroke-linejoin="round" x1="1532.5" y1="895.5" x2="1532.5" y2="884.5" />
    <line stroke="#0000ff" stroke-width="1" stroke-linecap="round" stroke-linejoin="round" x1="1583.5" y1="895.5" x2="1583.5" y2="884.5" />
    <line stroke="#0000ff" stroke-width="1" stroke-linecap="round" stroke-linejoin="round" x1="1634.5" y1="895.5" x2="1634.5" y2="884.5" />
    <line stroke="#0000ff" stroke-width="2" stroke-linecap="butt" stroke-linejoin="bevel" x1="51" y1="3" x2="51" y2="942" />
    <polygon stroke="#0000ff" stroke-width="1" stroke-linecap="round" stroke-linejoin="round" fill="#0000ff" points="45.5,5.5 50.5,0.5 51.5,0.5 56.5,5.5 " />
    <line stroke="#0000ff" stroke-width="1" stroke-linecap="round" stroke-linejoin="round" x1="45.5" y1="837.5" x2="56.5" y2="837.5" />
    <line stroke="#0000ff" stroke-width="1" stroke-linecap="round" stroke-linejoin="round" x1="45.5" y1="784.5" x2="56.5" y2="784.5" />
    <line stroke="#0000ff" stroke-width="1" stroke-linecap="round" stroke-linejoin="round" x1="45.5" y1="731.5" x2="56.5" y2="731.5" />
    <line stroke="#0000ff" stroke-width="1" stroke-linecap="round" stroke-linejoin="round" x1="45.5" y1="678.5" x2="56.5" y2="678.5" />
    <line stroke="#0000ff" stroke-width="1" stroke-linecap="round" stroke-linejoin="round" x1="45.5" y1="625.5" x2="56.5" y2="625.5" />
    <line stroke="#0000ff" stroke-width="1" stroke-linecap="round" stroke-linejoin="round" x1="45.5" y1="572.5" x2="56.5" y2="572.5" />
    <line stroke="#0000ff" stroke-width="1" stroke-linecap="round" stroke-linejoin="round" x1="45.5" y1="519.5" x2="56.5" y2="519.5" />
    <line stroke="#0000ff" stroke-width="1" stroke-linecap="round" stroke-linejoin="round" x1="45.5" y1="466.5" x2="56.5" y2="466.5" />
    <line stroke="#0000ff" stroke-width="1" stroke-linecap="round" stroke-linejoin="round" x1="45.5" y1="413.5" x2="56.5" y2="413.5" />
    <line stroke="#0000ff" stroke-width="1" stroke-linecap="round" stroke-linejoin="round" x1="45.5" y1="360.5" x2="56.5" y2="360.5" />
    <line stroke="#0000ff" stroke-width="1" stroke-linecap="round" stroke-linejoin="round" x1="45.5" y1="307.5" x2="56.5" y2="307.5" />
    <line stroke="#0000ff" stroke-width="1" stroke-linecap="round" stroke-linejoin="round" x1="45.5" y1="254.5" x2="56.5" y2="254.5" />
    <line stroke="#0000ff" stroke-width="1" stroke-linecap="round" stroke-linejoin="round" x1="45.5" y1="201.5" x2="56.5" y2="201.5" />
    <line stroke="#0000ff" stroke-width="1" stroke-linecap="round" stroke-linejoin="round" x1="45.5" y1="148.5" x2="56.5" y2="148.5" />
    <line stroke="#0000ff" stroke-width="1" stroke-linecap="round" stroke-linejoin="round" x1="45.5" y1="95.5" x2="56.5" y2="95.5" />
    <line stroke="#0000ff" stroke-width="1" stroke-linecap="round" stroke-linejoin="round" x1="45.5" y1="42.5" x2="56.5" y2="42.5" />
  </g>
  <clipPath id="clippath2">
    <path d="M-1,-1 H1685 V942H-1 z M1634,-1 H1686 V71 H1634 z" clip-rule="evenodd" />
  </clipPath>
  <g clip-path="url(#clippath2)">
    <polyline stroke="#000000" stroke-width="2" stroke-linecap="butt" stroke-linejoin="bevel" fill="none" points="460,890 817,42 " />
    <circle stroke="#000000" stroke-width="1" stroke-linecap="round" stroke-linejoin="round" fill="#000000" cx="460" cy="890" r="3" />
    <circle stroke="#000000" stroke-width="1" stroke-linecap="round" stroke-linejoin="round" fill="#000000" cx="817" cy="42" r="3" />
  </g>
  <clipPath id="clippath3">
    <path d="M-1,-1 H1685 V942H-1 z M1634,-1 H1686 V71 H1634 z" clip-rule="evenodd" />
  </clipPath>
  <g clip-path="url(#clippath3)">
    <polyline stroke="#000000" stroke-width="2" stroke-linecap="butt" stroke-linejoin="bevel" fill="none" points="817,42 1072,42 " />
    <circle stroke="#000000" stroke-width="1" stroke-linecap="round" stroke-linejoin="round" fill="#000000" cx="817" cy="42" r="3" />
    <circle stroke="#000000" stroke-width="1" stroke-linecap="round" stroke-linejoin="round" fill="#000000" cx="1072" cy="42" r="3" />
  </g>
  <clipPath id="clippath4">
    <path d="M-1,-1 H1685 V942H-1 z M1634,-1 H1686 V71 H1634 z" clip-rule="evenodd" />
  </clipPath>
  <g clip-path="url(#clippath4)">
    <polyline stroke="#000000" stroke-width="2" stroke-linecap="butt" stroke-linejoin="bevel" fill="none" points="1072,42 1634,890 " />
    <circle stroke="#000000" stroke-width="1" stroke-linecap="round" stroke-linejoin="round" fill="#000000" cx="1072" cy="42" r="3" />
    <circle stroke="#000000" stroke-width="1" stroke-linecap="round" stroke-linejoin="round" fill="#000000" cx="1634" cy="890" r="3" />
  </g>
</svg>
