<?xml version="1.0" encoding="UTF-8"?>
<!DOCTYPE svg PUBLIC "-//W3C//DTD SVG 1.1//EN" "http://www.w3.org/Graphics/SVG/1.1/DTD/svg11.dtd">
<svg width="2325px" height="1303px" viewBox="0 0 2325 1303" version="1.1" xmlns="http://www.w3.org/2000/svg" xmlns:xlink="http://www.w3.org/1999/xlink">
  <g>
    <line stroke="#9999ff" stroke-width="1" stroke-dasharray="1,10" stroke-linecap="round" stroke-linejoin="round" x1="141.5" y1="0.5" x2="141.5" y2="1302.5" />
    <line stroke="#9999ff" stroke-width="1" stroke-dasharray="1,10" stroke-linecap="round" stroke-linejoin="round" x1="211.5" y1="0.5" x2="211.5" y2="1302.5" />
    <line stroke="#9999ff" stroke-width="1" stroke-dasharray="1,10" stroke-linecap="round" stroke-linejoin="round" x1="282.5" y1="0.5" x2="282.5" y2="1302.5" />
    <line stroke="#9999ff" stroke-width="1" stroke-dasharray="1,10" stroke-linecap="round" stroke-linejoin="round" x1="352.5" y1="0.5" x2="352.5" y2="1302.5" />
    <line stroke="#9999ff" stroke-width="1" stroke-dasharray="1,10" stroke-linecap="round" stroke-linejoin="round" x1="423.5" y1="0.5" x2="423.5" y2="1302.5" />
    <line stroke="#9999ff" stroke-width="1" stroke-dasharray="1,10" stroke-linecap="round" stroke-linejoin="round" x1="493.5" y1="0.5" x2="493.5" y2="1302.5" />
    <line stroke="#9999ff" stroke-width="1" stroke-dasharray="1,10" stroke-linecap="round" stroke-linejoin="round" x1="564.5" y1="0.5" x2="564.5" y2="1302.5" />
    <line stroke="#9999ff" stroke-width="1" stroke-dasharray="1,10" stroke-linecap="round" stroke-linejoin="round" x1="634.5" y1="0.5" x2="634.5" y2="1302.5" />
    <line stroke="#9999ff" stroke-width="1" stroke-dasharray="1,10" stroke-linecap="round" stroke-linejoin="round" x1="705.5" y1="0.5" x2="705.5" y2="1302.5" />
    <line stroke="#9999ff" stroke-width="1" stroke-dasharray="1,10" stroke-linecap="round" stroke-linejoin="round" x1="775.5" y1="0.5" x2="775.5" y2="1302.5" />
    <line stroke="#9999ff" stroke-width="1" stroke-dasharray="1,10" stroke-linecap="round" stroke-linejoin="round" x1="845.5" y1="0.5" x2="845.5" y2="1302.5" />
    <line stroke="#9999ff" stroke-width="1" stroke-dasharray="1,10" stroke-linecap="round" stroke-linejoin="round" x1="916.5" y1="0.5" x2="916.5" y2="1302.5" />
    <line stroke="#9999ff" stroke-width="1" stroke-dasharray="1,10" stroke-linecap="round" stroke-linejoin="round" x1="986.5" y1="0.5" x2="986.5" y2="1302.5" />
    <line stroke="#9999ff" stroke-width="1" stroke-dasharray="1,10" stroke-linecap="round" stroke-linejoin="round" x1="1057.5" y1="0.5" x2="1057.5" y2="1302.5" />
    <line stroke="#9999ff" stroke-width="1" stroke-dasharray="1,10" stroke-linecap="round" stroke-linejoin="round" x1="1127.5" y1="0.5" x2="1127.5" y2="1302.5" />
    <line stroke="#9999ff" stroke-width="1" stroke-dasharray="1,10" stroke-linecap="round" stroke-linejoin="round" x1="1198.5" y1="0.5" x2="1198.5" y2="1302.5" />
    <line stroke="#9999ff" stroke-width="1" stroke-dasharray="1,10" stroke-linecap="round" stroke-linejoin="round" x1="1268.5" y1="0.5" x2="1268.5" y2="1302.5" />
    <line stroke="#9999ff" stroke-width="1" stroke-dasharray="1,10" stroke-linecap="round" stroke-linejoin="round" x1="1339.5" y1="0.5" x2="1339.5" y2="1302.5" />
    <line stroke="#9999ff" stroke-width="1" stroke-dasharray="1,10" stroke-linecap="round" stroke-linejoin="round" x1="1409.5" y1="0.5" x2="1409.5" y2="1302.5" />
    <line stroke="#9999ff" stroke-width="1" stroke-dasharray="1,10" stroke-linecap="round" stroke-linejoin="round" x1="1480.5" y1="0.5" x2="1480.5" y2="1302.5" />
    <line stroke="#9999ff" stroke-width="1" stroke-dasharray="1,10" stroke-linecap="round" stroke-linejoin="round" x1="1550.5" y1="0.5" x2="1550.5" y2="1302.5" />
    <line stroke="#9999ff" stroke-width="1" stroke-dasharray="1,10" stroke-linecap="round" stroke-linejoin="round" x1="1620.5" y1="0.5" x2="1620.5" y2="1302.5" />
    <line stroke="#9999ff" stroke-width="1" stroke-dasharray="1,10" stroke-linecap="round" stroke-linejoin="round" x1="1691.5" y1="0.5" x2="1691.5" y2="1302.5" />
    <line stroke="#9999ff" stroke-width="1" stroke-dasharray="1,10" stroke-linecap="round" stroke-linejoin="round" x1="1761.5" y1="0.5" x2="1761.5" y2="1302.5" />
    <line stroke="#9999ff" stroke-width="1" stroke-dasharray="1,10" stroke-linecap="round" stroke-linejoin="round" x1="1832.5" y1="0.5" x2="1832.5" y2="1302.5" />
    <line stroke="#9999ff" stroke-width="1" stroke-dasharray="1,10" stroke-linecap="round" stroke-linejoin="round" x1="1902.5" y1="0.5" x2="1902.5" y2="1302.5" />
    <line stroke="#9999ff" stroke-width="1" stroke-dasharray="1,10" stroke-linecap="round" stroke-linejoin="round" x1="1973.5" y1="0.5" x2="1973.5" y2="1302.5" />
    <line stroke="#9999ff" stroke-width="1" stroke-dasharray="1,10" stroke-linecap="round" stroke-linejoin="round" x1="2043.5" y1="0.5" x2="2043.5" y2="1302.5" />
    <line stroke="#9999ff" stroke-width="1" stroke-dasharray="1,10" stroke-linecap="round" stroke-linejoin="round" x1="2114.5" y1="0.5" x2="2114.5" y2="1302.5" />
    <line stroke="#9999ff" stroke-width="1" stroke-dasharray="1,10" stroke-linecap="round" stroke-linejoin="round" x1="2184.5" y1="0.5" x2="2184.5" y2="1302.5" />
    <line stroke="#9999ff" stroke-width="1" stroke-dasharray="1,10" stroke-linecap="round" stroke-linejoin="round" x1="2255.5" y1="0.5" x2="2255.5" y2="1302.5" />
    <line stroke="#9999ff" stroke-width="1" stroke-dasharray="1,10" stroke-linecap="round" stroke-linejoin="round" x1="0.5" y1="1231.5" x2="2324.5" y2="1231.5" />
    <line stroke="#9999ff" stroke-width="1" stroke-dasharray="1,10" stroke-linecap="round" stroke-linejoin="round" x1="0.5" y1="1086.5" x2="2324.5" y2="1086.5" />
    <line stroke="#9999ff" stroke-width="1" stroke-dasharray="1,10" stroke-linecap="round" stroke-linejoin="round" x1="0.5" y1="1013.5" x2="2324.5" y2="1013.5" />
    <line stroke="#9999ff" stroke-width="1" stroke-dasharray="1,10" stroke-linecap="round" stroke-linejoin="round" x1="0.5" y1="941.5" x2="2324.5" y2="941.5" />
    <line stroke="#9999ff" stroke-width="1" stroke-dasharray="1,10" stroke-linecap="round" stroke-linejoin="round" x1="0.5" y1="869.5" x2="2324.5" y2="869.5" />
    <line stroke="#9999ff" stroke-width="1" stroke-dasharray="1,10" stroke-linecap="round" stroke-linejoin="round" x1="0.5" y1="796.5" x2="2324.5" y2="796.5" />
    <line stroke="#9999ff" stroke-width="1" stroke-dasharray="1,10" stroke-linecap="round" stroke-linejoin="round" x1="0.5" y1="724.5" x2="2324.5" y2="724.5" />
    <line stroke="#9999ff" stroke-width="1" stroke-dasharray="1,10" stroke-linecap="round" stroke-linejoin="round" x1="0.5" y1="651.5" x2="2324.5" y2="651.5" />
    <line stroke="#9999ff" stroke-width="1" stroke-dasharray="1,10" stroke-linecap="round" stroke-linejoin="round" x1="0.5" y1="579.5" x2="2324.5" y2="579.5" />
    <line stroke="#9999ff" stroke-width="1" stroke-dasharray="1,10" stroke-linecap="round" stroke-linejoin="round" x1="0.5" y1="507.5" x2="2324.5" y2="507.5" />
    <line stroke="#9999ff" stroke-width="1" stroke-dasharray="1,10" stroke-linecap="round" stroke-linejoin="round" x1="0.5" y1="434.5" x2="2324.5" y2="434.5" />
    <line stroke="#9999ff" stroke-width="1" stroke-dasharray="1,10" stroke-linecap="round" stroke-linejoin="round" x1="0.5" y1="362.5" x2="2324.5" y2="362.5" />
    <line stroke="#9999ff" stroke-width="1" stroke-dasharray="1,10" stroke-linecap="round" stroke-linejoin="round" x1="0.5" y1="290.5" x2="2324.5" y2="290.5" />
    <line stroke="#9999ff" stroke-width="1" stroke-dasharray="1,10" stroke-linecap="round" stroke-linejoin="round" x1="0.5" y1="217.5" x2="2324.5" y2="217.5" />
    <line stroke="#9999ff" stroke-width="1" stroke-dasharray="1,10" stroke-linecap="round" stroke-linejoin="round" x1="0.5" y1="145.5" x2="2324.5" y2="145.5" />
    <line stroke="#9999ff" stroke-width="1" stroke-dasharray="1,10" stroke-linecap="round" stroke-linejoin="round" x1="0.5" y1="72.5" x2="2324.5" y2="72.5" />
    <text x="138" y="1175" font-family="Times New Roman" font-size="13" fill="#000000">1</text>
    <text x="208" y="1175" font-family="Times New Roman" font-size="13" fill="#000000">2</text>
    <text x="279" y="1175" font-family="Times New Roman" font-size="13" fill="#000000">3</text>
    <text x="349" y="1175" font-family="Times New Roman" font-size="13" fill="#000000">4</text>
    <text x="420" y="1175" font-family="Times New Roman" font-size="13" fill="#000000">5</text>
    <text x="490" y="1175" font-family="Times New Roman" font-size="13" fill="#000000">6</text>
    <text x="561" y="1175" font-family="Times New Roman" font-size="13" fill="#000000">7</text>
    <text x="631" y="1175" font-family="Times New Roman" font-size="13" fill="#000000">8</text>
    <text x="702" y="1175" font-family="Times New Roman" font-size="13" fill="#000000">9</text>
    <text x="769" y="1175" font-family="Times New Roman" font-size="13" fill="#000000">10</text>
    <text x="839" y="1175" font-family="Times New Roman" font-size="13" fill="#000000">11</text>
    <text x="910" y="1175" font-family="Times New Roman" font-size="13" fill="#000000">12</text>
    <text x="980" y="1175" font-family="Times New Roman" font-size="13" fill="#000000">13</text>
    <text x="1051" y="1175" font-family="Times New Roman" font-size="13" fill="#000000">14</text>
    <text x="1121" y="1175" font-family="Times New Roman" font-size="13" fill="#000000">15</text>
    <text x="1192" y="1175" font-family="Times New Roman" font-size="13" fill="#000000">16</text>
    <text x="1262" y="1175" font-family="Times New Roman" font-size="13" fill="#000000">17</text>
    <text x="1333" y="1175" font-family="Times New Roman" font-size="13" fill="#000000">18</text>
    <text x="1403" y="1175" font-family="Times New Roman" font-size="13" fill="#000000">19</text>
    <text x="1474" y="1175" font-family="Times New Roman" font-size="13" fill="#000000">20</text>
    <text x="1544" y="1175" font-family="Times New Roman" font-size="13" fill="#000000">21</text>
    <text x="1614" y="1175" font-family="Times New Roman" font-size="13" fill="#000000">22</text>
    <text x="1685" y="1175" font-family="Times New Roman" font-size="13" fill="#000000">23</text>
    <text x="1755" y="1175" font-family="Times New Roman" font-size="13" fill="#000000">24</text>
    <text x="1826" y="1175" font-family="Times New Roman" font-size="13" fill="#000000">25</text>
    <text x="1896" y="1175" font-family="Times New Roman" font-size="13" fill="#000000">26</text>
    <text x="1967" y="1175" font-family="Times New Roman" font-size="13" fill="#000000">27</text>
    <text x="2037" y="1175" font-family="Times New Roman" font-size="13" fill="#000000">28</text>
    <text x="2108" y="1175" font-family="Times New Roman" font-size="13" fill="#000000">29</text>
    <text x="2178" y="1175" font-family="Times New Roman" font-size="13" fill="#000000">30</text>
    <text x="2249" y="1175" font-family="Times New Roman" font-size="13" fill="#000000">31</text>
    <text x="47" y="1237" font-family="Times New Roman" font-size="13" fill="#000000">-20</text>
    <text x="51" y="1092" font-family="Times New Roman" font-size="13" fill="#000000">20</text>
    <text x="51" y="1019" font-family="Times New Roman" font-size="13" fill="#000000">40</text>
    <text x="51" y="947" font-family="Times New Roman" font-size="13" fill="#000000">60</text>
    <text x="51" y="875" font-family="Times New Roman" font-size="13" fill="#000000">80</text>
    <text x="45" y="802" font-family="Times New Roman" font-size="13" fill="#000000">100</text>
    <text x="45" y="730" font-family="Times New Roman" font-size="13" fill="#000000">120</text>
    <text x="45" y="658" font-family="Times New Roman" font-size="13" fill="#000000">140</text>
    <text x="45" y="585" font-family="Times New Roman" font-size="13" fill="#000000">160</text>
    <text x="45" y="513" font-family="Times New Roman" font-size="13" fill="#000000">180</text>
    <text x="45" y="440" font-family="Times New Roman" font-size="13" fill="#000000">200</text>
    <text x="45" y="368" font-family="Times New Roman" font-size="13" fill="#000000">220</text>
    <text x="45" y="296" font-family="Times New Roman" font-size="13" fill="#000000">240</text>
    <text x="45" y="223" font-family="Times New Roman" font-size="13" fill="#000000">260</text>
    <text x="45" y="151" font-family="Times New Roman" font-size="13" fill="#000000">280</text>
    <text x="45" y="78" font-family="Times New Roman" font-size="13" fill="#000000">300</text>
    <text x="2314" y="1148" font-family="Times New Roman" font-size="16" font-weight="700" fill="#000000">x</text>
    <text x="82" y="13" font-family="Times New Roman" font-size="16" font-weight="700" fill="#000000">f(x)</text>
    <line stroke="#0000ff" stroke-width="2" stroke-linecap="butt" stroke-linejoin="bevel" x1="0" y1="1158" x2="2320" y2="1158" />
    <polygon stroke="#0000ff" stroke-width="1" stroke-linecap="round" stroke-linejoin="round" fill="#0000ff" points="2319.5,1152.5 2324.5,1157.5 2324.5,1158.5 2319.5,1163.5 " />
    <line stroke="#0000ff" stroke-width="1" stroke-linecap="round" stroke-linejoin="round" x1="141.5" y1="1163.5" x2="141.5" y2="1152.5" />
    <line stroke="#0000ff" stroke-width="1" stroke-linecap="round" stroke-linejoin="round" x1="211.5" y1="1163.5" x2="211.5" y2="1152.5" />
    <line stroke="#0000ff" stroke-width="1" stroke-linecap="round" stroke-linejoin="round" x1="282.5" y1="1163.5" x2="282.5" y2="1152.5" />
    <line stroke="#0000ff" stroke-width="1" stroke-linecap="round" stroke-linejoin="round" x1="352.5" y1="1163.5" x2="352.5" y2="1152.5" />
    <line stroke="#0000ff" stroke-width="1" stroke-linecap="round" stroke-linejoin="round" x1="423.5" y1="1163.5" x2="423.5" y2="1152.5" />
    <line stroke="#0000ff" stroke-width="1" stroke-linecap="round" stroke-linejoin="round" x1="493.5" y1="1163.5" x2="493.5" y2="1152.5" />
    <line stroke="#0000ff" stroke-width="1" stroke-linecap="round" stroke-linejoin="round" x1="564.5" y1="1163.5" x2="564.5" y2="1152.5" />
    <line stroke="#0000ff" stroke-width="1" stroke-linecap="round" stroke-linejoin="round" x1="634.5" y1="1163.5" x2="634.5" y2="1152.5" />
    <line stroke="#0000ff" stroke-width="1" stroke-linecap="round" stroke-linejoin="round" x1="705.5" y1="1163.5" x2="705.5" y2="1152.5" />
    <line stroke="#0000ff" stroke-width="1" stroke-linecap="round" stroke-linejoin="round" x1="775.5" y1="1163.5" x2="775.5" y2="1152.5" />
    <line stroke="#0000ff" stroke-width="1" stroke-linecap="round" stroke-linejoin="round" x1="845.5" y1="1163.5" x2="845.5" y2="1152.5" />
    <line stroke="#0000ff" stroke-width="1" stroke-linecap="round" stroke-linejoin="round" x1="916.5" y1="1163.5" x2="916.5" y2="1152.5" />
    <line stroke="#0000ff" stroke-width="1" stroke-linecap="round" stroke-linejoin="round" x1="986.5" y1="1163.5" x2="986.5" y2="1152.5" />
    <line stroke="#0000ff" stroke-width="1" stroke-linecap="round" stroke-linejoin="round" x1="1057.5" y1="1163.5" x2="1057.5" y2="1152.5" />
    <line stroke="#0000ff" stroke-width="1" stroke-linecap="round" stroke-linejoin="round" x1="1127.5" y1="1163.5" x2="1127.5" y2="1152.5" />
    <line stroke="#0000ff" stroke-width="1" stroke-linecap="round" stroke-linejoin="round" x1="1198.5" y1="1163.5" x2="1198.5" y2="1152.5" />
    <line stroke="#0000ff" stroke-width="1" stroke-linecap="round" stroke-linejoin="round" x1="1268.5" y1="1163.5" x2="1268.5" y2="1152.5" />
    <line stroke="#0000ff" stroke-width="1" stroke-linecap="round" stroke-linejoin="round" x1="1339.5" y1="1163.5" x2="1339.5" y2="1152.5" />
    <line stroke="#0000ff" stroke-width="1" stroke-linecap="round" stroke-linejoin="round" x1="1409.5" y1="1163.5" x2="1409.5" y2="1152.5" />
    <line stroke="#0000ff" stroke-width="1" stroke-linecap="round" stroke-linejoin="round" x1="1480.5" y1="1163.5" x2="1480.5" y2="1152.5" />
    <line stroke="#0000ff" stroke-width="1" stroke-linecap="round" stroke-linejoin="round" x1="1550.5" y1="1163.5" x2="1550.5" y2="1152.5" />
    <line stroke="#0000ff" stroke-width="1" stroke-linecap="round" stroke-linejoin="round" x1="1620.5" y1="1163.5" x2="1620.5" y2="1152.5" />
    <line stroke="#0000ff" stroke-width="1" stroke-linecap="round" stroke-linejoin="round" x1="1691.5" y1="1163.5" x2="1691.5" y2="1152.5" />
    <line stroke="#0000ff" stroke-width="1" stroke-linecap="round" stroke-linejoin="round" x1="1761.5" y1="1163.5" x2="1761.5" y2="1152.5" />
    <line stroke="#0000ff" stroke-width="1" stroke-linecap="round" stroke-linejoin="round" x1="1832.5" y1="1163.5" x2="1832.5" y2="1152.5" />
    <line stroke="#0000ff" stroke-width="1" stroke-linecap="round" stroke-linejoin="round" x1="1902.5" y1="1163.5" x2="1902.5" y2="1152.5" />
    <line stroke="#0000ff" stroke-width="1" stroke-linecap="round" stroke-linejoin="round" x1="1973.5" y1="1163.5" x2="1973.5" y2="1152.5" />
    <line stroke="#0000ff" stroke-width="1" stroke-linecap="round" stroke-linejoin="round" x1="2043.5" y1="1163.5" x2="2043.5" y2="1152.5" />
    <line stroke="#0000ff" stroke-width="1" stroke-linecap="round" stroke-linejoin="round" x1="2114.5" y1="1163.5" x2="2114.5" y2="1152.5" />
    <line stroke="#0000ff" stroke-width="1" stroke-linecap="round" stroke-linejoin="round" x1="2184.5" y1="1163.5" x2="2184.5" y2="1152.5" />
    <line stroke="#0000ff" stroke-width="1" stroke-linecap="round" stroke-linejoin="round" x1="2255.5" y1="1163.5" x2="2255.5" y2="1152.5" />
    <line stroke="#0000ff" stroke-width="2" stroke-linecap="butt" stroke-linejoin="bevel" x1="70" y1="3" x2="70" y2="1302" />
    <polygon stroke="#0000ff" stroke-width="1" stroke-linecap="round" stroke-linejoin="round" fill="#0000ff" points="64.5,5.5 69.5,0.5 70.5,0.5 75.5,5.5 " />
    <line stroke="#0000ff" stroke-width="1" stroke-linecap="round" stroke-linejoin="round" x1="64.5" y1="1231.5" x2="75.5" y2="1231.5" />
    <line stroke="#0000ff" stroke-width="1" stroke-linecap="round" stroke-linejoin="round" x1="64.5" y1="1086.5" x2="75.5" y2="1086.5" />
    <line stroke="#0000ff" stroke-width="1" stroke-linecap="round" stroke-linejoin="round" x1="64.5" y1="1013.5" x2="75.5" y2="1013.5" />
    <line stroke="#0000ff" stroke-width="1" stroke-linecap="round" stroke-linejoin="round" x1="64.5" y1="941.5" x2="75.5" y2="941.5" />
    <line stroke="#0000ff" stroke-width="1" stroke-linecap="round" stroke-linejoin="round" x1="64.5" y1="869.5" x2="75.5" y2="869.5" />
    <line stroke="#0000ff" stroke-width="1" stroke-linecap="round" stroke-linejoin="round" x1="64.5" y1="796.5" x2="75.5" y2="796.5" />
    <line stroke="#0000ff" stroke-width="1" stroke-linecap="round" stroke-linejoin="round" x1="64.5" y1="724.5" x2="75.5" y2="724.5" />
    <line stroke="#0000ff" stroke-width="1" stroke-linecap="round" stroke-linejoin="round" x1="64.5" y1="651.5" x2="75.5" y2="651.5" />
    <line stroke="#0000ff" stroke-width="1" stroke-linecap="round" stroke-linejoin="round" x1="64.5" y1="579.5" x2="75.5" y2="579.5" />
    <line stroke="#0000ff" stroke-width="1" stroke-linecap="round" stroke-linejoin="round" x1="64.5" y1="507.5" x2="75.5" y2="507.5" />
    <line stroke="#0000ff" stroke-width="1" stroke-linecap="round" stroke-linejoin="round" x1="64.5" y1="434.5" x2="75.5" y2="434.5" />
    <line stroke="#0000ff" stroke-width="1" stroke-linecap="round" stroke-linejoin="round" x1="64.5" y1="362.5" x2="75.5" y2="362.5" />
    <line stroke="#0000ff" stroke-width="1" stroke-linecap="round" stroke-linejoin="round" x1="64.5" y1="290.5" x2="75.5" y2="290.5" />
    <line stroke="#0000ff" stroke-width="1" stroke-linecap="round" stroke-linejoin="round" x1="64.5" y1="217.5" x2="75.5" y2="217.5" />
    <line stroke="#0000ff" stroke-width="1" stroke-linecap="round" stroke-linejoin="round" x1="64.5" y1="145.5" x2="75.5" y2="145.5" />
    <line stroke="#0000ff" stroke-width="1" stroke-linecap="round" stroke-linejoin="round" x1="64.5" y1="72.5" x2="75.5" y2="72.5" />
    <polyline stroke="#000000" stroke-width="3" stroke-linecap="butt" stroke-linejoin="bevel" fill="none" points="634,29 635,31 636,33 637,35 638,37 639,38 640,40 641,42 642,44 643,46 644,48 645,50 646,52 647,54 648,55 649,57 650,59 651,61 652,63 653,65 654,67 655,69 656,70 657,72 658,74 659,76 660,78 661,80 662,82 663,83 664,85 665,87 666,89 667,91 668,93 669,95 670,96 671,98 672,100 673,102 674,104 675,106 676,108 677,109 678,111 679,113 680,115 681,117 682,119 683,120 684,122 685,124 686,126 687,128 688,129 689,131 690,133 691,135 692,137 693,139 694,140 695,142 696,144 697,146 698,148 699,149 700,151 701,153 702,155 703,157 704,158 705,160 706,162 707,164 708,166 709,167 710,169 711,171 712,173 713,175 714,176 715,178 716,180 717,182 718,183 719,185 720,187 721,189 722,191 723,192 724,194 725,196 726,198 727,199 728,201 729,203 730,205 731,206 732,208 733,210 734,212 735,213 736,215 737,217 738,219 739,220 740,222 741,224 742,226 743,227 744,229 745,231 746,233 747,234 748,236 749,238 750,240 751,241 752,243 753,245 754,247 755,248 756,250 757,252 758,253 759,255 760,257 761,259 762,260 763,262 764,264 765,265 766,267 767,269 768,271 769,272 770,274 771,276 772,277 773,279 774,281 775,282 776,284 777,286 778,288 779,289 780,291 781,293 782,294 783,296 784,298 785,299 786,301 787,303 788,304 789,306 790,308 791,309 792,311 793,313 794,314 795,316 796,318 797,319 798,321 799,323 800,324 801,326 802,328 803,329 804,331 805,333 806,334 807,336 808,338 809,339 810,341 811,343 812,344 813,346 814,347 815,349 816,351 817,352 818,354 819,356 820,357 821,359 822,361 823,362 824,364 825,365 826,367 827,369 828,370 829,372 830,373 831,375 832,377 833,378 834,380 835,382 836,383 837,385 838,386 839,388 840,390 841,391 842,393 843,394 844,396 845,398 846,399 847,401 848,402 849,404 850,406 851,407 852,409 853,410 854,412 855,413 856,415 857,417 858,418 859,420 860,421 861,423 862,424 863,426 864,428 865,429 866,431 867,432 868,434 869,435 870,437 871,438 872,440 873,442 874,443 875,445 876,446 877,448 878,449 879,451 880,452 881,454 882,456 883,457 884,459 885,460 886,462 887,463 888,465 889,466 890,468 891,469 892,471 893,472 894,474 895,475 896,477 897,478 898,480 899,481 900,483 901,484 902,486 903,488 904,489 905,491 906,492 907,494 908,495 909,497 910,498 911,500 912,501 913,503 914,504 915,506 916,507 917,508 918,510 919,511 920,513 921,514 922,516 923,517 924,519 925,520 926,522 927,523 928,525 929,526 930,528 931,529 932,531 933,532 934,534 935,535 936,536 937,538 938,539 939,541 940,542 941,544 942,545 943,547 944,548 945,550 946,551 947,552 948,554 949,555 950,557 951,558 952,560 953,561 954,563 955,564 956,565 957,567 958,568 959,570 960,571 961,573 962,574 963,575 964,577 965,578 966,580 967,581 968,582 969,584 970,585 971,587 972,588 973,590 974,591 975,592 976,594 977,595 978,597 979,598 980,599 981,601 982,602 983,604 984,605 985,606 986,608 987,609 988,610 989,612 990,613 991,615 992,616 993,617 994,619 995,620 996,621 997,623 998,624 999,626 1000,627 1001,628 1002,630 1003,631 1004,632 1005,634 1006,635 1007,637 1008,638 1009,639 1010,641 1011,642 1012,643 1013,645 1014,646 1015,647 1016,649 1017,650 1018,651 1019,653 1020,654 1021,655 1022,657 1023,658 1024,659 1025,661 1026,662 1027,663 1028,665 1029,666 1030,667 1031,669 1032,670 1033,671 1034,673 1035,674 1036,675 1037,677 1038,678 1039,679 1040,680 1041,682 1042,683 1043,684 1044,686 1045,687 1046,688 1047,690 1048,691 1049,692 1050,693 1051,695 1052,696 1053,697 1054,699 1055,700 1056,701 1057,703 1058,704 1059,705 1060,706 1061,708 1062,709 1063,710 1064,711 1065,713 1066,714 1067,715 1068,717 1069,718 1070,719 1071,720 1072,722 1073,723 1074,724 1075,725 1076,727 1077,728 1078,729 1079,730 1080,732 1081,733 1082,734 1083,735 1084,737 1085,738 1086,739 1087,740 1088,742 1089,743 1090,744 1091,745 1092,747 1093,748 1094,749 1095,750 1096,751 1097,753 1098,754 1099,755 1100,756 1101,758 1102,759 1103,760 1104,761 1105,762 1106,764 1107,765 1108,766 1109,767 1110,769 1111,770 1112,771 1113,772 1114,773 1115,775 1116,776 1117,777 1118,778 1119,779 1120,781 1121,782 1122,783 1123,784 1124,785 1125,786 1126,788 1127,789 " />
    <circle stroke="#000000" stroke-width="1" stroke-linecap="round" stroke-linejoin="round" fill="#000000" cx="634" cy="29" r="6" />
    <circle stroke="#000000" stroke-width="1" stroke-linecap="round" stroke-linejoin="round" fill="#000000" cx="1127" cy="789" r="6" />
    <polyline stroke="#000000" stroke-width="3" stroke-linecap="butt" stroke-linejoin="bevel" fill="none" points="1127,789 1128,790 1129,791 1130,793 1131,794 1132,795 1133,796 1134,797 1135,798 1136,800 1137,801 1138,802 1139,803 1140,804 1141,805 1142,807 1143,808 1144,809 1145,810 1146,811 1147,812 1148,814 1149,815 1150,816 1151,817 1152,818 1153,819 1154,820 1155,822 1156,823 1157,824 1158,825 1159,826 1160,827 1161,828 1162,830 1163,831 1164,832 1165,833 1166,834 1167,835 1168,836 1169,837 1170,838 1171,840 1172,841 1173,842 1174,843 1175,844 1176,845 1177,846 1178,847 1179,849 1180,850 1181,851 1182,852 1183,853 1184,854 1185,855 1186,856 1187,857 1188,858 1189,859 1190,861 1191,862 1192,863 1193,864 1194,865 1195,866 1196,867 1197,868 1198,869 1199,870 1200,871 1201,872 1202,874 1203,875 1204,876 1205,877 1206,878 1207,879 1208,880 1209,881 1210,882 1211,883 1212,884 1213,885 1214,886 1215,887 1216,888 1217,889 1218,891 1219,892 1220,893 1221,894 1222,895 1223,896 1224,897 1225,898 1226,899 1227,900 1228,901 1229,902 1230,903 1231,904 1232,905 1233,906 1234,907 1235,908 1236,909 1237,910 1238,911 1239,912 1240,913 1241,914 1242,915 1243,916 1244,917 1245,918 1246,919 1247,920 1248,921 1249,922 1250,923 1251,924 1252,925 1253,926 1254,927 1255,928 1256,929 1257,930 1258,931 1259,932 1260,933 1261,934 1262,935 1263,936 1264,937 1265,938 1266,939 1267,940 1268,941 1269,942 1270,943 1271,944 1272,945 1273,946 1274,947 1275,948 1276,949 1277,950 1278,951 1279,952 1280,953 1281,954 1282,955 1283,956 1284,957 1285,958 1286,958 1287,959 1288,960 1289,961 1290,962 1291,963 1292,964 1293,965 1294,966 1295,967 1296,968 1297,969 1298,970 1299,971 1300,972 1301,973 1302,973 1303,974 1304,975 1305,976 1306,977 1307,978 1308,979 1309,980 1310,981 1311,982 1312,983 1313,984 1314,984 1315,985 1316,986 1317,987 1318,988 1319,989 1320,990 1321,991 1322,992 1323,993 1324,994 1325,994 1326,995 1327,996 1328,997 1329,998 1330,999 1331,1000 1332,1001 1333,1002 1334,1002 1335,1003 1336,1004 1337,1005 1338,1006 1339,1007 1340,1008 1341,1009 1342,1009 1343,1010 1344,1011 1345,1012 1346,1013 1347,1014 1348,1015 1349,1015 1350,1016 1351,1017 1352,1018 1353,1019 1354,1020 1355,1021 1356,1021 1357,1022 1358,1023 1359,1024 1360,1025 1361,1026 1362,1026 1363,1027 1364,1028 1365,1029 1366,1030 1367,1031 1368,1031 1369,1032 1370,1033 1371,1034 1372,1035 1373,1036 1374,1036 1375,1037 1376,1038 1377,1039 1378,1040 1379,1040 1380,1041 1381,1042 1382,1043 1383,1044 1384,1045 1385,1045 1386,1046 1387,1047 1388,1048 1389,1049 1390,1049 1391,1050 1392,1051 1393,1052 1394,1053 1395,1053 1396,1054 1397,1055 1398,1056 1399,1056 1400,1057 1401,1058 1402,1059 1403,1060 1404,1060 1405,1061 1406,1062 1407,1063 1408,1063 1409,1064 1410,1065 1411,1066 1412,1067 1413,1067 1414,1068 1415,1069 1416,1070 1417,1070 1418,1071 1419,1072 1420,1073 1421,1073 1422,1074 1423,1075 1424,1076 1425,1076 1426,1077 1427,1078 1428,1079 1429,1079 1430,1080 1431,1081 1432,1082 1433,1082 1434,1083 1435,1084 1436,1085 1437,1085 1438,1086 1439,1087 1440,1087 1441,1088 1442,1089 1443,1090 1444,1090 1445,1091 1446,1092 1447,1092 1448,1093 1449,1094 1450,1095 1451,1095 1452,1096 1453,1097 1454,1097 1455,1098 1456,1099 1457,1100 1458,1100 1459,1101 1460,1102 1461,1102 1462,1103 1463,1104 1464,1104 1465,1105 1466,1106 1467,1106 1468,1107 1469,1108 1470,1109 1471,1109 1472,1110 1473,1111 1474,1111 1475,1112 1476,1113 1477,1113 1478,1114 1479,1115 1480,1115 " />
    <circle stroke="#000000" stroke-width="1" stroke-linecap="round" stroke-linejoin="round" fill="#000000" cx="1127" cy="789" r="6" />
    <circle stroke="#000000" stroke-width="1" stroke-linecap="round" stroke-linejoin="round" fill="#000000" cx="1480" cy="1115" r="6" />
    <polyline stroke="#000000" stroke-width="3" stroke-linecap="butt" stroke-linejoin="bevel" fill="none" points="1480,1115 1481,1115 1482,1116 1483,1117 1484,1117 1485,1118 1486,1119 1487,1119 1488,1120 1489,1121 1490,1121 1491,1122 1492,1123 1493,1123 1494,1124 1495,1125 1496,1125 1497,1126 1498,1127 1499,1127 1500,1128 1501,1128 1502,1129 1503,1130 1504,1130 1505,1131 1506,1132 1507,1132 1508,1133 1509,1134 1510,1134 1511,1135 1512,1135 1513,1136 1514,1137 1515,1137 1516,1138 1517,1139 1518,1139 1519,1140 1520,1140 1521,1141 1522,1142 1523,1142 1524,1143 1525,1143 1526,1144 1527,1145 1528,1145 1529,1146 1530,1146 1531,1147 1532,1148 1533,1148 1534,1149 1535,1149 1536,1150 1537,1150 1538,1151 1539,1152 1540,1152 1541,1153 1542,1153 1543,1154 1544,1155 1545,1155 1546,1156 1547,1156 1548,1157 1549,1157 1550,1158 1551,1159 1552,1159 1553,1160 1554,1160 1555,1161 1556,1161 1557,1162 1558,1162 1559,1163 1560,1164 1561,1164 1562,1165 1563,1165 1564,1166 1565,1166 1566,1167 1567,1167 1568,1168 1569,1168 1570,1169 1571,1170 1572,1170 1573,1171 1574,1171 1575,1172 1576,1172 1577,1173 1578,1173 1579,1174 1580,1174 1581,1175 1582,1175 1583,1176 1584,1176 1585,1177 1586,1177 1587,1178 1588,1178 1589,1179 1590,1179 1591,1180 1592,1180 1593,1181 1594,1181 1595,1182 1596,1182 1597,1183 1598,1183 1599,1184 1600,1184 1601,1185 1602,1185 1603,1186 1604,1186 1605,1187 1606,1187 1607,1188 1608,1188 1609,1189 1610,1189 1611,1190 1612,1190 1613,1191 1614,1191 1615,1192 1616,1192 1617,1193 1618,1193 1619,1194 1620,1194 1621,1194 1622,1195 1623,1195 1624,1196 1625,1196 1626,1197 1627,1197 1628,1198 1629,1198 1630,1199 1631,1199 1632,1199 1633,1200 1634,1200 1635,1201 1636,1201 1637,1202 1638,1202 1639,1203 1640,1203 1641,1203 1642,1204 1643,1204 1644,1205 1645,1205 1646,1206 1647,1206 1648,1206 1649,1207 1650,1207 1651,1208 1652,1208 1653,1209 1654,1209 1655,1209 1656,1210 1657,1210 1658,1211 1659,1211 1660,1211 1661,1212 1662,1212 1663,1213 1664,1213 1665,1213 1666,1214 1667,1214 1668,1215 1669,1215 1670,1215 1671,1216 1672,1216 1673,1217 1674,1217 1675,1217 1676,1218 1677,1218 1678,1218 1679,1219 1680,1219 1681,1220 1682,1220 1683,1220 1684,1221 1685,1221 1686,1221 1687,1222 1688,1222 1689,1223 1690,1223 1691,1223 1692,1224 1693,1224 1694,1224 1695,1225 1696,1225 1697,1225 1698,1226 1699,1226 1700,1226 1701,1227 1702,1227 1703,1227 1704,1228 1705,1228 1706,1228 1707,1229 1708,1229 1709,1229 1710,1230 1711,1230 1712,1230 1713,1231 1714,1231 1715,1231 1716,1232 1717,1232 1718,1232 1719,1233 1720,1233 1721,1233 1722,1234 1723,1234 1724,1234 1725,1235 1726,1235 1727,1235 1728,1236 1729,1236 1730,1236 1731,1236 1732,1237 1733,1237 1734,1237 1735,1238 1736,1238 1737,1238 1738,1239 1739,1239 1740,1239 1741,1239 1742,1240 1743,1240 1744,1240 1745,1241 1746,1241 1747,1241 1748,1241 1749,1242 1750,1242 1751,1242 1752,1242 1753,1243 1754,1243 1755,1243 1756,1244 1757,1244 1758,1244 1759,1244 1760,1245 1761,1245 1762,1245 1763,1245 1764,1246 1765,1246 1766,1246 1767,1246 1768,1247 1769,1247 1770,1247 1771,1247 1772,1248 1773,1248 1774,1248 1775,1248 1776,1249 1777,1249 1778,1249 1779,1249 1780,1250 1781,1250 1782,1250 1783,1250 1784,1250 1785,1251 1786,1251 1787,1251 1788,1251 1789,1252 1790,1252 1791,1252 1792,1252 1793,1252 1794,1253 1795,1253 1796,1253 1797,1253 1798,1253 1799,1254 1800,1254 1801,1254 1802,1254 1803,1254 1804,1255 1805,1255 1806,1255 1807,1255 1808,1255 1809,1256 1810,1256 1811,1256 1812,1256 1813,1256 1814,1257 1815,1257 1816,1257 1817,1257 1818,1257 1819,1257 1820,1258 1821,1258 1822,1258 1823,1258 1824,1258 1825,1258 1826,1259 1827,1259 1828,1259 1829,1259 1830,1259 1831,1259 1832,1260 1833,1260 1834,1260 1835,1260 1836,1260 1837,1260 1838,1260 1839,1261 1840,1261 1841,1261 1842,1261 1843,1261 1844,1261 1845,1261 1846,1262 1847,1262 1848,1262 1849,1262 1850,1262 1851,1262 1852,1262 1853,1262 1854,1263 1855,1263 1856,1263 1857,1263 1858,1263 1859,1263 1860,1263 1861,1263 1862,1264 1863,1264 1864,1264 1865,1264 1866,1264 1867,1264 1868,1264 1869,1264 1870,1264 1871,1264 1872,1265 1873,1265 1874,1265 1875,1265 1876,1265 1877,1265 1878,1265 1879,1265 1880,1265 1881,1265 1882,1265 1883,1266 1884,1266 1885,1266 1886,1266 1887,1266 1888,1266 1889,1266 1890,1266 1891,1266 1892,1266 1893,1266 1894,1266 1895,1266 1896,1266 1897,1266 1898,1267 1899,1267 1900,1267 1901,1267 1902,1267 1903,1267 1904,1267 1905,1267 1906,1267 1907,1267 1908,1267 1909,1267 1910,1267 1911,1267 1912,1267 1913,1267 1914,1267 1915,1267 1916,1267 1917,1267 1918,1267 1919,1267 1920,1267 1921,1268 1922,1268 1923,1268 1924,1268 1925,1268 1926,1268 1927,1268 1928,1268 1929,1268 1930,1268 1931,1268 1932,1268 1933,1268 1934,1268 1935,1268 1936,1268 1937,1268 " />
    <circle stroke="#000000" stroke-width="1" stroke-linecap="round" stroke-linejoin="round" fill="#000000" cx="1480" cy="1115" r="6" />
    <circle stroke="#000000" stroke-width="1" stroke-linecap="round" stroke-linejoin="round" fill="#000000" cx="1937" cy="1268" r="6" />
    <polyline stroke="#000000" stroke-width="3" stroke-linecap="butt" stroke-linejoin="bevel" fill="none" points="1937,1268 1939,1268 1940,1268 1941,1268 1942,1268 1943,1268 1944,1268 1945,1268 1946,1268 1947,1268 1948,1268 1949,1268 1950,1268 1951,1268 1952,1268 1953,1268 1954,1268 1955,1267 1956,1267 1957,1267 1958,1267 1959,1267 1960,1267 1961,1267 1962,1267 1963,1267 1964,1267 1965,1267 1966,1267 1967,1267 1968,1267 1969,1267 1970,1267 1971,1267 1972,1267 1973,1267 1974,1267 1975,1267 1976,1267 1977,1267 1978,1267 1979,1266 1980,1266 1981,1266 1982,1266 1983,1266 1984,1266 1985,1266 1986,1266 1987,1266 1988,1266 1989,1266 1990,1266 1991,1266 1992,1266 1993,1266 1994,1265 1995,1265 1996,1265 1997,1265 1998,1265 1999,1265 2000,1265 2001,1265 2002,1265 2003,1265 2004,1265 2005,1264 2006,1264 2007,1264 2008,1264 2009,1264 2010,1264 2011,1264 2012,1264 2013,1264 2014,1263 2015,1263 2016,1263 2017,1263 2018,1263 2019,1263 2020,1263 2021,1263 2022,1263 2023,1262 2024,1262 2025,1262 2026,1262 2027,1262 2028,1262 2029,1262 2030,1262 2031,1261 2032,1261 2033,1261 2034,1261 2035,1261 2036,1261 2037,1261 2038,1260 2039,1260 2040,1260 2041,1260 2042,1260 2043,1260 2044,1260 2045,1259 2046,1259 2047,1259 2048,1259 2049,1259 2050,1259 2051,1258 2052,1258 2053,1258 2054,1258 2055,1258 2056,1258 2057,1257 2058,1257 2059,1257 2060,1257 2061,1257 2062,1256 2063,1256 2064,1256 2065,1256 2066,1256 2067,1256 2068,1255 2069,1255 2070,1255 2071,1255 2072,1255 2073,1254 2074,1254 2075,1254 2076,1254 2077,1254 2078,1253 2079,1253 2080,1253 2081,1253 2082,1253 2083,1252 2084,1252 2085,1252 2086,1252 2087,1252 2088,1251 2089,1251 2090,1251 2091,1251 2092,1250 2093,1250 2094,1250 2095,1250 2096,1250 2097,1249 2098,1249 2099,1249 2100,1249 2101,1248 2102,1248 2103,1248 2104,1248 2105,1247 2106,1247 2107,1247 2108,1247 2109,1246 2110,1246 2111,1246 2112,1246 2113,1245 2114,1245 2115,1245 2116,1245 2117,1244 2118,1244 2119,1244 2120,1244 2121,1243 2122,1243 2123,1243 2124,1242 2125,1242 2126,1242 2127,1242 2128,1241 2129,1241 2130,1241 2131,1241 2132,1240 2133,1240 2134,1240 2135,1239 2136,1239 2137,1239 2138,1239 2139,1238 2140,1238 2141,1238 2142,1237 2143,1237 2144,1237 2145,1236 2146,1236 2147,1236 2148,1236 2149,1235 2150,1235 2151,1235 2152,1234 2153,1234 2154,1234 2155,1233 2156,1233 2157,1233 2158,1232 2159,1232 2160,1232 2161,1231 2162,1231 2163,1231 2164,1230 2165,1230 2166,1230 2167,1229 2168,1229 2169,1229 2170,1228 2171,1228 2172,1228 2173,1227 2174,1227 2175,1227 2176,1226 2177,1226 2178,1226 2179,1225 2180,1225 2181,1225 2182,1224 2183,1224 2184,1224 2185,1223 2186,1223 2187,1223 2188,1222 2189,1222 2190,1221 2191,1221 2192,1221 2193,1220 2194,1220 2195,1220 2196,1219 2197,1219 2198,1218 2199,1218 2200,1218 2201,1217 2202,1217 2203,1217 2204,1216 2205,1216 2206,1215 2207,1215 2208,1215 2209,1214 2210,1214 2211,1213 2212,1213 2213,1213 2214,1212 2215,1212 2216,1211 2217,1211 2218,1211 2219,1210 2220,1210 2221,1209 2222,1209 2223,1208 2224,1208 2225,1208 2226,1207 2227,1207 2228,1206 2229,1206 2230,1206 2231,1205 2232,1205 2233,1204 2234,1204 2235,1203 2236,1203 2237,1203 2238,1202 2239,1202 2240,1201 2241,1201 2242,1200 2243,1200 2244,1199 2245,1199 2246,1199 2247,1198 2248,1198 2249,1197 2250,1197 2251,1196 2252,1196 2253,1195 2254,1195 2255,1194 " />
    <circle stroke="#000000" stroke-width="1" stroke-linecap="round" stroke-linejoin="round" fill="#000000" cx="1937" cy="1268" r="6" />
    <circle stroke="#000000" stroke-width="1" stroke-linecap="round" stroke-linejoin="round" fill="#000000" cx="2255" cy="1194" r="6" />
    <text x="1131" y="768" font-family="Times New Roman" font-size="32" fill="#000000">(15; 102)</text>
    <text x="1860" y="1239" font-family="Times New Roman" font-size="32" fill="#000000">(26.5; -30.25)</text>
    <text x="1475" y="1084" font-family="Times New Roman" font-size="32" fill="#000000">(20; 12)</text>
    <text x="2121" y="1140" font-family="Times New Roman" font-size="32" fill="#000000">(31; -10)</text>
    <text x="487" y="63" font-family="Times New Roman" font-size="32" fill="#000000">(8; 312)</text>
  </g>
</svg>
