<?xml version="1.0" encoding="UTF-8"?>
<!DOCTYPE svg PUBLIC "-//W3C//DTD SVG 1.1//EN" "http://www.w3.org/Graphics/SVG/1.1/DTD/svg11.dtd">
<svg width="1756px" height="943px" viewBox="0 0 1756 943" version="1.1" xmlns="http://www.w3.org/2000/svg" xmlns:xlink="http://www.w3.org/1999/xlink">
  <g>
    <circle stroke="#000000" stroke-width="1" stroke-linecap="round" stroke-linejoin="round" fill="#ff0000" cx="1731" cy="20" r="5" />
    <text x="1711" y="16" font-family="Times New Roman" font-size="11" fill="#000000">Ряд 1</text>
    <rect stroke="#000000" stroke-width="1" stroke-linecap="round" stroke-linejoin="round" fill="none" x="1706.5" y="0.5" width="49" height="29" />
  </g>
  <clipPath id="clippath1">
    <path d="M-1,-1 H1756 V942H-1 z M1705,-1 H1757 V31 H1705 z" clip-rule="evenodd" />
  </clipPath>
  <g clip-path="url(#clippath1)">
    <text x="71" y="874" font-family="Times New Roman" font-size="13" fill="#000000">-0.5</text>
    <text x="232" y="874" font-family="Times New Roman" font-size="13" fill="#000000">0.5</text>
    <text x="316" y="874" font-family="Times New Roman" font-size="13" fill="#000000">1</text>
    <text x="392" y="874" font-family="Times New Roman" font-size="13" fill="#000000">1.5</text>
    <text x="476" y="874" font-family="Times New Roman" font-size="13" fill="#000000">2</text>
    <text x="552" y="874" font-family="Times New Roman" font-size="13" fill="#000000">2.5</text>
    <text x="636" y="874" font-family="Times New Roman" font-size="13" fill="#000000">3</text>
    <text x="711" y="874" font-family="Times New Roman" font-size="13" fill="#000000">3.5</text>
    <text x="795" y="874" font-family="Times New Roman" font-size="13" fill="#000000">4</text>
    <text x="871" y="874" font-family="Times New Roman" font-size="13" fill="#000000">4.5</text>
    <text x="955" y="874" font-family="Times New Roman" font-size="13" fill="#000000">5</text>
    <text x="1031" y="874" font-family="Times New Roman" font-size="13" fill="#000000">5.5</text>
    <text x="1114" y="874" font-family="Times New Roman" font-size="13" fill="#000000">6</text>
    <text x="1190" y="874" font-family="Times New Roman" font-size="13" fill="#000000">6.5</text>
    <text x="1274" y="874" font-family="Times New Roman" font-size="13" fill="#000000">7</text>
    <text x="1350" y="874" font-family="Times New Roman" font-size="13" fill="#000000">7.5</text>
    <text x="1434" y="874" font-family="Times New Roman" font-size="13" fill="#000000">8</text>
    <text x="1510" y="874" font-family="Times New Roman" font-size="13" fill="#000000">8.5</text>
    <text x="1593" y="874" font-family="Times New Roman" font-size="13" fill="#000000">9</text>
    <text x="1669" y="874" font-family="Times New Roman" font-size="13" fill="#000000">9.5</text>
    <text x="128" y="906" font-family="Times New Roman" font-size="13" fill="#000000">-0.05</text>
    <text x="132" y="820" font-family="Times New Roman" font-size="13" fill="#000000">0.05</text>
    <text x="138" y="778" font-family="Times New Roman" font-size="13" fill="#000000">0.1</text>
    <text x="132" y="735" font-family="Times New Roman" font-size="13" fill="#000000">0.15</text>
    <text x="138" y="692" font-family="Times New Roman" font-size="13" fill="#000000">0.2</text>
    <text x="132" y="649" font-family="Times New Roman" font-size="13" fill="#000000">0.25</text>
    <text x="138" y="606" font-family="Times New Roman" font-size="13" fill="#000000">0.3</text>
    <text x="132" y="563" font-family="Times New Roman" font-size="13" fill="#000000">0.35</text>
    <text x="138" y="520" font-family="Times New Roman" font-size="13" fill="#000000">0.4</text>
    <text x="132" y="478" font-family="Times New Roman" font-size="13" fill="#000000">0.45</text>
    <text x="138" y="435" font-family="Times New Roman" font-size="13" fill="#000000">0.5</text>
    <text x="132" y="392" font-family="Times New Roman" font-size="13" fill="#000000">0.55</text>
    <text x="138" y="349" font-family="Times New Roman" font-size="13" fill="#000000">0.6</text>
    <text x="132" y="306" font-family="Times New Roman" font-size="13" fill="#000000">0.65</text>
    <text x="138" y="263" font-family="Times New Roman" font-size="13" fill="#000000">0.7</text>
    <text x="132" y="220" font-family="Times New Roman" font-size="13" fill="#000000">0.75</text>
    <text x="138" y="177" font-family="Times New Roman" font-size="13" fill="#000000">0.8</text>
    <text x="132" y="135" font-family="Times New Roman" font-size="13" fill="#000000">0.85</text>
    <text x="138" y="92" font-family="Times New Roman" font-size="13" fill="#000000">0.9</text>
    <text x="132" y="49" font-family="Times New Roman" font-size="13" fill="#000000">0.95</text>
    <text x="1745" y="847" font-family="Times New Roman" font-size="16" font-weight="700" fill="#000000">x</text>
    <text x="172" y="13" font-family="Times New Roman" font-size="16" font-weight="700" fill="#000000">y</text>
    <line stroke="#0000ff" stroke-width="2" stroke-linecap="butt" stroke-linejoin="bevel" x1="0" y1="857" x2="1751" y2="857" />
    <polygon stroke="#0000ff" stroke-width="1" stroke-linecap="round" stroke-linejoin="round" fill="#0000ff" points="1750.5,851.5 1755.5,856.5 1755.5,857.5 1750.5,862.5 " />
    <line stroke="#0000ff" stroke-width="1" stroke-linecap="round" stroke-linejoin="round" x1="80.5" y1="862.5" x2="80.5" y2="851.5" />
    <line stroke="#0000ff" stroke-width="1" stroke-linecap="round" stroke-linejoin="round" x1="239.5" y1="862.5" x2="239.5" y2="851.5" />
    <line stroke="#0000ff" stroke-width="1" stroke-linecap="round" stroke-linejoin="round" x1="319.5" y1="862.5" x2="319.5" y2="851.5" />
    <line stroke="#0000ff" stroke-width="1" stroke-linecap="round" stroke-linejoin="round" x1="399.5" y1="862.5" x2="399.5" y2="851.5" />
    <line stroke="#0000ff" stroke-width="1" stroke-linecap="round" stroke-linejoin="round" x1="479.5" y1="862.5" x2="479.5" y2="851.5" />
    <line stroke="#0000ff" stroke-width="1" stroke-linecap="round" stroke-linejoin="round" x1="559.5" y1="862.5" x2="559.5" y2="851.5" />
    <line stroke="#0000ff" stroke-width="1" stroke-linecap="round" stroke-linejoin="round" x1="639.5" y1="862.5" x2="639.5" y2="851.5" />
    <line stroke="#0000ff" stroke-width="1" stroke-linecap="round" stroke-linejoin="round" x1="718.5" y1="862.5" x2="718.5" y2="851.5" />
    <line stroke="#0000ff" stroke-width="1" stroke-linecap="round" stroke-linejoin="round" x1="798.5" y1="862.5" x2="798.5" y2="851.5" />
    <line stroke="#0000ff" stroke-width="1" stroke-linecap="round" stroke-linejoin="round" x1="878.5" y1="862.5" x2="878.5" y2="851.5" />
    <line stroke="#0000ff" stroke-width="1" stroke-linecap="round" stroke-linejoin="round" x1="958.5" y1="862.5" x2="958.5" y2="851.5" />
    <line stroke="#0000ff" stroke-width="1" stroke-linecap="round" stroke-linejoin="round" x1="1038.5" y1="862.5" x2="1038.5" y2="851.5" />
    <line stroke="#0000ff" stroke-width="1" stroke-linecap="round" stroke-linejoin="round" x1="1117.5" y1="862.5" x2="1117.5" y2="851.5" />
    <line stroke="#0000ff" stroke-width="1" stroke-linecap="round" stroke-linejoin="round" x1="1197.5" y1="862.5" x2="1197.5" y2="851.5" />
    <line stroke="#0000ff" stroke-width="1" stroke-linecap="round" stroke-linejoin="round" x1="1277.5" y1="862.5" x2="1277.5" y2="851.5" />
    <line stroke="#0000ff" stroke-width="1" stroke-linecap="round" stroke-linejoin="round" x1="1357.5" y1="862.5" x2="1357.5" y2="851.5" />
    <line stroke="#0000ff" stroke-width="1" stroke-linecap="round" stroke-linejoin="round" x1="1437.5" y1="862.5" x2="1437.5" y2="851.5" />
    <line stroke="#0000ff" stroke-width="1" stroke-linecap="round" stroke-linejoin="round" x1="1517.5" y1="862.5" x2="1517.5" y2="851.5" />
    <line stroke="#0000ff" stroke-width="1" stroke-linecap="round" stroke-linejoin="round" x1="1596.5" y1="862.5" x2="1596.5" y2="851.5" />
    <line stroke="#0000ff" stroke-width="1" stroke-linecap="round" stroke-linejoin="round" x1="1676.5" y1="862.5" x2="1676.5" y2="851.5" />
    <line stroke="#0000ff" stroke-width="2" stroke-linecap="butt" stroke-linejoin="bevel" x1="160" y1="3" x2="160" y2="942" />
    <polygon stroke="#0000ff" stroke-width="1" stroke-linecap="round" stroke-linejoin="round" fill="#0000ff" points="154.5,5.5 159.5,0.5 160.5,0.5 165.5,5.5 " />
    <line stroke="#0000ff" stroke-width="1" stroke-linecap="round" stroke-linejoin="round" x1="154.5" y1="900.5" x2="165.5" y2="900.5" />
    <line stroke="#0000ff" stroke-width="1" stroke-linecap="round" stroke-linejoin="round" x1="154.5" y1="814.5" x2="165.5" y2="814.5" />
    <line stroke="#0000ff" stroke-width="1" stroke-linecap="round" stroke-linejoin="round" x1="154.5" y1="772.5" x2="165.5" y2="772.5" />
    <line stroke="#0000ff" stroke-width="1" stroke-linecap="round" stroke-linejoin="round" x1="154.5" y1="729.5" x2="165.5" y2="729.5" />
    <line stroke="#0000ff" stroke-width="1" stroke-linecap="round" stroke-linejoin="round" x1="154.5" y1="686.5" x2="165.5" y2="686.5" />
    <line stroke="#0000ff" stroke-width="1" stroke-linecap="round" stroke-linejoin="round" x1="154.5" y1="643.5" x2="165.5" y2="643.5" />
    <line stroke="#0000ff" stroke-width="1" stroke-linecap="round" stroke-linejoin="round" x1="154.5" y1="600.5" x2="165.5" y2="600.5" />
    <line stroke="#0000ff" stroke-width="1" stroke-linecap="round" stroke-linejoin="round" x1="154.5" y1="557.5" x2="165.5" y2="557.5" />
    <line stroke="#0000ff" stroke-width="1" stroke-linecap="round" stroke-linejoin="round" x1="154.5" y1="514.5" x2="165.5" y2="514.5" />
    <line stroke="#0000ff" stroke-width="1" stroke-linecap="round" stroke-linejoin="round" x1="154.5" y1="471.5" x2="165.5" y2="471.5" />
    <line stroke="#0000ff" stroke-width="1" stroke-linecap="round" stroke-linejoin="round" x1="154.5" y1="429.5" x2="165.5" y2="429.5" />
    <line stroke="#0000ff" stroke-width="1" stroke-linecap="round" stroke-linejoin="round" x1="154.5" y1="386.5" x2="165.5" y2="386.5" />
    <line stroke="#0000ff" stroke-width="1" stroke-linecap="round" stroke-linejoin="round" x1="154.5" y1="343.5" x2="165.5" y2="343.5" />
    <line stroke="#0000ff" stroke-width="1" stroke-linecap="round" stroke-linejoin="round" x1="154.5" y1="300.5" x2="165.5" y2="300.5" />
    <line stroke="#0000ff" stroke-width="1" stroke-linecap="round" stroke-linejoin="round" x1="154.5" y1="257.5" x2="165.5" y2="257.5" />
    <line stroke="#0000ff" stroke-width="1" stroke-linecap="round" stroke-linejoin="round" x1="154.5" y1="214.5" x2="165.5" y2="214.5" />
    <line stroke="#0000ff" stroke-width="1" stroke-linecap="round" stroke-linejoin="round" x1="154.5" y1="171.5" x2="165.5" y2="171.5" />
    <line stroke="#0000ff" stroke-width="1" stroke-linecap="round" stroke-linejoin="round" x1="154.5" y1="129.5" x2="165.5" y2="129.5" />
    <line stroke="#0000ff" stroke-width="1" stroke-linecap="round" stroke-linejoin="round" x1="154.5" y1="86.5" x2="165.5" y2="86.5" />
    <line stroke="#0000ff" stroke-width="1" stroke-linecap="round" stroke-linejoin="round" x1="154.5" y1="43.5" x2="165.5" y2="43.5" />
  </g>
  <clipPath id="clippath2">
    <path d="M-1,-1 H1756 V942H-1 z M1705,-1 H1757 V31 H1705 z" clip-rule="evenodd" />
  </clipPath>
  <g clip-path="url(#clippath2)">
    <circle stroke="#000000" stroke-width="1" stroke-linecap="round" stroke-linejoin="round" fill="#ff0000" cx="160" cy="849" r="5" />
    <circle stroke="#000000" stroke-width="1" stroke-linecap="round" stroke-linejoin="round" fill="#ff0000" cx="319" cy="805" r="5" />
    <circle stroke="#000000" stroke-width="1" stroke-linecap="round" stroke-linejoin="round" fill="#ff0000" cx="479" cy="719" r="5" />
    <circle stroke="#000000" stroke-width="1" stroke-linecap="round" stroke-linejoin="round" fill="#ff0000" cx="639" cy="642" r="5" />
    <circle stroke="#000000" stroke-width="1" stroke-linecap="round" stroke-linejoin="round" fill="#ff0000" cx="798" cy="642" r="5" />
    <circle stroke="#000000" stroke-width="1" stroke-linecap="round" stroke-linejoin="round" fill="#ff0000" cx="958" cy="714" r="5" />
    <circle stroke="#000000" stroke-width="1" stroke-linecap="round" stroke-linejoin="round" fill="#ff0000" cx="1117" cy="794" r="5" />
    <circle stroke="#000000" stroke-width="1" stroke-linecap="round" stroke-linejoin="round" fill="#ff0000" cx="1277" cy="839" r="5" />
    <circle stroke="#000000" stroke-width="1" stroke-linecap="round" stroke-linejoin="round" fill="#ff0000" cx="1437" cy="854" r="5" />
    <circle stroke="#000000" stroke-width="1" stroke-linecap="round" stroke-linejoin="round" fill="#ff0000" cx="1596" cy="857" r="5" />
  </g>
</svg>
