<?xml version="1.0" encoding="UTF-8"?>
<!DOCTYPE svg PUBLIC "-//W3C//DTD SVG 1.1//EN" "http://www.w3.org/Graphics/SVG/1.1/DTD/svg11.dtd">
<svg width="1756px" height="943px" viewBox="0 0 1756 943" version="1.1" xmlns="http://www.w3.org/2000/svg" xmlns:xlink="http://www.w3.org/1999/xlink">
  <g>
    <polyline stroke="#0000ff" stroke-width="1" stroke-linecap="round" stroke-linejoin="round" fill="none" points="1711,20 1751,20 " />
    <circle stroke="#000000" stroke-width="1" stroke-linecap="round" stroke-linejoin="round" fill="#ff0000" cx="1731" cy="20" r="5" />
    <text x="1711" y="16" font-family="Times New Roman" font-size="11" fill="#000000">Ряд 1</text>
    <rect stroke="#000000" stroke-width="1" stroke-linecap="round" stroke-linejoin="round" fill="none" x="1706.5" y="0.5" width="49" height="29" />
  </g>
  <clipPath id="clippath1">
    <path d="M-1,-1 H1756 V942H-1 z M1705,-1 H1757 V31 H1705 z" clip-rule="evenodd" />
  </clipPath>
  <g clip-path="url(#clippath1)">
    <text x="59" y="874" font-family="Times New Roman" font-size="13" fill="#000000">-0.5</text>
    <text x="196" y="874" font-family="Times New Roman" font-size="13" fill="#000000">0.5</text>
    <text x="267" y="874" font-family="Times New Roman" font-size="13" fill="#000000">1</text>
    <text x="331" y="874" font-family="Times New Roman" font-size="13" fill="#000000">1.5</text>
    <text x="402" y="874" font-family="Times New Roman" font-size="13" fill="#000000">2</text>
    <text x="466" y="874" font-family="Times New Roman" font-size="13" fill="#000000">2.5</text>
    <text x="537" y="874" font-family="Times New Roman" font-size="13" fill="#000000">3</text>
    <text x="601" y="874" font-family="Times New Roman" font-size="13" fill="#000000">3.5</text>
    <text x="672" y="874" font-family="Times New Roman" font-size="13" fill="#000000">4</text>
    <text x="736" y="874" font-family="Times New Roman" font-size="13" fill="#000000">4.5</text>
    <text x="807" y="874" font-family="Times New Roman" font-size="13" fill="#000000">5</text>
    <text x="871" y="874" font-family="Times New Roman" font-size="13" fill="#000000">5.5</text>
    <text x="943" y="874" font-family="Times New Roman" font-size="13" fill="#000000">6</text>
    <text x="1006" y="874" font-family="Times New Roman" font-size="13" fill="#000000">6.5</text>
    <text x="1078" y="874" font-family="Times New Roman" font-size="13" fill="#000000">7</text>
    <text x="1141" y="874" font-family="Times New Roman" font-size="13" fill="#000000">7.5</text>
    <text x="1213" y="874" font-family="Times New Roman" font-size="13" fill="#000000">8</text>
    <text x="1276" y="874" font-family="Times New Roman" font-size="13" fill="#000000">8.5</text>
    <text x="1348" y="874" font-family="Times New Roman" font-size="13" fill="#000000">9</text>
    <text x="1411" y="874" font-family="Times New Roman" font-size="13" fill="#000000">9.5</text>
    <text x="1480" y="874" font-family="Times New Roman" font-size="13" fill="#000000">10</text>
    <text x="1543" y="874" font-family="Times New Roman" font-size="13" fill="#000000">10.5</text>
    <text x="1615" y="874" font-family="Times New Roman" font-size="13" fill="#000000">11</text>
    <text x="1678" y="874" font-family="Times New Roman" font-size="13" fill="#000000">11.5</text>
    <text x="107" y="778" font-family="Times New Roman" font-size="13" fill="#000000">0.05</text>
    <text x="113" y="692" font-family="Times New Roman" font-size="13" fill="#000000">0.1</text>
    <text x="107" y="606" font-family="Times New Roman" font-size="13" fill="#000000">0.15</text>
    <text x="113" y="520" font-family="Times New Roman" font-size="13" fill="#000000">0.2</text>
    <text x="107" y="435" font-family="Times New Roman" font-size="13" fill="#000000">0.25</text>
    <text x="113" y="349" font-family="Times New Roman" font-size="13" fill="#000000">0.3</text>
    <text x="107" y="263" font-family="Times New Roman" font-size="13" fill="#000000">0.35</text>
    <text x="113" y="177" font-family="Times New Roman" font-size="13" fill="#000000">0.4</text>
    <text x="107" y="92" font-family="Times New Roman" font-size="13" fill="#000000">0.45</text>
    <text x="1744" y="847" font-family="Times New Roman" font-size="16" font-weight="700" fill="#000000">k</text>
    <text x="147" y="13" font-family="Times New Roman" font-size="16" font-weight="700" fill="#000000">P</text>
    <line stroke="#0000ff" stroke-width="2" stroke-linecap="butt" stroke-linejoin="bevel" x1="0" y1="857" x2="1751" y2="857" />
    <polygon stroke="#0000ff" stroke-width="1" stroke-linecap="round" stroke-linejoin="round" fill="#0000ff" points="1750.5,851.5 1755.5,856.5 1755.5,857.5 1750.5,862.5 " />
    <line stroke="#0000ff" stroke-width="1" stroke-linecap="round" stroke-linejoin="round" x1="68.5" y1="862.5" x2="68.5" y2="851.5" />
    <line stroke="#0000ff" stroke-width="1" stroke-linecap="round" stroke-linejoin="round" x1="203.5" y1="862.5" x2="203.5" y2="851.5" />
    <line stroke="#0000ff" stroke-width="1" stroke-linecap="round" stroke-linejoin="round" x1="270.5" y1="862.5" x2="270.5" y2="851.5" />
    <line stroke="#0000ff" stroke-width="1" stroke-linecap="round" stroke-linejoin="round" x1="338.5" y1="862.5" x2="338.5" y2="851.5" />
    <line stroke="#0000ff" stroke-width="1" stroke-linecap="round" stroke-linejoin="round" x1="405.5" y1="862.5" x2="405.5" y2="851.5" />
    <line stroke="#0000ff" stroke-width="1" stroke-linecap="round" stroke-linejoin="round" x1="473.5" y1="862.5" x2="473.5" y2="851.5" />
    <line stroke="#0000ff" stroke-width="1" stroke-linecap="round" stroke-linejoin="round" x1="540.5" y1="862.5" x2="540.5" y2="851.5" />
    <line stroke="#0000ff" stroke-width="1" stroke-linecap="round" stroke-linejoin="round" x1="608.5" y1="862.5" x2="608.5" y2="851.5" />
    <line stroke="#0000ff" stroke-width="1" stroke-linecap="round" stroke-linejoin="round" x1="675.5" y1="862.5" x2="675.5" y2="851.5" />
    <line stroke="#0000ff" stroke-width="1" stroke-linecap="round" stroke-linejoin="round" x1="743.5" y1="862.5" x2="743.5" y2="851.5" />
    <line stroke="#0000ff" stroke-width="1" stroke-linecap="round" stroke-linejoin="round" x1="810.5" y1="862.5" x2="810.5" y2="851.5" />
    <line stroke="#0000ff" stroke-width="1" stroke-linecap="round" stroke-linejoin="round" x1="878.5" y1="862.5" x2="878.5" y2="851.5" />
    <line stroke="#0000ff" stroke-width="1" stroke-linecap="round" stroke-linejoin="round" x1="946.5" y1="862.5" x2="946.5" y2="851.5" />
    <line stroke="#0000ff" stroke-width="1" stroke-linecap="round" stroke-linejoin="round" x1="1013.5" y1="862.5" x2="1013.5" y2="851.5" />
    <line stroke="#0000ff" stroke-width="1" stroke-linecap="round" stroke-linejoin="round" x1="1081.5" y1="862.5" x2="1081.5" y2="851.5" />
    <line stroke="#0000ff" stroke-width="1" stroke-linecap="round" stroke-linejoin="round" x1="1148.5" y1="862.5" x2="1148.5" y2="851.5" />
    <line stroke="#0000ff" stroke-width="1" stroke-linecap="round" stroke-linejoin="round" x1="1216.5" y1="862.5" x2="1216.5" y2="851.5" />
    <line stroke="#0000ff" stroke-width="1" stroke-linecap="round" stroke-linejoin="round" x1="1283.5" y1="862.5" x2="1283.5" y2="851.5" />
    <line stroke="#0000ff" stroke-width="1" stroke-linecap="round" stroke-linejoin="round" x1="1351.5" y1="862.5" x2="1351.5" y2="851.5" />
    <line stroke="#0000ff" stroke-width="1" stroke-linecap="round" stroke-linejoin="round" x1="1418.5" y1="862.5" x2="1418.5" y2="851.5" />
    <line stroke="#0000ff" stroke-width="1" stroke-linecap="round" stroke-linejoin="round" x1="1486.5" y1="862.5" x2="1486.5" y2="851.5" />
    <line stroke="#0000ff" stroke-width="1" stroke-linecap="round" stroke-linejoin="round" x1="1553.5" y1="862.5" x2="1553.5" y2="851.5" />
    <line stroke="#0000ff" stroke-width="1" stroke-linecap="round" stroke-linejoin="round" x1="1621.5" y1="862.5" x2="1621.5" y2="851.5" />
    <line stroke="#0000ff" stroke-width="1" stroke-linecap="round" stroke-linejoin="round" x1="1688.5" y1="862.5" x2="1688.5" y2="851.5" />
    <line stroke="#0000ff" stroke-width="2" stroke-linecap="butt" stroke-linejoin="bevel" x1="135" y1="3" x2="135" y2="942" />
    <polygon stroke="#0000ff" stroke-width="1" stroke-linecap="round" stroke-linejoin="round" fill="#0000ff" points="129.5,5.5 134.5,0.5 135.5,0.5 140.5,5.5 " />
    <line stroke="#0000ff" stroke-width="1" stroke-linecap="round" stroke-linejoin="round" x1="129.5" y1="772.5" x2="140.5" y2="772.5" />
    <line stroke="#0000ff" stroke-width="1" stroke-linecap="round" stroke-linejoin="round" x1="129.5" y1="686.5" x2="140.5" y2="686.5" />
    <line stroke="#0000ff" stroke-width="1" stroke-linecap="round" stroke-linejoin="round" x1="129.5" y1="600.5" x2="140.5" y2="600.5" />
    <line stroke="#0000ff" stroke-width="1" stroke-linecap="round" stroke-linejoin="round" x1="129.5" y1="514.5" x2="140.5" y2="514.5" />
    <line stroke="#0000ff" stroke-width="1" stroke-linecap="round" stroke-linejoin="round" x1="129.5" y1="429.5" x2="140.5" y2="429.5" />
    <line stroke="#0000ff" stroke-width="1" stroke-linecap="round" stroke-linejoin="round" x1="129.5" y1="343.5" x2="140.5" y2="343.5" />
    <line stroke="#0000ff" stroke-width="1" stroke-linecap="round" stroke-linejoin="round" x1="129.5" y1="257.5" x2="140.5" y2="257.5" />
    <line stroke="#0000ff" stroke-width="1" stroke-linecap="round" stroke-linejoin="round" x1="129.5" y1="171.5" x2="140.5" y2="171.5" />
    <line stroke="#0000ff" stroke-width="1" stroke-linecap="round" stroke-linejoin="round" x1="129.5" y1="86.5" x2="140.5" y2="86.5" />
  </g>
  <clipPath id="clippath2">
    <path d="M-1,-1 H1756 V942H-1 z M1705,-1 H1757 V31 H1705 z" clip-rule="evenodd" />
  </clipPath>
  <g clip-path="url(#clippath2)">
    <polyline stroke="#0000ff" stroke-width="1" stroke-linecap="round" stroke-linejoin="round" fill="none" points="135,857 136,857 137,857 138,857 139,857 140,857 141,857 142,857 143,857 144,857 145,857 146,857 147,857 148,857 149,857 150,857 151,857 152,857 153,857 154,857 155,857 156,857 157,857 158,857 159,857 160,857 161,857 162,857 163,857 164,857 165,857 166,857 167,857 168,857 169,857 170,857 171,857 172,857 173,857 174,857 175,857 176,857 177,857 178,857 179,857 180,857 181,857 182,857 183,857 184,857 185,857 186,857 187,857 188,857 189,857 190,857 191,857 192,857 193,857 194,857 195,857 196,857 197,857 198,857 199,857 200,857 201,857 202,857 203,857 204,857 205,857 206,857 207,857 208,857 209,857 210,857 211,857 212,857 213,857 214,857 215,857 216,857 217,857 218,857 219,857 220,857 221,857 222,857 223,857 224,857 225,857 226,857 227,857 228,857 229,857 230,857 231,857 232,857 233,857 234,857 235,857 236,857 237,857 238,857 239,857 240,857 241,857 242,857 243,857 244,857 245,857 246,857 247,857 248,857 249,857 250,857 251,857 252,857 253,857 254,857 255,857 256,857 257,857 258,857 259,857 260,857 261,857 262,857 263,857 264,857 265,857 266,857 267,857 268,857 269,857 270,857 271,857 272,857 273,857 274,857 275,857 276,857 277,857 278,857 279,857 280,857 281,857 282,857 283,857 284,857 285,857 286,857 287,857 288,857 289,857 290,857 291,857 292,857 293,857 294,857 295,857 296,857 297,857 298,857 299,857 300,857 301,857 302,857 303,857 304,857 305,857 306,857 307,857 308,857 309,857 310,857 311,857 312,857 313,857 314,857 315,857 316,857 317,857 318,857 319,857 320,857 321,857 322,857 323,857 324,857 325,857 326,857 327,857 328,857 329,857 330,857 331,857 332,857 333,857 334,857 335,857 336,857 337,857 338,857 339,857 340,857 341,857 342,857 343,857 344,857 345,857 346,857 347,857 348,857 349,857 350,857 351,857 352,857 353,857 354,857 355,857 356,857 357,857 358,857 359,857 360,857 361,857 362,857 363,857 364,857 365,857 366,857 367,857 368,857 369,857 370,857 371,857 372,857 373,857 374,857 375,857 376,857 377,857 378,857 379,857 380,857 381,857 382,857 383,857 384,857 385,857 386,857 387,857 388,857 389,857 390,857 391,857 392,857 393,857 394,857 395,857 396,857 397,857 398,857 399,857 400,857 401,857 402,857 403,857 404,857 405,857 406,857 407,857 408,857 409,857 410,857 411,857 412,857 413,857 414,857 415,857 416,857 417,857 418,857 419,857 420,857 421,857 422,857 423,857 424,857 425,857 426,857 427,857 428,857 429,857 430,857 431,857 432,857 433,857 434,857 435,857 436,857 437,857 438,857 439,857 440,857 441,857 442,857 443,857 444,857 445,857 446,857 447,857 448,857 449,857 450,857 451,857 452,857 453,857 454,857 455,857 456,857 457,857 458,857 459,857 460,857 461,856 462,856 463,856 464,856 465,856 466,856 467,856 468,856 469,856 470,856 471,856 472,856 473,856 474,856 475,856 476,856 477,856 478,856 479,856 480,856 481,856 482,856 483,856 484,856 485,856 486,856 487,856 488,856 489,856 490,856 491,856 492,856 493,856 494,856 495,856 496,856 497,856 498,856 499,856 500,856 501,856 502,856 503,856 504,855 505,855 506,855 507,855 508,855 509,855 510,855 511,855 512,855 513,855 514,855 515,855 516,855 517,855 518,855 519,855 520,855 521,855 522,855 523,855 524,855 525,855 526,855 527,855 528,855 529,855 530,854 531,854 532,854 533,854 534,854 535,854 536,854 537,854 538,854 539,854 540,854 541,854 542,854 543,854 544,854 545,854 546,854 547,854 548,854 549,854 550,853 551,853 552,853 553,853 554,853 555,853 556,853 557,853 558,853 559,853 560,853 561,853 562,853 563,853 564,853 565,852 566,852 567,852 568,852 569,852 570,852 571,852 572,852 573,852 574,852 575,852 576,852 577,852 578,851 579,851 580,851 581,851 582,851 583,851 584,851 585,851 586,851 587,851 588,850 589,850 590,850 591,850 592,850 593,850 594,850 595,850 596,849 597,849 598,849 599,849 600,849 601,849 602,849 603,849 604,848 605,848 606,848 607,848 608,848 609,848 610,848 611,847 612,847 613,847 614,847 615,847 616,847 617,846 618,846 619,846 620,846 621,846 622,845 623,845 624,845 625,845 626,845 627,844 628,844 629,844 630,844 631,844 632,843 633,843 634,843 635,843 636,843 637,842 638,842 639,842 640,842 641,841 642,841 643,841 644,841 645,840 646,840 647,840 648,840 649,839 650,839 651,839 652,838 653,838 654,838 655,838 656,837 657,837 658,837 659,836 660,836 661,836 662,835 663,835 664,835 665,835 666,834 667,834 668,833 669,833 670,833 671,832 672,832 673,832 674,831 675,831 676,831 677,830 678,830 679,829 680,829 681,829 682,828 683,828 684,827 685,827 686,827 687,826 688,826 689,825 690,825 691,825 692,824 693,824 694,823 695,823 696,822 697,822 698,821 699,821 700,820 701,820 702,819 703,819 704,818 705,818 706,817 707,817 708,816 709,816 710,815 711,815 712,814 713,814 714,813 715,813 716,812 717,811 718,811 719,810 720,810 721,809 722,809 723,808 724,807 725,807 726,806 727,805 728,805 729,804 730,804 731,803 732,802 733,802 734,801 735,800 736,800 737,799 738,798 739,798 740,797 741,796 742,795 743,795 744,794 745,793 746,793 747,792 748,791 749,790 750,790 751,789 752,788 753,787 754,787 755,786 756,785 757,784 758,783 759,783 760,782 761,781 762,780 763,779 764,778 765,778 766,777 767,776 768,775 769,774 770,773 771,772 772,771 773,770 774,770 775,769 776,768 777,767 778,766 779,765 780,764 781,763 782,762 783,761 784,760 785,759 786,758 787,757 788,756 789,755 790,754 791,753 792,752 793,751 794,750 795,749 796,748 797,747 798,746 799,744 800,743 801,742 802,741 803,740 804,739 805,738 806,737 807,736 808,734 809,733 810,732 811,731 812,730 813,728 814,727 815,726 816,725 817,724 818,722 819,721 820,720 821,719 822,717 823,716 824,715 825,713 826,712 827,711 828,710 829,708 830,707 831,706 832,704 833,703 834,702 835,700 836,699 837,698 838,696 839,695 840,693 841,692 842,691 843,689 844,688 845,686 846,685 847,684 848,682 849,681 850,679 851,678 852,676 853,675 854,673 855,672 856,670 857,669 858,668 859,666 860,665 861,663 862,662 863,660 864,659 865,657 866,655 867,654 868,652 869,651 870,649 871,648 872,646 873,645 874,643 875,642 876,640 877,638 878,637 879,635 880,634 881,632 882,631 883,629 884,627 885,626 886,624 887,623 888,621 889,619 890,618 891,616 892,614 893,613 894,611 895,610 896,608 897,606 898,605 899,603 900,601 901,600 902,598 903,596 904,595 905,593 906,592 907,590 908,588 909,587 910,585 911,583 912,582 913,580 914,578 915,576 916,575 917,573 918,571 919,570 920,568 921,566 922,565 923,563 924,561 925,560 926,558 927,556 928,555 929,553 930,551 931,549 932,548 933,546 934,544 935,543 936,541 937,539 938,538 939,536 940,534 941,533 942,531 943,529 944,527 945,526 946,524 947,522 948,521 949,519 950,517 951,516 952,514 953,512 954,510 955,509 956,507 957,505 958,504 959,502 960,500 961,499 962,497 963,495 964,494 965,492 966,490 967,489 968,487 969,485 970,484 971,482 972,480 973,479 974,477 975,475 976,474 977,472 978,470 979,469 980,467 981,465 982,464 983,462 984,461 985,459 986,457 987,456 988,454 989,453 990,451 991,450 992,448 993,446 994,445 995,443 996,442 997,440 998,439 999,437 1000,436 1001,434 1002,433 1003,431 1004,430 1005,428 1006,427 1007,425 1008,424 1009,422 1010,421 1011,419 1012,418 1013,417 1014,415 1015,414 1016,412 1017,411 1018,410 1019,408 1020,407 1021,406 1022,404 1023,403 1024,402 1025,400 1026,399 1027,398 1028,397 1029,395 1030,394 1031,393 1032,392 1033,390 1034,389 1035,388 1036,387 1037,386 1038,384 1039,383 1040,382 1041,381 1042,380 1043,379 1044,378 1045,377 1046,375 1047,374 1048,373 1049,372 1050,371 1051,370 1052,369 1053,368 1054,367 1055,366 1056,366 1057,365 1058,364 1059,363 1060,362 1061,361 1062,360 1063,359 1064,359 1065,358 1066,357 1067,356 1068,355 1069,355 1070,354 1071,353 1072,353 1073,352 1074,351 1075,351 1076,350 1077,349 1078,349 1079,348 1080,348 1081,347 1082,346 1083,346 1084,345 1085,345 1086,345 1087,344 1088,344 1089,343 1090,343 1091,342 1092,342 1093,342 1094,341 1095,341 1096,341 1097,340 1098,340 1099,340 1100,340 1101,340 1102,339 1103,339 1104,339 1105,339 1106,339 1107,339 1108,338 1109,338 1110,338 1111,338 1112,338 1113,338 1114,338 1115,338 1116,338 1117,338 1118,338 1119,338 1120,338 1121,339 1122,339 1123,339 1124,339 1125,339 1126,339 1127,339 1128,340 1129,340 1130,340 1131,340 1132,341 1133,341 1134,341 1135,341 1136,342 1137,342 1138,342 1139,343 1140,343 1141,344 1142,344 1143,344 1144,345 1145,345 1146,346 1147,346 1148,347 1149,347 1150,348 1151,348 1152,349 1153,349 1154,350 1155,351 1156,351 1157,352 1158,352 1159,353 1160,354 1161,354 1162,355 1163,356 1164,357 1165,357 1166,358 1167,359 1168,360 1169,360 1170,361 1171,362 1172,363 1173,364 1174,364 1175,365 1176,366 1177,367 1178,368 1179,369 1180,370 1181,371 1182,372 1183,373 1184,374 1185,375 1186,376 1187,377 1188,378 1189,379 1190,380 1191,381 1192,382 1193,383 1194,384 1195,385 1196,386 1197,387 1198,388 1199,390 1200,391 1201,392 1202,393 1203,394 1204,396 1205,397 1206,398 1207,399 1208,401 1209,402 1210,403 1211,404 1212,406 1213,407 1214,408 1215,410 1216,411 1217,412 1218,414 1219,415 1220,417 1221,418 1222,419 1223,421 1224,422 1225,424 1226,425 1227,427 1228,428 1229,429 1230,431 1231,432 1232,434 1233,436 1234,437 1235,439 1236,440 1237,442 1238,443 1239,445 1240,446 1241,448 1242,450 1243,451 1244,453 1245,454 1246,456 1247,458 1248,459 1249,461 1250,463 1251,464 1252,466 1253,468 1254,469 1255,471 1256,473 1257,474 1258,476 1259,478 1260,479 1261,481 1262,483 1263,485 1264,486 1265,488 1266,490 1267,492 1268,493 1269,495 1270,497 1271,499 1272,500 1273,502 1274,504 1275,506 1276,508 1277,509 1278,511 1279,513 1280,515 1281,517 1282,518 1283,520 1284,522 1285,524 1286,526 1287,527 1288,529 1289,531 1290,533 1291,535 1292,536 1293,538 1294,540 1295,542 1296,544 1297,546 1298,547 1299,549 1300,551 1301,553 1302,555 1303,557 1304,558 1305,560 1306,562 1307,564 1308,566 1309,568 1310,569 1311,571 1312,573 1313,575 1314,577 1315,579 1316,580 1317,582 1318,584 1319,586 1320,588 1321,589 1322,591 1323,593 1324,595 1325,597 1326,598 1327,600 1328,602 1329,604 1330,606 1331,607 1332,609 1333,611 1334,613 1335,614 1336,616 1337,618 1338,620 1339,621 1340,623 1341,625 1342,627 1343,628 1344,630 1345,632 1346,634 1347,635 1348,637 1349,639 1350,640 1351,642 1352,644 1353,645 1354,647 1355,649 1356,650 1357,652 1358,654 1359,655 1360,657 1361,658 1362,660 1363,662 1364,663 1365,665 1366,666 1367,668 1368,670 1369,671 1370,673 1371,674 1372,676 1373,677 1374,679 1375,680 1376,682 1377,683 1378,685 1379,686 1380,688 1381,689 1382,691 1383,692 1384,694 1385,695 1386,697 1387,698 1388,700 1389,701 1390,703 1391,704 1392,705 1393,707 1394,708 1395,710 1396,711 1397,712 1398,714 1399,715 1400,716 1401,718 1402,719 1403,720 1404,722 1405,723 1406,724 1407,726 1408,727 1409,728 1410,730 1411,731 1412,732 1413,733 1414,735 1415,736 1416,737 1417,738 1418,740 1419,741 1420,742 1421,743 1422,745 1423,746 1424,747 1425,748 1426,749 1427,750 1428,752 1429,753 1430,754 1431,755 1432,756 1433,757 1434,758 1435,760 1436,761 1437,762 1438,763 1439,764 1440,765 1441,766 1442,767 1443,768 1444,769 1445,770 1446,771 1447,772 1448,773 1449,774 1450,775 1451,776 1452,777 1453,778 1454,779 1455,780 1456,781 1457,782 1458,783 1459,784 1460,785 1461,786 1462,787 1463,788 1464,788 1465,789 1466,790 1467,791 1468,792 1469,793 1470,794 1471,794 1472,795 1473,796 1474,797 1475,798 1476,798 1477,799 1478,800 1479,801 1480,802 1481,802 1482,803 1483,804 1484,805 1485,805 1486,806 1487,807 1488,807 1489,808 1490,809 1491,809 1492,810 1493,811 1494,811 1495,812 1496,813 1497,813 1498,814 1499,815 1500,815 1501,816 1502,816 1503,817 1504,818 1505,818 1506,819 1507,819 1508,820 1509,820 1510,821 1511,821 1512,822 1513,822 1514,823 1515,823 1516,824 1517,824 1518,825 1519,825 1520,826 1521,826 1522,827 1523,827 1524,828 1525,828 1526,829 1527,829 1528,829 1529,830 1530,830 1531,831 1532,831 1533,832 1534,832 1535,832 1536,833 1537,833 1538,833 1539,834 1540,834 1541,835 1542,835 1543,835 1544,836 1545,836 1546,836 1547,837 1548,837 1549,837 1550,838 1551,838 1552,838 1553,839 1554,839 1555,839 1556,839 1557,840 1558,840 1559,840 1560,841 1561,841 1562,841 1563,841 1564,842 1565,842 1566,842 1567,842 1568,843 1569,843 1570,843 1571,843 1572,844 1573,844 1574,844 1575,844 1576,845 1577,845 1578,845 1579,845 1580,845 1581,846 1582,846 1583,846 1584,846 1585,847 1586,847 1587,847 1588,847 1589,847 1590,848 1591,848 1592,848 1593,848 1594,848 1595,848 1596,849 1597,849 1598,849 1599,849 1600,849 1601,850 1602,850 1603,850 1604,850 1605,850 1606,850 1607,851 1608,851 1609,851 1610,851 1611,851 1612,851 1613,852 1614,852 1615,852 1616,852 1617,852 1618,852 1619,853 1620,853 1621,853 " />
    <circle stroke="#000000" stroke-width="1" stroke-linecap="round" stroke-linejoin="round" fill="#ff0000" cx="135" cy="857" r="5" />
    <circle stroke="#000000" stroke-width="1" stroke-linecap="round" stroke-linejoin="round" fill="#ff0000" cx="270" cy="857" r="5" />
    <circle stroke="#000000" stroke-width="1" stroke-linecap="round" stroke-linejoin="round" fill="#ff0000" cx="405" cy="857" r="5" />
    <circle stroke="#000000" stroke-width="1" stroke-linecap="round" stroke-linejoin="round" fill="#ff0000" cx="540" cy="854" r="5" />
    <circle stroke="#000000" stroke-width="1" stroke-linecap="round" stroke-linejoin="round" fill="#ff0000" cx="675" cy="831" r="5" />
    <circle stroke="#000000" stroke-width="1" stroke-linecap="round" stroke-linejoin="round" fill="#ff0000" cx="810" cy="732" r="5" />
    <circle stroke="#000000" stroke-width="1" stroke-linecap="round" stroke-linejoin="round" fill="#ff0000" cx="946" cy="524" r="5" />
    <circle stroke="#000000" stroke-width="1" stroke-linecap="round" stroke-linejoin="round" fill="#ff0000" cx="1081" cy="347" r="5" />
    <circle stroke="#000000" stroke-width="1" stroke-linecap="round" stroke-linejoin="round" fill="#ff0000" cx="1216" cy="411" r="5" />
    <circle stroke="#000000" stroke-width="1" stroke-linecap="round" stroke-linejoin="round" fill="#ff0000" cx="1351" cy="642" r="5" />
    <circle stroke="#000000" stroke-width="1" stroke-linecap="round" stroke-linejoin="round" fill="#ff0000" cx="1486" cy="806" r="5" />
    <circle stroke="#000000" stroke-width="1" stroke-linecap="round" stroke-linejoin="round" fill="#ff0000" cx="1621" cy="853" r="5" />
  </g>
</svg>
