<?xml version="1.0" encoding="UTF-8"?>
<!DOCTYPE svg PUBLIC "-//W3C//DTD SVG 1.1//EN" "http://www.w3.org/Graphics/SVG/1.1/DTD/svg11.dtd">
<svg width="1756px" height="943px" viewBox="0 0 1756 943" version="1.1" xmlns="http://www.w3.org/2000/svg" xmlns:xlink="http://www.w3.org/1999/xlink">
  <g>
    <polyline stroke="#0000ff" stroke-width="1" stroke-linecap="round" stroke-linejoin="round" fill="none" points="1711,20 1751,20 " />
    <circle stroke="#000000" stroke-width="1" stroke-linecap="round" stroke-linejoin="round" fill="#ff0000" cx="1731" cy="20" r="5" />
    <text x="1711" y="16" font-family="Times New Roman" font-size="11" fill="#000000">Ряд 1</text>
    <rect stroke="#000000" stroke-width="1" stroke-linecap="round" stroke-linejoin="round" fill="none" x="1706.5" y="0.5" width="49" height="29" />
  </g>
  <clipPath id="clippath1">
    <path d="M-1,-1 H1756 V942H-1 z M1705,-1 H1757 V31 H1705 z" clip-rule="evenodd" />
  </clipPath>
  <g clip-path="url(#clippath1)">
    <text x="18" y="874" font-family="Times New Roman" font-size="13" fill="#000000">-4</text>
    <text x="63" y="874" font-family="Times New Roman" font-size="13" fill="#000000">-2</text>
    <text x="155" y="874" font-family="Times New Roman" font-size="13" fill="#000000">2</text>
    <text x="200" y="874" font-family="Times New Roman" font-size="13" fill="#000000">4</text>
    <text x="245" y="874" font-family="Times New Roman" font-size="13" fill="#000000">6</text>
    <text x="290" y="874" font-family="Times New Roman" font-size="13" fill="#000000">8</text>
    <text x="332" y="874" font-family="Times New Roman" font-size="13" fill="#000000">10</text>
    <text x="377" y="874" font-family="Times New Roman" font-size="13" fill="#000000">12</text>
    <text x="422" y="874" font-family="Times New Roman" font-size="13" fill="#000000">14</text>
    <text x="467" y="874" font-family="Times New Roman" font-size="13" fill="#000000">16</text>
    <text x="512" y="874" font-family="Times New Roman" font-size="13" fill="#000000">18</text>
    <text x="557" y="874" font-family="Times New Roman" font-size="13" fill="#000000">20</text>
    <text x="602" y="874" font-family="Times New Roman" font-size="13" fill="#000000">22</text>
    <text x="647" y="874" font-family="Times New Roman" font-size="13" fill="#000000">24</text>
    <text x="692" y="874" font-family="Times New Roman" font-size="13" fill="#000000">26</text>
    <text x="737" y="874" font-family="Times New Roman" font-size="13" fill="#000000">28</text>
    <text x="782" y="874" font-family="Times New Roman" font-size="13" fill="#000000">30</text>
    <text x="827" y="874" font-family="Times New Roman" font-size="13" fill="#000000">32</text>
    <text x="872" y="874" font-family="Times New Roman" font-size="13" fill="#000000">34</text>
    <text x="917" y="874" font-family="Times New Roman" font-size="13" fill="#000000">36</text>
    <text x="962" y="874" font-family="Times New Roman" font-size="13" fill="#000000">38</text>
    <text x="1007" y="874" font-family="Times New Roman" font-size="13" fill="#000000">40</text>
    <text x="1052" y="874" font-family="Times New Roman" font-size="13" fill="#000000">42</text>
    <text x="1097" y="874" font-family="Times New Roman" font-size="13" fill="#000000">44</text>
    <text x="1142" y="874" font-family="Times New Roman" font-size="13" fill="#000000">46</text>
    <text x="1187" y="874" font-family="Times New Roman" font-size="13" fill="#000000">48</text>
    <text x="1232" y="874" font-family="Times New Roman" font-size="13" fill="#000000">50</text>
    <text x="1277" y="874" font-family="Times New Roman" font-size="13" fill="#000000">52</text>
    <text x="1322" y="874" font-family="Times New Roman" font-size="13" fill="#000000">54</text>
    <text x="1367" y="874" font-family="Times New Roman" font-size="13" fill="#000000">56</text>
    <text x="1412" y="874" font-family="Times New Roman" font-size="13" fill="#000000">58</text>
    <text x="1457" y="874" font-family="Times New Roman" font-size="13" fill="#000000">60</text>
    <text x="1502" y="874" font-family="Times New Roman" font-size="13" fill="#000000">62</text>
    <text x="1547" y="874" font-family="Times New Roman" font-size="13" fill="#000000">64</text>
    <text x="1592" y="874" font-family="Times New Roman" font-size="13" fill="#000000">66</text>
    <text x="1637" y="874" font-family="Times New Roman" font-size="13" fill="#000000">68</text>
    <text x="1682" y="874" font-family="Times New Roman" font-size="13" fill="#000000">70</text>
    <text x="1727" y="874" font-family="Times New Roman" font-size="13" fill="#000000">72</text>
    <text x="87" y="906" font-family="Times New Roman" font-size="13" fill="#000000">-0.1</text>
    <text x="91" y="820" font-family="Times New Roman" font-size="13" fill="#000000">0.1</text>
    <text x="91" y="778" font-family="Times New Roman" font-size="13" fill="#000000">0.2</text>
    <text x="91" y="735" font-family="Times New Roman" font-size="13" fill="#000000">0.3</text>
    <text x="91" y="692" font-family="Times New Roman" font-size="13" fill="#000000">0.4</text>
    <text x="91" y="649" font-family="Times New Roman" font-size="13" fill="#000000">0.5</text>
    <text x="91" y="606" font-family="Times New Roman" font-size="13" fill="#000000">0.6</text>
    <text x="91" y="563" font-family="Times New Roman" font-size="13" fill="#000000">0.7</text>
    <text x="91" y="520" font-family="Times New Roman" font-size="13" fill="#000000">0.8</text>
    <text x="91" y="478" font-family="Times New Roman" font-size="13" fill="#000000">0.9</text>
    <text x="100" y="435" font-family="Times New Roman" font-size="13" fill="#000000">1</text>
    <text x="91" y="392" font-family="Times New Roman" font-size="13" fill="#000000">1.1</text>
    <text x="91" y="349" font-family="Times New Roman" font-size="13" fill="#000000">1.2</text>
    <text x="91" y="306" font-family="Times New Roman" font-size="13" fill="#000000">1.3</text>
    <text x="91" y="263" font-family="Times New Roman" font-size="13" fill="#000000">1.4</text>
    <text x="91" y="220" font-family="Times New Roman" font-size="13" fill="#000000">1.5</text>
    <text x="91" y="177" font-family="Times New Roman" font-size="13" fill="#000000">1.6</text>
    <text x="91" y="135" font-family="Times New Roman" font-size="13" fill="#000000">1.7</text>
    <text x="91" y="92" font-family="Times New Roman" font-size="13" fill="#000000">1.8</text>
    <text x="91" y="49" font-family="Times New Roman" font-size="13" fill="#000000">1.9</text>
    <text x="1745" y="847" font-family="Times New Roman" font-size="16" font-weight="700" fill="#000000">n</text>
    <text x="125" y="13" font-family="Times New Roman" font-size="16" font-weight="700" fill="#000000">P</text>
    <line stroke="#0000ff" stroke-width="2" stroke-linecap="butt" stroke-linejoin="bevel" x1="0" y1="857" x2="1751" y2="857" />
    <polygon stroke="#0000ff" stroke-width="1" stroke-linecap="round" stroke-linejoin="round" fill="#0000ff" points="1750.5,851.5 1755.5,856.5 1755.5,857.5 1750.5,862.5 " />
    <line stroke="#0000ff" stroke-width="1" stroke-linecap="round" stroke-linejoin="round" x1="23.5" y1="862.5" x2="23.5" y2="851.5" />
    <line stroke="#0000ff" stroke-width="1" stroke-linecap="round" stroke-linejoin="round" x1="68.5" y1="862.5" x2="68.5" y2="851.5" />
    <line stroke="#0000ff" stroke-width="1" stroke-linecap="round" stroke-linejoin="round" x1="158.5" y1="862.5" x2="158.5" y2="851.5" />
    <line stroke="#0000ff" stroke-width="1" stroke-linecap="round" stroke-linejoin="round" x1="203.5" y1="862.5" x2="203.5" y2="851.5" />
    <line stroke="#0000ff" stroke-width="1" stroke-linecap="round" stroke-linejoin="round" x1="248.5" y1="862.5" x2="248.5" y2="851.5" />
    <line stroke="#0000ff" stroke-width="1" stroke-linecap="round" stroke-linejoin="round" x1="293.5" y1="862.5" x2="293.5" y2="851.5" />
    <line stroke="#0000ff" stroke-width="1" stroke-linecap="round" stroke-linejoin="round" x1="338.5" y1="862.5" x2="338.5" y2="851.5" />
    <line stroke="#0000ff" stroke-width="1" stroke-linecap="round" stroke-linejoin="round" x1="383.5" y1="862.5" x2="383.5" y2="851.5" />
    <line stroke="#0000ff" stroke-width="1" stroke-linecap="round" stroke-linejoin="round" x1="428.5" y1="862.5" x2="428.5" y2="851.5" />
    <line stroke="#0000ff" stroke-width="1" stroke-linecap="round" stroke-linejoin="round" x1="473.5" y1="862.5" x2="473.5" y2="851.5" />
    <line stroke="#0000ff" stroke-width="1" stroke-linecap="round" stroke-linejoin="round" x1="518.5" y1="862.5" x2="518.5" y2="851.5" />
    <line stroke="#0000ff" stroke-width="1" stroke-linecap="round" stroke-linejoin="round" x1="563.5" y1="862.5" x2="563.5" y2="851.5" />
    <line stroke="#0000ff" stroke-width="1" stroke-linecap="round" stroke-linejoin="round" x1="608.5" y1="862.5" x2="608.5" y2="851.5" />
    <line stroke="#0000ff" stroke-width="1" stroke-linecap="round" stroke-linejoin="round" x1="653.5" y1="862.5" x2="653.5" y2="851.5" />
    <line stroke="#0000ff" stroke-width="1" stroke-linecap="round" stroke-linejoin="round" x1="698.5" y1="862.5" x2="698.5" y2="851.5" />
    <line stroke="#0000ff" stroke-width="1" stroke-linecap="round" stroke-linejoin="round" x1="743.5" y1="862.5" x2="743.5" y2="851.5" />
    <line stroke="#0000ff" stroke-width="1" stroke-linecap="round" stroke-linejoin="round" x1="788.5" y1="862.5" x2="788.5" y2="851.5" />
    <line stroke="#0000ff" stroke-width="1" stroke-linecap="round" stroke-linejoin="round" x1="833.5" y1="862.5" x2="833.5" y2="851.5" />
    <line stroke="#0000ff" stroke-width="1" stroke-linecap="round" stroke-linejoin="round" x1="878.5" y1="862.5" x2="878.5" y2="851.5" />
    <line stroke="#0000ff" stroke-width="1" stroke-linecap="round" stroke-linejoin="round" x1="923.5" y1="862.5" x2="923.5" y2="851.5" />
    <line stroke="#0000ff" stroke-width="1" stroke-linecap="round" stroke-linejoin="round" x1="968.5" y1="862.5" x2="968.5" y2="851.5" />
    <line stroke="#0000ff" stroke-width="1" stroke-linecap="round" stroke-linejoin="round" x1="1013.5" y1="862.5" x2="1013.5" y2="851.5" />
    <line stroke="#0000ff" stroke-width="1" stroke-linecap="round" stroke-linejoin="round" x1="1058.5" y1="862.5" x2="1058.5" y2="851.5" />
    <line stroke="#0000ff" stroke-width="1" stroke-linecap="round" stroke-linejoin="round" x1="1103.5" y1="862.5" x2="1103.5" y2="851.5" />
    <line stroke="#0000ff" stroke-width="1" stroke-linecap="round" stroke-linejoin="round" x1="1148.5" y1="862.5" x2="1148.5" y2="851.5" />
    <line stroke="#0000ff" stroke-width="1" stroke-linecap="round" stroke-linejoin="round" x1="1193.5" y1="862.5" x2="1193.5" y2="851.5" />
    <line stroke="#0000ff" stroke-width="1" stroke-linecap="round" stroke-linejoin="round" x1="1238.5" y1="862.5" x2="1238.5" y2="851.5" />
    <line stroke="#0000ff" stroke-width="1" stroke-linecap="round" stroke-linejoin="round" x1="1283.5" y1="862.5" x2="1283.5" y2="851.5" />
    <line stroke="#0000ff" stroke-width="1" stroke-linecap="round" stroke-linejoin="round" x1="1328.5" y1="862.5" x2="1328.5" y2="851.5" />
    <line stroke="#0000ff" stroke-width="1" stroke-linecap="round" stroke-linejoin="round" x1="1373.5" y1="862.5" x2="1373.5" y2="851.5" />
    <line stroke="#0000ff" stroke-width="1" stroke-linecap="round" stroke-linejoin="round" x1="1418.5" y1="862.5" x2="1418.5" y2="851.5" />
    <line stroke="#0000ff" stroke-width="1" stroke-linecap="round" stroke-linejoin="round" x1="1463.5" y1="862.5" x2="1463.5" y2="851.5" />
    <line stroke="#0000ff" stroke-width="1" stroke-linecap="round" stroke-linejoin="round" x1="1508.5" y1="862.5" x2="1508.5" y2="851.5" />
    <line stroke="#0000ff" stroke-width="1" stroke-linecap="round" stroke-linejoin="round" x1="1553.5" y1="862.5" x2="1553.5" y2="851.5" />
    <line stroke="#0000ff" stroke-width="1" stroke-linecap="round" stroke-linejoin="round" x1="1598.5" y1="862.5" x2="1598.5" y2="851.5" />
    <line stroke="#0000ff" stroke-width="1" stroke-linecap="round" stroke-linejoin="round" x1="1643.5" y1="862.5" x2="1643.5" y2="851.5" />
    <line stroke="#0000ff" stroke-width="1" stroke-linecap="round" stroke-linejoin="round" x1="1688.5" y1="862.5" x2="1688.5" y2="851.5" />
    <line stroke="#0000ff" stroke-width="1" stroke-linecap="round" stroke-linejoin="round" x1="1733.5" y1="862.5" x2="1733.5" y2="851.5" />
    <line stroke="#0000ff" stroke-width="2" stroke-linecap="butt" stroke-linejoin="bevel" x1="113" y1="3" x2="113" y2="942" />
    <polygon stroke="#0000ff" stroke-width="1" stroke-linecap="round" stroke-linejoin="round" fill="#0000ff" points="107.5,5.5 112.5,0.5 113.5,0.5 118.5,5.5 " />
    <line stroke="#0000ff" stroke-width="1" stroke-linecap="round" stroke-linejoin="round" x1="107.5" y1="900.5" x2="118.5" y2="900.5" />
    <line stroke="#0000ff" stroke-width="1" stroke-linecap="round" stroke-linejoin="round" x1="107.5" y1="814.5" x2="118.5" y2="814.5" />
    <line stroke="#0000ff" stroke-width="1" stroke-linecap="round" stroke-linejoin="round" x1="107.5" y1="772.5" x2="118.5" y2="772.5" />
    <line stroke="#0000ff" stroke-width="1" stroke-linecap="round" stroke-linejoin="round" x1="107.5" y1="729.5" x2="118.5" y2="729.5" />
    <line stroke="#0000ff" stroke-width="1" stroke-linecap="round" stroke-linejoin="round" x1="107.5" y1="686.5" x2="118.5" y2="686.5" />
    <line stroke="#0000ff" stroke-width="1" stroke-linecap="round" stroke-linejoin="round" x1="107.5" y1="643.5" x2="118.5" y2="643.5" />
    <line stroke="#0000ff" stroke-width="1" stroke-linecap="round" stroke-linejoin="round" x1="107.5" y1="600.5" x2="118.5" y2="600.5" />
    <line stroke="#0000ff" stroke-width="1" stroke-linecap="round" stroke-linejoin="round" x1="107.5" y1="557.5" x2="118.5" y2="557.5" />
    <line stroke="#0000ff" stroke-width="1" stroke-linecap="round" stroke-linejoin="round" x1="107.5" y1="514.5" x2="118.5" y2="514.5" />
    <line stroke="#0000ff" stroke-width="1" stroke-linecap="round" stroke-linejoin="round" x1="107.5" y1="471.5" x2="118.5" y2="471.5" />
    <line stroke="#0000ff" stroke-width="1" stroke-linecap="round" stroke-linejoin="round" x1="107.5" y1="429.5" x2="118.5" y2="429.5" />
    <line stroke="#0000ff" stroke-width="1" stroke-linecap="round" stroke-linejoin="round" x1="107.5" y1="386.5" x2="118.5" y2="386.5" />
    <line stroke="#0000ff" stroke-width="1" stroke-linecap="round" stroke-linejoin="round" x1="107.5" y1="343.5" x2="118.5" y2="343.5" />
    <line stroke="#0000ff" stroke-width="1" stroke-linecap="round" stroke-linejoin="round" x1="107.5" y1="300.5" x2="118.5" y2="300.5" />
    <line stroke="#0000ff" stroke-width="1" stroke-linecap="round" stroke-linejoin="round" x1="107.5" y1="257.5" x2="118.5" y2="257.5" />
    <line stroke="#0000ff" stroke-width="1" stroke-linecap="round" stroke-linejoin="round" x1="107.5" y1="214.5" x2="118.5" y2="214.5" />
    <line stroke="#0000ff" stroke-width="1" stroke-linecap="round" stroke-linejoin="round" x1="107.5" y1="171.5" x2="118.5" y2="171.5" />
    <line stroke="#0000ff" stroke-width="1" stroke-linecap="round" stroke-linejoin="round" x1="107.5" y1="129.5" x2="118.5" y2="129.5" />
    <line stroke="#0000ff" stroke-width="1" stroke-linecap="round" stroke-linejoin="round" x1="107.5" y1="86.5" x2="118.5" y2="86.5" />
    <line stroke="#0000ff" stroke-width="1" stroke-linecap="round" stroke-linejoin="round" x1="107.5" y1="43.5" x2="118.5" y2="43.5" />
  </g>
  <clipPath id="clippath2">
    <path d="M-1,-1 H1756 V942H-1 z M1705,-1 H1757 V31 H1705 z" clip-rule="evenodd" />
  </clipPath>
  <g clip-path="url(#clippath2)">
    <polyline stroke="#0000ff" stroke-width="1" stroke-linecap="round" stroke-linejoin="round" fill="none" points="1373,557 1374,556 1375,556 1376,555 1377,555 1378,554 1379,554 1380,553 1381,553 1382,552 1383,552 1384,551 1385,551 1386,550 1387,550 1388,549 1389,549 1390,548 1391,548 1392,547 1393,547 1394,546 1395,546 1396,545 1397,545 1398,544 1399,544 1400,543 1401,543 1402,542 1403,542 1404,541 1405,541 1406,540 1407,540 1408,539 1409,539 1410,538 1411,538 1412,537 1413,537 1414,536 1415,536 1416,535 1417,535 1418,535 1419,534 1420,534 1421,533 1422,533 1423,532 1424,532 1425,531 1426,531 1427,530 1428,530 1429,529 1430,529 1431,528 1432,528 1433,527 1434,527 1435,526 1436,526 1437,525 1438,525 1439,525 1440,524 1441,524 1442,523 1443,523 1444,522 1445,522 1446,521 1447,521 1448,520 1449,520 1450,520 1451,519 1452,519 1453,518 1454,518 1455,517 1456,517 1457,517 1458,516 1459,516 1460,515 1461,515 1462,514 1463,514 1464,514 1465,513 1466,513 1467,512 1468,512 1469,512 1470,511 1471,511 1472,510 1473,510 1474,510 1475,509 1476,509 1477,508 1478,508 1479,508 1480,507 1481,507 1482,506 1483,506 1484,506 1485,505 1486,505 1487,504 1488,504 1489,504 1490,503 1491,503 1492,503 1493,502 1494,502 1495,502 1496,501 1497,501 1498,500 1499,500 1500,500 1501,499 1502,499 1503,499 1504,498 1505,498 1506,498 1507,497 1508,497 1509,497 1510,496 1511,496 1512,496 1513,495 1514,495 1515,495 1516,494 1517,494 1518,494 1519,493 1520,493 1521,493 1522,492 1523,492 1524,492 1525,491 1526,491 1527,491 1528,490 1529,490 1530,490 1531,489 1532,489 1533,489 1534,489 1535,488 1536,488 1537,488 1538,487 1539,487 1540,487 1541,486 1542,486 1543,486 1544,486 1545,485 1546,485 1547,485 1548,484 1549,484 1550,484 1551,484 1552,483 1553,483 1554,483 1555,482 1556,482 1557,482 1558,482 1559,481 1560,481 1561,481 1562,480 1563,480 1564,480 1565,480 1566,479 1567,479 1568,479 1569,479 1570,478 1571,478 1572,478 1573,477 1574,477 1575,477 1576,477 1577,476 1578,476 1579,476 1580,476 1581,475 1582,475 1583,475 1584,475 1585,474 1586,474 1587,474 1588,474 1589,473 1590,473 1591,473 1592,473 1593,472 1594,472 1595,472 1596,472 1597,471 1598,471 1599,471 1600,471 1601,470 1602,470 1603,470 1604,470 1605,469 1606,469 1607,469 1608,469 1609,468 1610,468 1611,468 1612,468 1613,467 1614,467 1615,467 1616,467 1617,466 1618,466 1619,466 1620,466 1621,465 1622,465 1623,465 1624,465 1625,464 1626,464 1627,464 1628,464 1629,463 1630,463 1631,463 1632,463 1633,463 1634,462 1635,462 1636,462 1637,462 1638,461 1639,461 1640,461 1641,461 1642,460 1643,460 1644,460 1645,460 1646,460 1647,459 1648,459 1649,459 1650,459 1651,458 1652,458 1653,458 1654,458 1655,457 1656,457 1657,457 1658,457 1659,457 1660,456 1661,456 1662,456 1663,456 1664,455 1665,455 1666,455 1667,455 1668,455 1669,454 1670,454 1671,454 1672,454 1673,453 1674,453 1675,453 1676,453 1677,452 1678,452 1679,452 1680,452 1681,452 1682,451 1683,451 1684,451 1685,451 1686,450 1687,450 1688,450 " />
    <circle stroke="#000000" stroke-width="1" stroke-linecap="round" stroke-linejoin="round" fill="#ff0000" cx="1373" cy="557" r="5" />
    <circle stroke="#000000" stroke-width="1" stroke-linecap="round" stroke-linejoin="round" fill="#ff0000" cx="1463" cy="514" r="5" />
    <circle stroke="#000000" stroke-width="1" stroke-linecap="round" stroke-linejoin="round" fill="#ff0000" cx="1598" cy="471" r="5" />
    <circle stroke="#000000" stroke-width="1" stroke-linecap="round" stroke-linejoin="round" fill="#ff0000" cx="1688" cy="450" r="5" />
  </g>
</svg>
