<?xml version="1.0" encoding="UTF-8"?>
<!DOCTYPE svg PUBLIC "-//W3C//DTD SVG 1.1//EN" "http://www.w3.org/Graphics/SVG/1.1/DTD/svg11.dtd">
<svg width="1756px" height="943px" viewBox="0 0 1756 943" version="1.1" xmlns="http://www.w3.org/2000/svg" xmlns:xlink="http://www.w3.org/1999/xlink">
  <g>
    <polyline stroke="#0000ff" stroke-width="1" stroke-linecap="round" stroke-linejoin="round" fill="none" points="1711,20 1751,20 " />
    <circle stroke="#000000" stroke-width="1" stroke-linecap="round" stroke-linejoin="round" fill="#ff0000" cx="1731" cy="20" r="5" />
    <text x="1711" y="16" font-family="Times New Roman" font-size="11" fill="#000000">Ряд 1</text>
    <rect stroke="#000000" stroke-width="1" stroke-linecap="round" stroke-linejoin="round" fill="none" x="1706.5" y="0.5" width="49" height="29" />
  </g>
  <clipPath id="clippath1">
    <path d="M-1,-1 H1756 V942H-1 z M1705,-1 H1757 V31 H1705 z" clip-rule="evenodd" />
  </clipPath>
  <g clip-path="url(#clippath1)">
    <text x="125" y="897" font-family="Times New Roman" font-size="13" fill="#000000">50</text>
    <text x="224" y="897" font-family="Times New Roman" font-size="13" fill="#000000">100</text>
    <text x="325" y="897" font-family="Times New Roman" font-size="13" fill="#000000">150</text>
    <text x="426" y="897" font-family="Times New Roman" font-size="13" fill="#000000">200</text>
    <text x="527" y="897" font-family="Times New Roman" font-size="13" fill="#000000">250</text>
    <text x="628" y="897" font-family="Times New Roman" font-size="13" fill="#000000">300</text>
    <text x="729" y="897" font-family="Times New Roman" font-size="13" fill="#000000">350</text>
    <text x="831" y="897" font-family="Times New Roman" font-size="13" fill="#000000">400</text>
    <text x="932" y="897" font-family="Times New Roman" font-size="13" fill="#000000">450</text>
    <text x="1033" y="897" font-family="Times New Roman" font-size="13" fill="#000000">500</text>
    <text x="1134" y="897" font-family="Times New Roman" font-size="13" fill="#000000">550</text>
    <text x="1235" y="897" font-family="Times New Roman" font-size="13" fill="#000000">600</text>
    <text x="1336" y="897" font-family="Times New Roman" font-size="13" fill="#000000">650</text>
    <text x="1437" y="897" font-family="Times New Roman" font-size="13" fill="#000000">700</text>
    <text x="1539" y="897" font-family="Times New Roman" font-size="13" fill="#000000">750</text>
    <text x="1640" y="897" font-family="Times New Roman" font-size="13" fill="#000000">800</text>
    <text x="2" y="823" font-family="Times New Roman" font-size="13" fill="#000000">0.01</text>
    <text x="2" y="760" font-family="Times New Roman" font-size="13" fill="#000000">0.02</text>
    <text x="2" y="698" font-family="Times New Roman" font-size="13" fill="#000000">0.03</text>
    <text x="2" y="635" font-family="Times New Roman" font-size="13" fill="#000000">0.04</text>
    <text x="2" y="572" font-family="Times New Roman" font-size="13" fill="#000000">0.05</text>
    <text x="2" y="509" font-family="Times New Roman" font-size="13" fill="#000000">0.06</text>
    <text x="2" y="446" font-family="Times New Roman" font-size="13" fill="#000000">0.07</text>
    <text x="2" y="383" font-family="Times New Roman" font-size="13" fill="#000000">0.08</text>
    <text x="2" y="320" font-family="Times New Roman" font-size="13" fill="#000000">0.09</text>
    <text x="8" y="257" font-family="Times New Roman" font-size="13" fill="#000000">0.1</text>
    <text x="2" y="195" font-family="Times New Roman" font-size="13" fill="#000000">0.11</text>
    <text x="2" y="132" font-family="Times New Roman" font-size="13" fill="#000000">0.12</text>
    <text x="2" y="69" font-family="Times New Roman" font-size="13" fill="#000000">0.13</text>
    <text x="1744" y="870" font-family="Times New Roman" font-size="16" font-weight="700" fill="#000000">k</text>
    <text x="42" y="13" font-family="Times New Roman" font-size="16" font-weight="700" fill="#000000">P(k)</text>
    <line stroke="#0000ff" stroke-width="2" stroke-linecap="butt" stroke-linejoin="bevel" x1="0" y1="880" x2="1751" y2="880" />
    <polygon stroke="#0000ff" stroke-width="1" stroke-linecap="round" stroke-linejoin="round" fill="#0000ff" points="1750.5,874.5 1755.5,879.5 1755.5,880.5 1750.5,885.5 " />
    <line stroke="#0000ff" stroke-width="1" stroke-linecap="round" stroke-linejoin="round" x1="131.5" y1="885.5" x2="131.5" y2="874.5" />
    <line stroke="#0000ff" stroke-width="1" stroke-linecap="round" stroke-linejoin="round" x1="233.5" y1="885.5" x2="233.5" y2="874.5" />
    <line stroke="#0000ff" stroke-width="1" stroke-linecap="round" stroke-linejoin="round" x1="334.5" y1="885.5" x2="334.5" y2="874.5" />
    <line stroke="#0000ff" stroke-width="1" stroke-linecap="round" stroke-linejoin="round" x1="435.5" y1="885.5" x2="435.5" y2="874.5" />
    <line stroke="#0000ff" stroke-width="1" stroke-linecap="round" stroke-linejoin="round" x1="536.5" y1="885.5" x2="536.5" y2="874.5" />
    <line stroke="#0000ff" stroke-width="1" stroke-linecap="round" stroke-linejoin="round" x1="637.5" y1="885.5" x2="637.5" y2="874.5" />
    <line stroke="#0000ff" stroke-width="1" stroke-linecap="round" stroke-linejoin="round" x1="738.5" y1="885.5" x2="738.5" y2="874.5" />
    <line stroke="#0000ff" stroke-width="1" stroke-linecap="round" stroke-linejoin="round" x1="840.5" y1="885.5" x2="840.5" y2="874.5" />
    <line stroke="#0000ff" stroke-width="1" stroke-linecap="round" stroke-linejoin="round" x1="941.5" y1="885.5" x2="941.5" y2="874.5" />
    <line stroke="#0000ff" stroke-width="1" stroke-linecap="round" stroke-linejoin="round" x1="1042.5" y1="885.5" x2="1042.5" y2="874.5" />
    <line stroke="#0000ff" stroke-width="1" stroke-linecap="round" stroke-linejoin="round" x1="1143.5" y1="885.5" x2="1143.5" y2="874.5" />
    <line stroke="#0000ff" stroke-width="1" stroke-linecap="round" stroke-linejoin="round" x1="1244.5" y1="885.5" x2="1244.5" y2="874.5" />
    <line stroke="#0000ff" stroke-width="1" stroke-linecap="round" stroke-linejoin="round" x1="1345.5" y1="885.5" x2="1345.5" y2="874.5" />
    <line stroke="#0000ff" stroke-width="1" stroke-linecap="round" stroke-linejoin="round" x1="1446.5" y1="885.5" x2="1446.5" y2="874.5" />
    <line stroke="#0000ff" stroke-width="1" stroke-linecap="round" stroke-linejoin="round" x1="1548.5" y1="885.5" x2="1548.5" y2="874.5" />
    <line stroke="#0000ff" stroke-width="1" stroke-linecap="round" stroke-linejoin="round" x1="1649.5" y1="885.5" x2="1649.5" y2="874.5" />
    <line stroke="#0000ff" stroke-width="1" stroke-linecap="round" stroke-linejoin="round" x1="1750.5" y1="885.5" x2="1750.5" y2="874.5" />
    <line stroke="#0000ff" stroke-width="2" stroke-linecap="butt" stroke-linejoin="bevel" x1="30" y1="3" x2="30" y2="942" />
    <polygon stroke="#0000ff" stroke-width="1" stroke-linecap="round" stroke-linejoin="round" fill="#0000ff" points="24.5,5.5 29.5,0.5 30.5,0.5 35.5,5.5 " />
    <line stroke="#0000ff" stroke-width="1" stroke-linecap="round" stroke-linejoin="round" x1="24.5" y1="817.5" x2="35.5" y2="817.5" />
    <line stroke="#0000ff" stroke-width="1" stroke-linecap="round" stroke-linejoin="round" x1="24.5" y1="754.5" x2="35.5" y2="754.5" />
    <line stroke="#0000ff" stroke-width="1" stroke-linecap="round" stroke-linejoin="round" x1="24.5" y1="692.5" x2="35.5" y2="692.5" />
    <line stroke="#0000ff" stroke-width="1" stroke-linecap="round" stroke-linejoin="round" x1="24.5" y1="629.5" x2="35.5" y2="629.5" />
    <line stroke="#0000ff" stroke-width="1" stroke-linecap="round" stroke-linejoin="round" x1="24.5" y1="566.5" x2="35.5" y2="566.5" />
    <line stroke="#0000ff" stroke-width="1" stroke-linecap="round" stroke-linejoin="round" x1="24.5" y1="503.5" x2="35.5" y2="503.5" />
    <line stroke="#0000ff" stroke-width="1" stroke-linecap="round" stroke-linejoin="round" x1="24.5" y1="440.5" x2="35.5" y2="440.5" />
    <line stroke="#0000ff" stroke-width="1" stroke-linecap="round" stroke-linejoin="round" x1="24.5" y1="377.5" x2="35.5" y2="377.5" />
    <line stroke="#0000ff" stroke-width="1" stroke-linecap="round" stroke-linejoin="round" x1="24.5" y1="314.5" x2="35.5" y2="314.5" />
    <line stroke="#0000ff" stroke-width="1" stroke-linecap="round" stroke-linejoin="round" x1="24.5" y1="251.5" x2="35.5" y2="251.5" />
    <line stroke="#0000ff" stroke-width="1" stroke-linecap="round" stroke-linejoin="round" x1="24.5" y1="189.5" x2="35.5" y2="189.5" />
    <line stroke="#0000ff" stroke-width="1" stroke-linecap="round" stroke-linejoin="round" x1="24.5" y1="126.5" x2="35.5" y2="126.5" />
    <line stroke="#0000ff" stroke-width="1" stroke-linecap="round" stroke-linejoin="round" x1="24.5" y1="63.5" x2="35.5" y2="63.5" />
  </g>
  <clipPath id="clippath2">
    <path d="M-1,-1 H1756 V942H-1 z M1705,-1 H1757 V31 H1705 z" clip-rule="evenodd" />
  </clipPath>
  <g clip-path="url(#clippath2)">
    <polyline stroke="#0000ff" stroke-width="1" stroke-linecap="round" stroke-linejoin="round" fill="none" points="30,880 31,880 32,880 33,880 34,880 35,880 36,880 37,880 38,880 39,880 40,880 41,880 42,880 43,880 44,880 45,880 46,880 47,880 48,880 49,880 50,880 51,880 52,880 53,880 54,880 55,880 56,880 57,880 58,880 59,880 60,880 61,880 62,880 63,880 64,880 65,880 66,880 67,880 68,880 69,880 70,880 71,880 72,880 73,880 74,880 75,880 76,880 77,880 78,880 79,880 80,880 81,880 82,880 83,880 84,880 85,880 86,880 87,880 88,880 89,880 90,880 91,880 92,880 93,880 94,880 95,880 96,880 97,880 98,880 99,880 100,880 101,880 102,880 103,880 104,880 105,880 106,880 107,880 108,880 109,880 110,880 111,880 112,880 113,880 114,880 115,880 116,880 117,880 118,880 119,880 120,880 121,880 122,880 123,880 124,880 125,880 126,880 127,880 128,880 129,880 130,880 131,880 132,880 133,880 134,880 135,880 136,880 137,880 138,880 139,880 140,880 141,880 142,880 143,880 144,880 145,880 146,880 147,880 148,880 149,880 150,880 151,880 152,880 153,880 154,880 155,880 156,880 157,880 158,880 159,880 160,880 161,880 162,880 163,880 164,880 165,880 166,880 167,880 168,880 169,880 170,880 171,880 172,880 173,880 174,880 175,880 176,880 177,880 178,880 179,880 180,880 181,880 182,880 183,880 184,880 185,880 186,880 187,880 188,880 189,880 190,880 191,880 192,880 193,880 194,880 195,880 196,880 197,880 198,880 199,880 200,880 201,880 202,880 203,880 204,880 205,880 206,880 207,880 208,880 209,880 210,880 211,880 212,880 213,880 214,880 215,880 216,880 217,880 218,880 219,880 220,880 221,880 222,880 223,880 224,880 225,880 226,880 227,880 228,880 229,880 230,880 231,880 232,880 233,880 234,880 235,880 236,880 237,880 238,880 239,880 240,880 241,880 242,880 243,880 244,880 245,880 246,880 247,880 248,880 249,880 250,880 251,880 252,880 253,880 254,880 255,880 256,880 257,880 258,880 259,880 260,880 261,880 262,880 263,880 264,880 265,880 266,880 267,880 268,880 269,880 270,880 271,880 272,880 273,880 274,880 275,880 276,880 277,880 278,880 279,880 280,880 281,880 282,880 283,880 284,880 285,880 286,880 287,880 288,880 289,880 290,880 291,880 292,880 293,880 294,880 295,880 296,880 297,880 298,880 299,880 300,880 301,880 302,880 303,880 304,880 305,880 306,880 307,880 308,880 309,880 310,880 311,880 312,880 313,880 314,880 315,880 316,880 317,880 318,880 319,880 320,880 321,880 322,880 323,880 324,880 325,880 326,880 327,880 328,880 329,880 330,880 331,880 332,880 333,880 334,880 335,880 336,880 337,880 338,880 339,880 340,880 341,880 342,880 343,880 344,880 345,880 346,880 347,880 348,880 349,880 350,880 351,880 352,880 353,880 354,880 355,880 356,880 357,880 358,880 359,880 360,880 361,880 362,880 363,880 364,880 365,880 366,880 367,880 368,880 369,880 370,880 371,880 372,880 373,880 374,880 375,880 376,880 377,880 378,880 379,880 380,880 381,880 382,880 383,880 384,880 385,880 386,880 387,880 388,880 389,880 390,880 391,880 392,880 393,880 394,880 395,880 396,880 397,880 398,880 399,880 400,880 401,880 402,880 403,880 404,880 405,880 406,880 407,880 408,880 409,880 410,880 411,880 412,880 413,880 414,880 415,880 416,880 417,880 418,880 419,880 420,880 421,880 422,880 423,880 424,880 425,880 426,880 427,880 428,880 429,880 430,880 431,880 432,880 433,880 434,880 435,880 436,880 437,880 438,880 439,880 440,880 441,880 442,880 443,880 444,880 445,880 446,880 447,880 448,880 449,880 450,880 451,880 452,880 453,880 454,880 455,880 456,880 457,881 458,881 459,881 460,881 461,881 462,881 463,881 464,881 465,881 466,881 467,881 468,881 469,881 470,881 471,881 472,881 473,881 474,881 475,881 476,881 477,881 478,881 479,881 480,881 481,881 482,881 483,881 484,881 485,881 486,881 487,881 488,881 489,881 490,881 491,881 492,882 493,882 494,882 495,882 496,882 497,882 498,882 499,882 500,882 501,882 502,882 503,882 504,882 505,882 506,882 507,882 508,882 509,882 510,882 511,882 512,882 513,882 514,882 515,882 516,882 517,882 518,882 519,882 520,882 521,882 522,882 523,882 524,882 525,882 526,882 527,882 528,882 529,882 530,882 531,882 532,882 533,882 534,882 535,882 536,882 537,882 538,882 539,882 540,882 541,882 542,882 543,882 544,882 545,882 546,882 547,882 548,882 549,882 550,882 551,882 552,882 553,882 554,882 555,882 556,882 557,882 558,882 559,882 560,882 561,882 562,882 563,882 564,882 565,882 566,882 567,882 568,882 569,882 570,882 571,882 572,882 573,882 574,882 575,882 576,882 577,882 578,882 579,882 580,882 581,882 582,881 583,881 584,881 585,881 586,881 587,881 588,881 589,881 590,881 591,881 592,881 593,881 594,881 595,881 596,881 597,881 598,881 599,880 600,880 601,880 602,880 603,880 604,880 605,880 606,880 607,880 608,880 609,880 610,880 611,879 612,879 613,879 614,879 615,879 616,879 617,879 618,879 619,879 620,879 621,878 622,878 623,878 624,878 625,878 626,878 627,878 628,878 629,878 630,877 631,877 632,877 633,877 634,877 635,877 636,877 637,877 638,876 639,876 640,876 641,876 642,876 643,876 644,876 645,876 646,875 647,875 648,875 649,875 650,875 651,875 652,875 653,874 654,874 655,874 656,874 657,874 658,874 659,873 660,873 661,873 662,873 663,873 664,873 665,873 666,872 667,872 668,872 669,872 670,872 671,872 672,871 673,871 674,871 675,871 676,871 677,871 678,870 679,870 680,870 681,870 682,870 683,870 684,869 685,869 686,869 687,869 688,869 689,868 690,868 691,868 692,868 693,868 694,868 695,867 696,867 697,867 698,867 699,867 700,867 701,866 702,866 703,866 704,866 705,866 706,865 707,865 708,865 709,865 710,865 711,865 712,864 713,864 714,864 715,864 716,864 717,863 718,863 719,863 720,863 721,863 722,862 723,862 724,862 725,862 726,862 727,862 728,861 729,861 730,861 731,861 732,861 733,860 734,860 735,860 736,860 737,860 738,859 739,859 740,859 741,859 742,859 743,859 744,858 745,858 746,858 747,858 748,858 749,857 750,857 751,857 752,857 753,857 754,857 755,856 756,856 757,856 758,856 759,856 760,855 761,855 762,855 763,855 764,855 765,855 766,854 767,854 768,854 769,854 770,854 771,854 772,853 773,853 774,853 775,853 776,853 777,852 778,852 779,852 780,852 781,852 782,852 783,851 784,851 785,851 786,851 787,851 788,851 789,851 790,850 791,850 792,850 793,850 794,850 795,850 796,849 797,849 798,849 799,849 800,849 801,849 802,849 803,848 804,848 805,848 806,848 807,848 808,848 809,847 810,847 811,847 812,847 813,847 814,847 815,847 816,847 817,846 818,846 819,846 820,846 821,846 822,846 823,846 824,846 825,845 826,845 827,845 828,845 829,845 830,845 831,845 832,845 833,844 834,844 835,844 836,844 837,844 838,844 839,844 840,844 841,844 842,844 843,843 844,843 845,843 846,843 847,843 848,843 849,843 850,843 851,843 852,843 853,843 854,843 855,842 856,842 857,842 858,842 859,842 860,842 861,842 862,842 863,842 864,842 865,842 866,842 867,842 868,842 869,842 870,842 871,841 872,841 873,841 874,841 875,841 876,841 877,841 878,841 879,841 880,841 881,841 882,841 883,841 884,841 885,841 886,841 887,841 888,841 889,841 890,841 891,841 892,841 893,841 894,841 895,841 896,841 897,841 898,841 899,841 900,841 901,841 902,841 903,841 904,841 905,841 906,841 907,841 908,841 909,841 910,841 911,841 912,841 913,841 914,842 915,842 916,842 917,842 918,842 919,842 920,842 921,842 922,842 923,842 924,842 925,842 926,842 927,842 928,842 929,842 930,843 931,843 932,843 933,843 934,843 935,843 936,843 937,843 938,843 939,843 940,843 941,843 942,844 943,844 944,844 945,844 946,844 947,844 948,844 949,844 950,844 951,844 952,845 953,845 954,845 955,845 956,845 957,845 958,845 959,845 960,846 961,846 962,846 963,846 964,846 965,846 966,846 967,846 968,847 969,847 970,847 971,847 972,847 973,847 974,847 975,848 976,848 977,848 978,848 979,848 980,848 981,848 982,849 983,849 984,849 985,849 986,849 987,849 988,849 989,850 990,850 991,850 992,850 993,850 994,850 995,851 996,851 997,851 998,851 999,851 1000,851 1001,852 1002,852 1003,852 1004,852 1005,852 1006,852 1007,853 1008,853 1009,853 1010,853 1011,853 1012,853 1013,854 1014,854 1015,854 1016,854 1017,854 1018,854 1019,855 1020,855 1021,855 1022,855 1023,855 1024,856 1025,856 1026,856 1027,856 1028,856 1029,856 1030,857 1031,857 1032,857 1033,857 1034,857 1035,858 1036,858 1037,858 1038,858 1039,858 1040,858 1041,859 1042,859 1043,859 1044,859 1045,859 1046,860 1047,860 1048,860 1049,860 1050,860 1051,860 1052,861 1053,861 1054,861 1055,861 1056,861 1057,862 1058,862 1059,862 1060,862 1061,862 1062,863 1063,863 1064,863 1065,863 1066,863 1067,863 1068,864 1069,864 1070,864 1071,864 1072,864 1073,865 1074,865 1075,865 1076,865 1077,865 1078,865 1079,866 1080,866 1081,866 1082,866 1083,866 1084,867 1085,867 1086,867 1087,867 1088,867 1089,867 1090,868 1091,868 1092,868 1093,868 1094,868 1095,869 1096,869 1097,869 1098,869 1099,869 1100,869 1101,870 1102,870 1103,870 1104,870 1105,870 1106,870 1107,871 1108,871 1109,871 1110,871 1111,871 1112,871 1113,872 1114,872 1115,872 1116,872 1117,872 1118,872 1119,873 1120,873 1121,873 1122,873 1123,873 1124,873 1125,874 1126,874 1127,874 1128,874 1129,874 1130,874 1131,874 1132,875 1133,875 1134,875 1135,875 1136,875 1137,875 1138,875 1139,876 1140,876 1141,876 1142,876 1143,876 1144,876 1145,876 1146,876 1147,877 1148,877 1149,877 1150,877 1151,877 1152,877 1153,877 1154,877 1155,878 1156,878 1157,878 1158,878 1159,878 1160,878 1161,878 1162,878 1163,878 1164,879 1165,879 1166,879 1167,879 1168,879 1169,879 1170,879 1171,879 1172,879 1173,879 1174,880 1175,880 1176,880 1177,880 1178,880 1179,880 1180,880 1181,880 1182,880 1183,880 1184,880 1185,880 1186,881 1187,881 1188,881 1189,881 1190,881 1191,881 1192,881 1193,881 1194,881 1195,881 1196,881 1197,881 1198,881 1199,881 1200,881 1201,881 1202,881 1203,881 1204,882 1205,882 1206,882 1207,882 1208,882 1209,882 1210,882 1211,882 1212,882 1213,882 1214,882 1215,882 1216,882 1217,882 1218,882 1219,882 1220,882 1221,882 1222,882 1223,882 1224,882 1225,882 1226,882 1227,882 1228,882 1229,882 1230,882 1231,882 1232,882 1233,882 1234,882 1235,882 1236,882 1237,882 1238,882 1239,882 1240,882 1241,882 1242,882 1243,882 1244,882 1245,882 1246,882 1247,882 1248,882 1249,882 1250,882 1251,882 1252,882 1253,882 1254,882 1255,882 1256,882 1257,882 1258,882 1259,882 1260,882 1261,882 1262,882 1263,882 1264,882 1265,882 1266,882 1267,882 1268,882 1269,882 1270,882 1271,882 1272,882 1273,882 1274,882 1275,882 1276,882 1277,882 1278,882 1279,882 1280,882 1281,882 1282,882 1283,882 1284,882 1285,882 1286,882 1287,882 1288,882 1289,881 1290,881 1291,881 1292,881 1293,881 1294,881 1295,881 1296,881 1297,881 1298,881 1299,881 1300,881 1301,881 1302,881 1303,881 1304,881 1305,881 1306,881 1307,881 1308,881 1309,881 1310,881 1311,881 1312,881 1313,881 1314,881 1315,881 1316,881 1317,881 1318,881 1319,881 1320,881 1321,881 1322,881 1323,881 1324,880 1325,880 1326,880 1327,880 1328,880 1329,880 1330,880 1331,880 1332,880 1333,880 1334,880 1335,880 1336,880 1337,880 1338,880 1339,880 1340,880 1341,880 1342,880 1343,880 1344,880 1345,880 1346,880 1347,880 1348,880 1349,880 1350,880 1351,880 1352,880 1353,880 1354,880 1355,880 1356,880 1357,880 1358,880 1359,880 1360,880 1361,880 1362,880 1363,880 1364,880 1365,880 1366,880 1367,880 1368,880 1369,880 1370,880 1371,880 1372,880 1373,880 1374,880 1375,880 1376,880 1377,880 1378,880 1379,880 1380,880 1381,880 1382,880 1383,880 1384,880 1385,880 1386,880 1387,880 1388,880 1389,880 1390,880 1391,880 1392,880 1393,880 1394,880 1395,880 1396,880 1397,880 1398,880 1399,880 1400,880 1401,880 1402,880 1403,880 1404,880 1405,880 1406,880 1407,880 1408,880 1409,880 1410,880 1411,880 1412,880 1413,880 1414,880 1415,880 1416,880 1417,880 1418,880 1419,880 1420,880 1421,880 1422,880 1423,880 1424,880 1425,880 1426,880 1427,880 1428,880 1429,880 1430,880 1431,880 1432,880 1433,880 1434,880 1435,880 1436,880 1437,880 1438,880 1439,880 1440,880 1441,880 1442,880 1443,880 1444,880 1445,880 1446,880 1447,880 1448,880 1449,880 1450,880 1451,880 1452,880 1453,880 1454,880 1455,880 1456,880 1457,880 1458,880 1459,880 1460,880 1461,880 1462,880 1463,880 1464,880 1465,880 1466,880 1467,880 1468,880 1469,880 1470,880 1471,880 1472,880 1473,880 1474,880 1475,880 1476,880 1477,880 1478,880 1479,880 1480,880 1481,880 1482,880 1483,880 1484,880 1485,880 1486,880 1487,880 1488,880 1489,880 1490,880 1491,880 1492,880 1493,880 1494,880 1495,880 1496,880 1497,880 1498,880 1499,880 1500,880 1501,880 1502,880 1503,880 1504,880 1505,880 1506,880 1507,880 1508,880 1509,880 1510,880 1511,880 1512,880 1513,880 1514,880 1515,880 1516,880 1517,880 1518,880 1519,880 1520,880 1521,880 1522,880 1523,880 1524,880 1525,880 1526,880 1527,880 1528,880 1529,880 1530,880 1531,880 1532,880 1533,880 1534,880 1535,880 1536,880 1537,880 1538,880 1539,880 1540,880 1541,880 1542,880 1543,880 1544,880 1545,880 1546,880 1547,880 1548,880 1549,880 1550,880 1551,880 1552,880 1553,880 1554,880 1555,880 1556,880 1557,880 1558,880 1559,880 1560,880 1561,880 1562,880 1563,880 1564,880 1565,880 1566,880 1567,880 1568,880 1569,880 1570,880 1571,880 1572,880 1573,880 1574,880 1575,880 1576,880 1577,880 1578,880 1579,880 1580,880 1581,880 1582,880 1583,880 1584,880 1585,880 1586,880 1587,880 1588,880 1589,880 1590,880 1591,880 1592,880 1593,880 1594,880 1595,880 1596,880 1597,880 1598,880 1599,880 1600,880 1601,880 1602,880 1603,880 1604,880 1605,880 1606,880 1607,880 1608,880 1609,880 1610,880 1611,880 1612,880 1613,880 1614,880 1615,880 1616,880 1617,880 1618,880 1619,880 1620,880 1621,880 1622,880 1623,880 1624,880 1625,880 1626,880 1627,880 1628,880 1629,880 1630,880 1631,880 1632,880 1633,880 1634,880 1635,880 1636,880 1637,880 1638,880 1639,880 1640,880 1641,880 1642,880 1643,880 1644,880 1645,880 1646,880 1647,880 1648,880 1649,880 1650,880 1651,880 1652,880 1653,880 1654,880 1655,880 1656,880 1657,880 1658,880 1659,880 1660,880 1661,880 1662,880 1663,880 1664,880 1665,880 1666,880 1667,880 1668,880 1669,880 1670,880 1671,880 1672,880 1673,880 1674,880 1675,880 1676,880 1677,880 1678,880 1679,880 1680,880 1681,880 1682,880 1683,880 1684,880 1685,880 1686,880 1687,880 1688,880 1689,880 1690,880 1691,880 1692,880 1693,880 1694,880 1695,880 1696,880 1697,880 1698,880 1699,880 1700,880 1701,880 1702,880 1703,880 1704,880 1705,880 1706,880 1707,880 1708,880 1709,880 1710,880 1711,880 1712,880 1713,880 1714,880 1715,880 1716,880 1717,880 1718,880 1719,880 1720,880 1721,880 1722,880 1723,880 1724,880 1725,880 1726,880 1727,880 1728,880 1729,880 1730,880 1731,880 1732,880 1733,880 1734,880 1735,880 1736,880 1737,880 1738,880 1739,880 1740,880 1741,880 1742,880 1743,880 1744,880 1745,880 1746,880 1747,880 1748,880 1749,880 1750,880 1751,880 1752,880 1753,880 1754,880 " />
    <circle stroke="#000000" stroke-width="1" stroke-linecap="round" stroke-linejoin="round" fill="#ff0000" cx="30" cy="880" r="5" />
    <circle stroke="#000000" stroke-width="1" stroke-linecap="round" stroke-linejoin="round" fill="#ff0000" cx="318" cy="880" r="5" />
    <circle stroke="#000000" stroke-width="1" stroke-linecap="round" stroke-linejoin="round" fill="#ff0000" cx="605" cy="880" r="5" />
    <circle stroke="#000000" stroke-width="1" stroke-linecap="round" stroke-linejoin="round" fill="#ff0000" cx="892" cy="841" r="5" />
    <circle stroke="#000000" stroke-width="1" stroke-linecap="round" stroke-linejoin="round" fill="#ff0000" cx="1179" cy="880" r="5" />
    <circle stroke="#000000" stroke-width="1" stroke-linecap="round" stroke-linejoin="round" fill="#ff0000" cx="1467" cy="880" r="5" />
    <circle stroke="#000000" stroke-width="1" stroke-linecap="round" stroke-linejoin="round" fill="#ff0000" cx="1754" cy="880" r="5" />
    <circle stroke="#000000" stroke-width="1" stroke-linecap="round" stroke-linejoin="round" fill="#ff0000" cx="435" cy="880" r="5" />
    <circle stroke="#000000" stroke-width="1" stroke-linecap="round" stroke-linejoin="round" fill="#ff0000" cx="1345" cy="880" r="5" />
  </g>
</svg>
