<?xml version="1.0" encoding="UTF-8"?>
<!DOCTYPE svg PUBLIC "-//W3C//DTD SVG 1.1//EN" "http://www.w3.org/Graphics/SVG/1.1/DTD/svg11.dtd">
<svg width="1756px" height="943px" viewBox="0 0 1756 943" version="1.1" xmlns="http://www.w3.org/2000/svg" xmlns:xlink="http://www.w3.org/1999/xlink">
  <g>
    <circle stroke="#000000" stroke-width="1" stroke-linecap="round" stroke-linejoin="round" fill="#ff0000" cx="1731" cy="20" r="5" />
    <text x="1711" y="16" font-family="Times New Roman" font-size="11" fill="#000000">Ряд 1</text>
    <rect stroke="#000000" stroke-width="1" stroke-linecap="round" stroke-linejoin="round" fill="none" x="1706.5" y="0.5" width="49" height="29" />
  </g>
  <clipPath id="clippath1">
    <path d="M-1,-1 H1756 V942H-1 z M1705,-1 H1757 V31 H1705 z" clip-rule="evenodd" />
  </clipPath>
  <g clip-path="url(#clippath1)">
    <text x="35" y="915" font-family="Times New Roman" font-size="13" fill="#000000">-0.8</text>
    <text x="79" y="915" font-family="Times New Roman" font-size="13" fill="#000000">-0.6</text>
    <text x="123" y="915" font-family="Times New Roman" font-size="13" fill="#000000">-0.4</text>
    <text x="167" y="915" font-family="Times New Roman" font-size="13" fill="#000000">-0.2</text>
    <text x="256" y="915" font-family="Times New Roman" font-size="13" fill="#000000">0.2</text>
    <text x="300" y="915" font-family="Times New Roman" font-size="13" fill="#000000">0.4</text>
    <text x="344" y="915" font-family="Times New Roman" font-size="13" fill="#000000">0.6</text>
    <text x="388" y="915" font-family="Times New Roman" font-size="13" fill="#000000">0.8</text>
    <text x="436" y="915" font-family="Times New Roman" font-size="13" fill="#000000">1</text>
    <text x="476" y="915" font-family="Times New Roman" font-size="13" fill="#000000">1.2</text>
    <text x="520" y="915" font-family="Times New Roman" font-size="13" fill="#000000">1.4</text>
    <text x="564" y="915" font-family="Times New Roman" font-size="13" fill="#000000">1.6</text>
    <text x="608" y="915" font-family="Times New Roman" font-size="13" fill="#000000">1.8</text>
    <text x="655" y="915" font-family="Times New Roman" font-size="13" fill="#000000">2</text>
    <text x="695" y="915" font-family="Times New Roman" font-size="13" fill="#000000">2.2</text>
    <text x="739" y="915" font-family="Times New Roman" font-size="13" fill="#000000">2.4</text>
    <text x="783" y="915" font-family="Times New Roman" font-size="13" fill="#000000">2.6</text>
    <text x="827" y="915" font-family="Times New Roman" font-size="13" fill="#000000">2.8</text>
    <text x="875" y="915" font-family="Times New Roman" font-size="13" fill="#000000">3</text>
    <text x="915" y="915" font-family="Times New Roman" font-size="13" fill="#000000">3.2</text>
    <text x="959" y="915" font-family="Times New Roman" font-size="13" fill="#000000">3.4</text>
    <text x="1003" y="915" font-family="Times New Roman" font-size="13" fill="#000000">3.6</text>
    <text x="1047" y="915" font-family="Times New Roman" font-size="13" fill="#000000">3.8</text>
    <text x="1095" y="915" font-family="Times New Roman" font-size="13" fill="#000000">4</text>
    <text x="1134" y="915" font-family="Times New Roman" font-size="13" fill="#000000">4.2</text>
    <text x="1178" y="915" font-family="Times New Roman" font-size="13" fill="#000000">4.4</text>
    <text x="1222" y="915" font-family="Times New Roman" font-size="13" fill="#000000">4.6</text>
    <text x="1266" y="915" font-family="Times New Roman" font-size="13" fill="#000000">4.8</text>
    <text x="1314" y="915" font-family="Times New Roman" font-size="13" fill="#000000">5</text>
    <text x="1354" y="915" font-family="Times New Roman" font-size="13" fill="#000000">5.2</text>
    <text x="1398" y="915" font-family="Times New Roman" font-size="13" fill="#000000">5.4</text>
    <text x="1442" y="915" font-family="Times New Roman" font-size="13" fill="#000000">5.6</text>
    <text x="1486" y="915" font-family="Times New Roman" font-size="13" fill="#000000">5.8</text>
    <text x="1534" y="915" font-family="Times New Roman" font-size="13" fill="#000000">6</text>
    <text x="1573" y="915" font-family="Times New Roman" font-size="13" fill="#000000">6.2</text>
    <text x="1617" y="915" font-family="Times New Roman" font-size="13" fill="#000000">6.4</text>
    <text x="1661" y="915" font-family="Times New Roman" font-size="13" fill="#000000">6.6</text>
    <text x="1705" y="915" font-family="Times New Roman" font-size="13" fill="#000000">6.8</text>
    <text x="198" y="859" font-family="Times New Roman" font-size="13" fill="#000000">0.1</text>
    <text x="198" y="814" font-family="Times New Roman" font-size="13" fill="#000000">0.2</text>
    <text x="198" y="769" font-family="Times New Roman" font-size="13" fill="#000000">0.3</text>
    <text x="198" y="724" font-family="Times New Roman" font-size="13" fill="#000000">0.4</text>
    <text x="198" y="680" font-family="Times New Roman" font-size="13" fill="#000000">0.5</text>
    <text x="198" y="635" font-family="Times New Roman" font-size="13" fill="#000000">0.6</text>
    <text x="198" y="590" font-family="Times New Roman" font-size="13" fill="#000000">0.7</text>
    <text x="198" y="545" font-family="Times New Roman" font-size="13" fill="#000000">0.8</text>
    <text x="198" y="500" font-family="Times New Roman" font-size="13" fill="#000000">0.9</text>
    <text x="207" y="455" font-family="Times New Roman" font-size="13" fill="#000000">1</text>
    <text x="198" y="410" font-family="Times New Roman" font-size="13" fill="#000000">1.1</text>
    <text x="198" y="365" font-family="Times New Roman" font-size="13" fill="#000000">1.2</text>
    <text x="198" y="320" font-family="Times New Roman" font-size="13" fill="#000000">1.3</text>
    <text x="198" y="275" font-family="Times New Roman" font-size="13" fill="#000000">1.4</text>
    <text x="198" y="231" font-family="Times New Roman" font-size="13" fill="#000000">1.5</text>
    <text x="198" y="186" font-family="Times New Roman" font-size="13" fill="#000000">1.6</text>
    <text x="198" y="141" font-family="Times New Roman" font-size="13" fill="#000000">1.7</text>
    <text x="198" y="96" font-family="Times New Roman" font-size="13" fill="#000000">1.8</text>
    <text x="198" y="51" font-family="Times New Roman" font-size="13" fill="#000000">1.9</text>
    <text x="1745" y="888" font-family="Times New Roman" font-size="16" font-weight="700" fill="#000000">x</text>
    <text x="232" y="13" font-family="Times New Roman" font-size="16" font-weight="700" fill="#000000">y</text>
    <line stroke="#0000ff" stroke-width="2" stroke-linecap="butt" stroke-linejoin="bevel" x1="0" y1="898" x2="1751" y2="898" />
    <polygon stroke="#0000ff" stroke-width="1" stroke-linecap="round" stroke-linejoin="round" fill="#0000ff" points="1750.5,892.5 1755.5,897.5 1755.5,898.5 1750.5,903.5 " />
    <line stroke="#0000ff" stroke-width="1" stroke-linecap="round" stroke-linejoin="round" x1="44.5" y1="903.5" x2="44.5" y2="892.5" />
    <line stroke="#0000ff" stroke-width="1" stroke-linecap="round" stroke-linejoin="round" x1="88.5" y1="903.5" x2="88.5" y2="892.5" />
    <line stroke="#0000ff" stroke-width="1" stroke-linecap="round" stroke-linejoin="round" x1="132.5" y1="903.5" x2="132.5" y2="892.5" />
    <line stroke="#0000ff" stroke-width="1" stroke-linecap="round" stroke-linejoin="round" x1="176.5" y1="903.5" x2="176.5" y2="892.5" />
    <line stroke="#0000ff" stroke-width="1" stroke-linecap="round" stroke-linejoin="round" x1="263.5" y1="903.5" x2="263.5" y2="892.5" />
    <line stroke="#0000ff" stroke-width="1" stroke-linecap="round" stroke-linejoin="round" x1="307.5" y1="903.5" x2="307.5" y2="892.5" />
    <line stroke="#0000ff" stroke-width="1" stroke-linecap="round" stroke-linejoin="round" x1="351.5" y1="903.5" x2="351.5" y2="892.5" />
    <line stroke="#0000ff" stroke-width="1" stroke-linecap="round" stroke-linejoin="round" x1="395.5" y1="903.5" x2="395.5" y2="892.5" />
    <line stroke="#0000ff" stroke-width="1" stroke-linecap="round" stroke-linejoin="round" x1="439.5" y1="903.5" x2="439.5" y2="892.5" />
    <line stroke="#0000ff" stroke-width="1" stroke-linecap="round" stroke-linejoin="round" x1="483.5" y1="903.5" x2="483.5" y2="892.5" />
    <line stroke="#0000ff" stroke-width="1" stroke-linecap="round" stroke-linejoin="round" x1="527.5" y1="903.5" x2="527.5" y2="892.5" />
    <line stroke="#0000ff" stroke-width="1" stroke-linecap="round" stroke-linejoin="round" x1="571.5" y1="903.5" x2="571.5" y2="892.5" />
    <line stroke="#0000ff" stroke-width="1" stroke-linecap="round" stroke-linejoin="round" x1="615.5" y1="903.5" x2="615.5" y2="892.5" />
    <line stroke="#0000ff" stroke-width="1" stroke-linecap="round" stroke-linejoin="round" x1="658.5" y1="903.5" x2="658.5" y2="892.5" />
    <line stroke="#0000ff" stroke-width="1" stroke-linecap="round" stroke-linejoin="round" x1="702.5" y1="903.5" x2="702.5" y2="892.5" />
    <line stroke="#0000ff" stroke-width="1" stroke-linecap="round" stroke-linejoin="round" x1="746.5" y1="903.5" x2="746.5" y2="892.5" />
    <line stroke="#0000ff" stroke-width="1" stroke-linecap="round" stroke-linejoin="round" x1="790.5" y1="903.5" x2="790.5" y2="892.5" />
    <line stroke="#0000ff" stroke-width="1" stroke-linecap="round" stroke-linejoin="round" x1="834.5" y1="903.5" x2="834.5" y2="892.5" />
    <line stroke="#0000ff" stroke-width="1" stroke-linecap="round" stroke-linejoin="round" x1="878.5" y1="903.5" x2="878.5" y2="892.5" />
    <line stroke="#0000ff" stroke-width="1" stroke-linecap="round" stroke-linejoin="round" x1="922.5" y1="903.5" x2="922.5" y2="892.5" />
    <line stroke="#0000ff" stroke-width="1" stroke-linecap="round" stroke-linejoin="round" x1="966.5" y1="903.5" x2="966.5" y2="892.5" />
    <line stroke="#0000ff" stroke-width="1" stroke-linecap="round" stroke-linejoin="round" x1="1010.5" y1="903.5" x2="1010.5" y2="892.5" />
    <line stroke="#0000ff" stroke-width="1" stroke-linecap="round" stroke-linejoin="round" x1="1054.5" y1="903.5" x2="1054.5" y2="892.5" />
    <line stroke="#0000ff" stroke-width="1" stroke-linecap="round" stroke-linejoin="round" x1="1097.5" y1="903.5" x2="1097.5" y2="892.5" />
    <line stroke="#0000ff" stroke-width="1" stroke-linecap="round" stroke-linejoin="round" x1="1141.5" y1="903.5" x2="1141.5" y2="892.5" />
    <line stroke="#0000ff" stroke-width="1" stroke-linecap="round" stroke-linejoin="round" x1="1185.5" y1="903.5" x2="1185.5" y2="892.5" />
    <line stroke="#0000ff" stroke-width="1" stroke-linecap="round" stroke-linejoin="round" x1="1229.5" y1="903.5" x2="1229.5" y2="892.5" />
    <line stroke="#0000ff" stroke-width="1" stroke-linecap="round" stroke-linejoin="round" x1="1273.5" y1="903.5" x2="1273.5" y2="892.5" />
    <line stroke="#0000ff" stroke-width="1" stroke-linecap="round" stroke-linejoin="round" x1="1317.5" y1="903.5" x2="1317.5" y2="892.5" />
    <line stroke="#0000ff" stroke-width="1" stroke-linecap="round" stroke-linejoin="round" x1="1361.5" y1="903.5" x2="1361.5" y2="892.5" />
    <line stroke="#0000ff" stroke-width="1" stroke-linecap="round" stroke-linejoin="round" x1="1405.5" y1="903.5" x2="1405.5" y2="892.5" />
    <line stroke="#0000ff" stroke-width="1" stroke-linecap="round" stroke-linejoin="round" x1="1449.5" y1="903.5" x2="1449.5" y2="892.5" />
    <line stroke="#0000ff" stroke-width="1" stroke-linecap="round" stroke-linejoin="round" x1="1493.5" y1="903.5" x2="1493.5" y2="892.5" />
    <line stroke="#0000ff" stroke-width="1" stroke-linecap="round" stroke-linejoin="round" x1="1537.5" y1="903.5" x2="1537.5" y2="892.5" />
    <line stroke="#0000ff" stroke-width="1" stroke-linecap="round" stroke-linejoin="round" x1="1580.5" y1="903.5" x2="1580.5" y2="892.5" />
    <line stroke="#0000ff" stroke-width="1" stroke-linecap="round" stroke-linejoin="round" x1="1624.5" y1="903.5" x2="1624.5" y2="892.5" />
    <line stroke="#0000ff" stroke-width="1" stroke-linecap="round" stroke-linejoin="round" x1="1668.5" y1="903.5" x2="1668.5" y2="892.5" />
    <line stroke="#0000ff" stroke-width="1" stroke-linecap="round" stroke-linejoin="round" x1="1712.5" y1="903.5" x2="1712.5" y2="892.5" />
    <line stroke="#0000ff" stroke-width="2" stroke-linecap="butt" stroke-linejoin="bevel" x1="220" y1="3" x2="220" y2="942" />
    <polygon stroke="#0000ff" stroke-width="1" stroke-linecap="round" stroke-linejoin="round" fill="#0000ff" points="214.5,5.5 219.5,0.5 220.5,0.5 225.5,5.5 " />
    <line stroke="#0000ff" stroke-width="1" stroke-linecap="round" stroke-linejoin="round" x1="214.5" y1="853.5" x2="225.5" y2="853.5" />
    <line stroke="#0000ff" stroke-width="1" stroke-linecap="round" stroke-linejoin="round" x1="214.5" y1="808.5" x2="225.5" y2="808.5" />
    <line stroke="#0000ff" stroke-width="1" stroke-linecap="round" stroke-linejoin="round" x1="214.5" y1="763.5" x2="225.5" y2="763.5" />
    <line stroke="#0000ff" stroke-width="1" stroke-linecap="round" stroke-linejoin="round" x1="214.5" y1="718.5" x2="225.5" y2="718.5" />
    <line stroke="#0000ff" stroke-width="1" stroke-linecap="round" stroke-linejoin="round" x1="214.5" y1="674.5" x2="225.5" y2="674.5" />
    <line stroke="#0000ff" stroke-width="1" stroke-linecap="round" stroke-linejoin="round" x1="214.5" y1="629.5" x2="225.5" y2="629.5" />
    <line stroke="#0000ff" stroke-width="1" stroke-linecap="round" stroke-linejoin="round" x1="214.5" y1="584.5" x2="225.5" y2="584.5" />
    <line stroke="#0000ff" stroke-width="1" stroke-linecap="round" stroke-linejoin="round" x1="214.5" y1="539.5" x2="225.5" y2="539.5" />
    <line stroke="#0000ff" stroke-width="1" stroke-linecap="round" stroke-linejoin="round" x1="214.5" y1="494.5" x2="225.5" y2="494.5" />
    <line stroke="#0000ff" stroke-width="1" stroke-linecap="round" stroke-linejoin="round" x1="214.5" y1="449.5" x2="225.5" y2="449.5" />
    <line stroke="#0000ff" stroke-width="1" stroke-linecap="round" stroke-linejoin="round" x1="214.5" y1="404.5" x2="225.5" y2="404.5" />
    <line stroke="#0000ff" stroke-width="1" stroke-linecap="round" stroke-linejoin="round" x1="214.5" y1="359.5" x2="225.5" y2="359.5" />
    <line stroke="#0000ff" stroke-width="1" stroke-linecap="round" stroke-linejoin="round" x1="214.5" y1="314.5" x2="225.5" y2="314.5" />
    <line stroke="#0000ff" stroke-width="1" stroke-linecap="round" stroke-linejoin="round" x1="214.5" y1="269.5" x2="225.5" y2="269.5" />
    <line stroke="#0000ff" stroke-width="1" stroke-linecap="round" stroke-linejoin="round" x1="214.5" y1="225.5" x2="225.5" y2="225.5" />
    <line stroke="#0000ff" stroke-width="1" stroke-linecap="round" stroke-linejoin="round" x1="214.5" y1="180.5" x2="225.5" y2="180.5" />
    <line stroke="#0000ff" stroke-width="1" stroke-linecap="round" stroke-linejoin="round" x1="214.5" y1="135.5" x2="225.5" y2="135.5" />
    <line stroke="#0000ff" stroke-width="1" stroke-linecap="round" stroke-linejoin="round" x1="214.5" y1="90.5" x2="225.5" y2="90.5" />
    <line stroke="#0000ff" stroke-width="1" stroke-linecap="round" stroke-linejoin="round" x1="214.5" y1="45.5" x2="225.5" y2="45.5" />
  </g>
  <clipPath id="clippath2">
    <path d="M-1,-1 H1756 V942H-1 z M1705,-1 H1757 V31 H1705 z" clip-rule="evenodd" />
  </clipPath>
  <g clip-path="url(#clippath2)">
    <circle stroke="#000000" stroke-width="1" stroke-linecap="round" stroke-linejoin="round" fill="#ff0000" cx="220" cy="877" r="5" />
    <circle stroke="#000000" stroke-width="1" stroke-linecap="round" stroke-linejoin="round" fill="#ff0000" cx="439" cy="814" r="5" />
    <circle stroke="#000000" stroke-width="1" stroke-linecap="round" stroke-linejoin="round" fill="#ff0000" cx="659" cy="758" r="5" />
    <circle stroke="#000000" stroke-width="1" stroke-linecap="round" stroke-linejoin="round" fill="#ff0000" cx="878" cy="774" r="5" />
    <circle stroke="#000000" stroke-width="1" stroke-linecap="round" stroke-linejoin="round" fill="#ff0000" cx="1098" cy="836" r="5" />
    <circle stroke="#000000" stroke-width="1" stroke-linecap="round" stroke-linejoin="round" fill="#ff0000" cx="1317" cy="882" r="5" />
    <circle stroke="#000000" stroke-width="1" stroke-linecap="round" stroke-linejoin="round" fill="#ff0000" cx="1537" cy="896" r="5" />
  </g>
</svg>
