<?xml version="1.0" encoding="UTF-8"?>
<!DOCTYPE svg PUBLIC "-//W3C//DTD SVG 1.1//EN" "http://www.w3.org/Graphics/SVG/1.1/DTD/svg11.dtd">
<svg width="1756px" height="943px" viewBox="0 0 1756 943" version="1.1" xmlns="http://www.w3.org/2000/svg" xmlns:xlink="http://www.w3.org/1999/xlink">
  <g>
    <polyline stroke="#0000ff" stroke-width="1" stroke-linecap="round" stroke-linejoin="round" fill="none" points="1711,20 1751,20 " />
    <circle stroke="#000000" stroke-width="1" stroke-linecap="round" stroke-linejoin="round" fill="#ff0000" cx="1731" cy="20" r="5" />
    <text x="1711" y="16" font-family="Times New Roman" font-size="11" fill="#000000">Ряд 1</text>
    <rect stroke="#000000" stroke-width="1" stroke-linecap="round" stroke-linejoin="round" fill="none" x="1706.5" y="0.5" width="49" height="29" />
  </g>
  <clipPath id="clippath1">
    <path d="M-1,-1 H1756 V942H-1 z M1705,-1 H1757 V31 H1705 z" clip-rule="evenodd" />
  </clipPath>
  <g clip-path="url(#clippath1)">
    <text x="75" y="901" font-family="Times New Roman" font-size="13" fill="#000000">10</text>
    <text x="125" y="901" font-family="Times New Roman" font-size="13" fill="#000000">20</text>
    <text x="175" y="901" font-family="Times New Roman" font-size="13" fill="#000000">30</text>
    <text x="225" y="901" font-family="Times New Roman" font-size="13" fill="#000000">40</text>
    <text x="276" y="901" font-family="Times New Roman" font-size="13" fill="#000000">50</text>
    <text x="326" y="901" font-family="Times New Roman" font-size="13" fill="#000000">60</text>
    <text x="376" y="901" font-family="Times New Roman" font-size="13" fill="#000000">70</text>
    <text x="427" y="901" font-family="Times New Roman" font-size="13" fill="#000000">80</text>
    <text x="477" y="901" font-family="Times New Roman" font-size="13" fill="#000000">90</text>
    <text x="524" y="901" font-family="Times New Roman" font-size="13" fill="#000000">100</text>
    <text x="575" y="901" font-family="Times New Roman" font-size="13" fill="#000000">110</text>
    <text x="625" y="901" font-family="Times New Roman" font-size="13" fill="#000000">120</text>
    <text x="675" y="901" font-family="Times New Roman" font-size="13" fill="#000000">130</text>
    <text x="726" y="901" font-family="Times New Roman" font-size="13" fill="#000000">140</text>
    <text x="776" y="901" font-family="Times New Roman" font-size="13" fill="#000000">150</text>
    <text x="826" y="901" font-family="Times New Roman" font-size="13" fill="#000000">160</text>
    <text x="877" y="901" font-family="Times New Roman" font-size="13" fill="#000000">170</text>
    <text x="927" y="901" font-family="Times New Roman" font-size="13" fill="#000000">180</text>
    <text x="977" y="901" font-family="Times New Roman" font-size="13" fill="#000000">190</text>
    <text x="1027" y="901" font-family="Times New Roman" font-size="13" fill="#000000">200</text>
    <text x="1078" y="901" font-family="Times New Roman" font-size="13" fill="#000000">210</text>
    <text x="1128" y="901" font-family="Times New Roman" font-size="13" fill="#000000">220</text>
    <text x="1178" y="901" font-family="Times New Roman" font-size="13" fill="#000000">230</text>
    <text x="1229" y="901" font-family="Times New Roman" font-size="13" fill="#000000">240</text>
    <text x="1279" y="901" font-family="Times New Roman" font-size="13" fill="#000000">250</text>
    <text x="1329" y="901" font-family="Times New Roman" font-size="13" fill="#000000">260</text>
    <text x="1380" y="901" font-family="Times New Roman" font-size="13" fill="#000000">270</text>
    <text x="1430" y="901" font-family="Times New Roman" font-size="13" fill="#000000">280</text>
    <text x="1480" y="901" font-family="Times New Roman" font-size="13" fill="#000000">290</text>
    <text x="1531" y="901" font-family="Times New Roman" font-size="13" fill="#000000">300</text>
    <text x="1581" y="901" font-family="Times New Roman" font-size="13" fill="#000000">310</text>
    <text x="1631" y="901" font-family="Times New Roman" font-size="13" fill="#000000">320</text>
    <text x="1682" y="901" font-family="Times New Roman" font-size="13" fill="#000000">330</text>
    <text x="1732" y="901" font-family="Times New Roman" font-size="13" fill="#000000">340</text>
    <text x="2" y="831" font-family="Times New Roman" font-size="13" fill="#000000">0.02</text>
    <text x="2" y="772" font-family="Times New Roman" font-size="13" fill="#000000">0.04</text>
    <text x="2" y="713" font-family="Times New Roman" font-size="13" fill="#000000">0.06</text>
    <text x="2" y="654" font-family="Times New Roman" font-size="13" fill="#000000">0.08</text>
    <text x="8" y="595" font-family="Times New Roman" font-size="13" fill="#000000">0.1</text>
    <text x="2" y="536" font-family="Times New Roman" font-size="13" fill="#000000">0.12</text>
    <text x="2" y="477" font-family="Times New Roman" font-size="13" fill="#000000">0.14</text>
    <text x="2" y="419" font-family="Times New Roman" font-size="13" fill="#000000">0.16</text>
    <text x="2" y="360" font-family="Times New Roman" font-size="13" fill="#000000">0.18</text>
    <text x="8" y="301" font-family="Times New Roman" font-size="13" fill="#000000">0.2</text>
    <text x="2" y="242" font-family="Times New Roman" font-size="13" fill="#000000">0.22</text>
    <text x="2" y="183" font-family="Times New Roman" font-size="13" fill="#000000">0.24</text>
    <text x="2" y="124" font-family="Times New Roman" font-size="13" fill="#000000">0.26</text>
    <text x="2" y="65" font-family="Times New Roman" font-size="13" fill="#000000">0.28</text>
    <text x="1744" y="874" font-family="Times New Roman" font-size="16" font-weight="700" fill="#000000">k</text>
    <text x="42" y="13" font-family="Times New Roman" font-size="16" font-weight="700" fill="#000000">P(k)</text>
    <line stroke="#0000ff" stroke-width="2" stroke-linecap="butt" stroke-linejoin="bevel" x1="0" y1="884" x2="1751" y2="884" />
    <polygon stroke="#0000ff" stroke-width="1" stroke-linecap="round" stroke-linejoin="round" fill="#0000ff" points="1750.5,878.5 1755.5,883.5 1755.5,884.5 1750.5,889.5 " />
    <line stroke="#0000ff" stroke-width="1" stroke-linecap="round" stroke-linejoin="round" x1="81.5" y1="889.5" x2="81.5" y2="878.5" />
    <line stroke="#0000ff" stroke-width="1" stroke-linecap="round" stroke-linejoin="round" x1="131.5" y1="889.5" x2="131.5" y2="878.5" />
    <line stroke="#0000ff" stroke-width="1" stroke-linecap="round" stroke-linejoin="round" x1="181.5" y1="889.5" x2="181.5" y2="878.5" />
    <line stroke="#0000ff" stroke-width="1" stroke-linecap="round" stroke-linejoin="round" x1="231.5" y1="889.5" x2="231.5" y2="878.5" />
    <line stroke="#0000ff" stroke-width="1" stroke-linecap="round" stroke-linejoin="round" x1="282.5" y1="889.5" x2="282.5" y2="878.5" />
    <line stroke="#0000ff" stroke-width="1" stroke-linecap="round" stroke-linejoin="round" x1="332.5" y1="889.5" x2="332.5" y2="878.5" />
    <line stroke="#0000ff" stroke-width="1" stroke-linecap="round" stroke-linejoin="round" x1="382.5" y1="889.5" x2="382.5" y2="878.5" />
    <line stroke="#0000ff" stroke-width="1" stroke-linecap="round" stroke-linejoin="round" x1="433.5" y1="889.5" x2="433.5" y2="878.5" />
    <line stroke="#0000ff" stroke-width="1" stroke-linecap="round" stroke-linejoin="round" x1="483.5" y1="889.5" x2="483.5" y2="878.5" />
    <line stroke="#0000ff" stroke-width="1" stroke-linecap="round" stroke-linejoin="round" x1="533.5" y1="889.5" x2="533.5" y2="878.5" />
    <line stroke="#0000ff" stroke-width="1" stroke-linecap="round" stroke-linejoin="round" x1="584.5" y1="889.5" x2="584.5" y2="878.5" />
    <line stroke="#0000ff" stroke-width="1" stroke-linecap="round" stroke-linejoin="round" x1="634.5" y1="889.5" x2="634.5" y2="878.5" />
    <line stroke="#0000ff" stroke-width="1" stroke-linecap="round" stroke-linejoin="round" x1="684.5" y1="889.5" x2="684.5" y2="878.5" />
    <line stroke="#0000ff" stroke-width="1" stroke-linecap="round" stroke-linejoin="round" x1="735.5" y1="889.5" x2="735.5" y2="878.5" />
    <line stroke="#0000ff" stroke-width="1" stroke-linecap="round" stroke-linejoin="round" x1="785.5" y1="889.5" x2="785.5" y2="878.5" />
    <line stroke="#0000ff" stroke-width="1" stroke-linecap="round" stroke-linejoin="round" x1="835.5" y1="889.5" x2="835.5" y2="878.5" />
    <line stroke="#0000ff" stroke-width="1" stroke-linecap="round" stroke-linejoin="round" x1="886.5" y1="889.5" x2="886.5" y2="878.5" />
    <line stroke="#0000ff" stroke-width="1" stroke-linecap="round" stroke-linejoin="round" x1="936.5" y1="889.5" x2="936.5" y2="878.5" />
    <line stroke="#0000ff" stroke-width="1" stroke-linecap="round" stroke-linejoin="round" x1="986.5" y1="889.5" x2="986.5" y2="878.5" />
    <line stroke="#0000ff" stroke-width="1" stroke-linecap="round" stroke-linejoin="round" x1="1036.5" y1="889.5" x2="1036.5" y2="878.5" />
    <line stroke="#0000ff" stroke-width="1" stroke-linecap="round" stroke-linejoin="round" x1="1087.5" y1="889.5" x2="1087.5" y2="878.5" />
    <line stroke="#0000ff" stroke-width="1" stroke-linecap="round" stroke-linejoin="round" x1="1137.5" y1="889.5" x2="1137.5" y2="878.5" />
    <line stroke="#0000ff" stroke-width="1" stroke-linecap="round" stroke-linejoin="round" x1="1187.5" y1="889.5" x2="1187.5" y2="878.5" />
    <line stroke="#0000ff" stroke-width="1" stroke-linecap="round" stroke-linejoin="round" x1="1238.5" y1="889.5" x2="1238.5" y2="878.5" />
    <line stroke="#0000ff" stroke-width="1" stroke-linecap="round" stroke-linejoin="round" x1="1288.5" y1="889.5" x2="1288.5" y2="878.5" />
    <line stroke="#0000ff" stroke-width="1" stroke-linecap="round" stroke-linejoin="round" x1="1338.5" y1="889.5" x2="1338.5" y2="878.5" />
    <line stroke="#0000ff" stroke-width="1" stroke-linecap="round" stroke-linejoin="round" x1="1389.5" y1="889.5" x2="1389.5" y2="878.5" />
    <line stroke="#0000ff" stroke-width="1" stroke-linecap="round" stroke-linejoin="round" x1="1439.5" y1="889.5" x2="1439.5" y2="878.5" />
    <line stroke="#0000ff" stroke-width="1" stroke-linecap="round" stroke-linejoin="round" x1="1489.5" y1="889.5" x2="1489.5" y2="878.5" />
    <line stroke="#0000ff" stroke-width="1" stroke-linecap="round" stroke-linejoin="round" x1="1540.5" y1="889.5" x2="1540.5" y2="878.5" />
    <line stroke="#0000ff" stroke-width="1" stroke-linecap="round" stroke-linejoin="round" x1="1590.5" y1="889.5" x2="1590.5" y2="878.5" />
    <line stroke="#0000ff" stroke-width="1" stroke-linecap="round" stroke-linejoin="round" x1="1640.5" y1="889.5" x2="1640.5" y2="878.5" />
    <line stroke="#0000ff" stroke-width="1" stroke-linecap="round" stroke-linejoin="round" x1="1691.5" y1="889.5" x2="1691.5" y2="878.5" />
    <line stroke="#0000ff" stroke-width="1" stroke-linecap="round" stroke-linejoin="round" x1="1741.5" y1="889.5" x2="1741.5" y2="878.5" />
    <line stroke="#0000ff" stroke-width="2" stroke-linecap="butt" stroke-linejoin="bevel" x1="30" y1="3" x2="30" y2="942" />
    <polygon stroke="#0000ff" stroke-width="1" stroke-linecap="round" stroke-linejoin="round" fill="#0000ff" points="24.5,5.5 29.5,0.5 30.5,0.5 35.5,5.5 " />
    <line stroke="#0000ff" stroke-width="1" stroke-linecap="round" stroke-linejoin="round" x1="24.5" y1="825.5" x2="35.5" y2="825.5" />
    <line stroke="#0000ff" stroke-width="1" stroke-linecap="round" stroke-linejoin="round" x1="24.5" y1="766.5" x2="35.5" y2="766.5" />
    <line stroke="#0000ff" stroke-width="1" stroke-linecap="round" stroke-linejoin="round" x1="24.5" y1="707.5" x2="35.5" y2="707.5" />
    <line stroke="#0000ff" stroke-width="1" stroke-linecap="round" stroke-linejoin="round" x1="24.5" y1="648.5" x2="35.5" y2="648.5" />
    <line stroke="#0000ff" stroke-width="1" stroke-linecap="round" stroke-linejoin="round" x1="24.5" y1="589.5" x2="35.5" y2="589.5" />
    <line stroke="#0000ff" stroke-width="1" stroke-linecap="round" stroke-linejoin="round" x1="24.5" y1="530.5" x2="35.5" y2="530.5" />
    <line stroke="#0000ff" stroke-width="1" stroke-linecap="round" stroke-linejoin="round" x1="24.5" y1="472.5" x2="35.5" y2="472.5" />
    <line stroke="#0000ff" stroke-width="1" stroke-linecap="round" stroke-linejoin="round" x1="24.5" y1="413.5" x2="35.5" y2="413.5" />
    <line stroke="#0000ff" stroke-width="1" stroke-linecap="round" stroke-linejoin="round" x1="24.5" y1="354.5" x2="35.5" y2="354.5" />
    <line stroke="#0000ff" stroke-width="1" stroke-linecap="round" stroke-linejoin="round" x1="24.5" y1="295.5" x2="35.5" y2="295.5" />
    <line stroke="#0000ff" stroke-width="1" stroke-linecap="round" stroke-linejoin="round" x1="24.5" y1="236.5" x2="35.5" y2="236.5" />
    <line stroke="#0000ff" stroke-width="1" stroke-linecap="round" stroke-linejoin="round" x1="24.5" y1="177.5" x2="35.5" y2="177.5" />
    <line stroke="#0000ff" stroke-width="1" stroke-linecap="round" stroke-linejoin="round" x1="24.5" y1="118.5" x2="35.5" y2="118.5" />
    <line stroke="#0000ff" stroke-width="1" stroke-linecap="round" stroke-linejoin="round" x1="24.5" y1="59.5" x2="35.5" y2="59.5" />
  </g>
  <clipPath id="clippath2">
    <path d="M-1,-1 H1756 V942H-1 z M1705,-1 H1757 V31 H1705 z" clip-rule="evenodd" />
  </clipPath>
  <g clip-path="url(#clippath2)">
    <polyline stroke="#0000ff" stroke-width="1" stroke-linecap="round" stroke-linejoin="round" fill="none" points="30,884 31,884 32,884 33,884 34,884 35,884 36,884 37,884 38,884 39,884 40,884 41,884 42,884 43,884 44,884 45,884 46,884 47,884 48,884 49,884 50,884 51,884 52,884 53,884 54,884 55,884 56,884 57,884 58,884 59,884 60,884 61,884 62,884 63,884 64,884 65,884 66,884 67,884 68,884 69,884 70,884 71,884 72,884 73,884 74,884 75,884 76,884 77,884 78,884 79,884 80,884 81,884 82,884 83,884 84,884 85,884 86,884 87,884 88,884 89,884 90,884 91,884 92,884 93,884 94,884 95,884 96,884 97,884 98,884 99,884 100,884 101,884 102,884 103,884 104,884 105,884 106,884 107,884 108,884 109,884 110,884 111,884 112,884 113,884 114,884 115,884 116,884 117,884 118,884 119,884 120,884 121,885 122,885 123,885 124,885 125,885 126,885 127,885 128,885 129,885 130,885 131,885 132,885 133,885 134,885 135,885 136,885 137,885 138,885 139,885 140,885 141,885 142,885 143,885 144,885 145,885 146,885 147,885 148,885 149,885 150,885 151,885 152,885 153,885 154,885 155,885 156,885 157,885 158,885 159,885 160,885 161,885 162,885 163,885 164,885 165,885 166,885 167,885 168,885 169,885 170,885 171,885 172,885 173,885 174,885 175,885 176,885 177,885 178,885 179,885 180,885 181,885 182,885 183,885 184,885 185,885 186,885 187,885 188,885 189,885 190,885 191,885 192,885 193,885 194,885 195,885 196,885 197,885 198,885 199,885 200,885 201,885 202,885 203,885 204,885 205,885 206,885 207,885 208,885 209,885 210,885 211,885 212,885 213,885 214,885 215,885 216,885 217,885 218,885 219,885 220,885 221,885 222,885 223,885 224,885 225,885 226,885 227,885 228,885 229,885 230,885 231,885 232,885 233,885 234,885 235,885 236,885 237,885 238,885 239,885 240,885 241,885 242,885 243,885 244,885 245,885 246,885 247,885 248,885 249,885 250,885 251,885 252,885 253,885 254,885 255,885 256,885 257,885 258,885 259,885 260,885 261,884 262,884 263,884 264,884 265,884 266,884 267,884 268,884 269,884 270,884 271,884 272,884 273,884 274,884 275,884 276,884 277,884 278,884 279,884 280,884 281,884 282,884 283,884 284,884 285,884 286,884 287,884 288,884 289,884 290,884 291,884 292,884 293,884 294,884 295,884 296,884 297,884 298,884 299,884 300,884 301,884 302,884 303,884 304,884 305,884 306,884 307,884 308,884 309,884 310,884 311,884 312,884 313,884 314,884 315,884 316,884 317,884 318,884 319,884 320,884 321,884 322,884 323,884 324,884 325,884 326,884 327,884 328,884 329,884 330,884 331,884 332,884 333,884 334,884 335,884 336,884 337,884 338,884 339,884 340,884 341,884 342,884 343,884 344,884 345,884 346,884 347,884 348,884 349,884 350,884 351,884 352,884 353,884 354,884 355,883 356,883 357,883 358,883 359,883 360,883 361,883 362,883 363,883 364,883 365,883 366,883 367,883 368,883 369,883 370,883 371,883 372,883 373,883 374,883 375,883 376,883 377,883 378,883 379,883 380,883 381,883 382,883 383,883 384,883 385,883 386,883 387,883 388,883 389,883 390,883 391,883 392,883 393,883 394,883 395,883 396,883 397,883 398,883 399,883 400,883 401,883 402,883 403,883 404,883 405,883 406,883 407,883 408,883 409,883 410,883 411,883 412,883 413,883 414,883 415,883 416,883 417,883 418,883 419,883 420,883 421,883 422,883 423,883 424,883 425,883 426,883 427,883 428,883 429,883 430,883 431,883 432,883 433,883 434,883 435,883 436,883 437,883 438,883 439,883 440,883 441,883 442,883 443,883 444,883 445,883 446,883 447,883 448,883 449,883 450,883 451,883 452,883 453,883 454,883 455,883 456,883 457,883 458,883 459,883 460,883 461,883 462,883 463,883 464,883 465,883 466,883 467,884 468,884 469,884 470,884 471,884 472,884 473,884 474,884 475,884 476,884 477,884 478,884 479,884 480,884 481,884 482,884 483,884 484,884 485,884 486,884 487,884 488,884 489,884 490,884 491,884 492,884 493,884 494,884 495,884 496,885 497,885 498,885 499,885 500,885 501,885 502,885 503,885 504,885 505,885 506,885 507,885 508,885 509,885 510,885 511,885 512,885 513,885 514,885 515,885 516,885 517,885 518,885 519,885 520,886 521,886 522,886 523,886 524,886 525,886 526,886 527,886 528,886 529,886 530,886 531,886 532,886 533,886 534,886 535,886 536,886 537,886 538,886 539,886 540,886 541,886 542,886 543,886 544,886 545,886 546,886 547,886 548,886 549,886 550,886 551,886 552,886 553,886 554,886 555,886 556,886 557,886 558,886 559,886 560,886 561,886 562,886 563,886 564,886 565,886 566,886 567,886 568,886 569,886 570,886 571,886 572,886 573,886 574,886 575,886 576,886 577,886 578,886 579,886 580,886 581,886 582,886 583,886 584,886 585,886 586,886 587,885 588,885 589,885 590,885 591,885 592,885 593,885 594,885 595,885 596,885 597,885 598,885 599,885 600,884 601,884 602,884 603,884 604,884 605,884 606,884 607,884 608,884 609,883 610,883 611,883 612,883 613,883 614,883 615,883 616,882 617,882 618,882 619,882 620,882 621,882 622,881 623,881 624,881 625,881 626,881 627,881 628,880 629,880 630,880 631,880 632,880 633,880 634,879 635,879 636,879 637,879 638,879 639,878 640,878 641,878 642,878 643,877 644,877 645,877 646,877 647,877 648,876 649,876 650,876 651,876 652,875 653,875 654,875 655,875 656,874 657,874 658,874 659,874 660,873 661,873 662,873 663,873 664,872 665,872 666,872 667,872 668,871 669,871 670,871 671,871 672,870 673,870 674,870 675,870 676,869 677,869 678,869 679,868 680,868 681,868 682,868 683,867 684,867 685,867 686,866 687,866 688,866 689,866 690,865 691,865 692,865 693,864 694,864 695,864 696,864 697,863 698,863 699,863 700,862 701,862 702,862 703,861 704,861 705,861 706,861 707,860 708,860 709,860 710,859 711,859 712,859 713,858 714,858 715,858 716,857 717,857 718,857 719,857 720,856 721,856 722,856 723,855 724,855 725,855 726,854 727,854 728,854 729,853 730,853 731,853 732,852 733,852 734,852 735,852 736,851 737,851 738,851 739,850 740,850 741,850 742,849 743,849 744,849 745,848 746,848 747,848 748,848 749,847 750,847 751,847 752,846 753,846 754,846 755,845 756,845 757,845 758,844 759,844 760,844 761,844 762,843 763,843 764,843 765,842 766,842 767,842 768,841 769,841 770,841 771,841 772,840 773,840 774,840 775,839 776,839 777,839 778,839 779,838 780,838 781,838 782,837 783,837 784,837 785,837 786,836 787,836 788,836 789,836 790,835 791,835 792,835 793,834 794,834 795,834 796,834 797,833 798,833 799,833 800,833 801,832 802,832 803,832 804,832 805,831 806,831 807,831 808,831 809,830 810,830 811,830 812,830 813,830 814,829 815,829 816,829 817,829 818,828 819,828 820,828 821,828 822,828 823,827 824,827 825,827 826,827 827,827 828,826 829,826 830,826 831,826 832,826 833,825 834,825 835,825 836,825 837,825 838,825 839,824 840,824 841,824 842,824 843,824 844,824 845,823 846,823 847,823 848,823 849,823 850,823 851,823 852,822 853,822 854,822 855,822 856,822 857,822 858,822 859,822 860,822 861,821 862,821 863,821 864,821 865,821 866,821 867,821 868,821 869,821 870,821 871,821 872,821 873,820 874,820 875,820 876,820 877,820 878,820 879,820 880,820 881,820 882,820 883,820 884,820 885,820 886,820 887,820 888,820 889,820 890,820 891,820 892,820 893,820 894,820 895,820 896,820 897,820 898,820 899,820 900,820 901,820 902,820 903,820 904,820 905,820 906,821 907,821 908,821 909,821 910,821 911,821 912,821 913,821 914,821 915,821 916,821 917,821 918,822 919,822 920,822 921,822 922,822 923,822 924,822 925,822 926,823 927,823 928,823 929,823 930,823 931,823 932,823 933,824 934,824 935,824 936,824 937,824 938,824 939,824 940,825 941,825 942,825 943,825 944,825 945,826 946,826 947,826 948,826 949,826 950,827 951,827 952,827 953,827 954,827 955,828 956,828 957,828 958,828 959,828 960,829 961,829 962,829 963,829 964,830 965,830 966,830 967,830 968,830 969,831 970,831 971,831 972,831 973,832 974,832 975,832 976,832 977,833 978,833 979,833 980,833 981,834 982,834 983,834 984,835 985,835 986,835 987,835 988,836 989,836 990,836 991,836 992,837 993,837 994,837 995,838 996,838 997,838 998,838 999,839 1000,839 1001,839 1002,840 1003,840 1004,840 1005,840 1006,841 1007,841 1008,841 1009,842 1010,842 1011,842 1012,842 1013,843 1014,843 1015,843 1016,844 1017,844 1018,844 1019,845 1020,845 1021,845 1022,846 1023,846 1024,846 1025,846 1026,847 1027,847 1028,847 1029,848 1030,848 1031,848 1032,849 1033,849 1034,849 1035,850 1036,850 1037,850 1038,850 1039,851 1040,851 1041,851 1042,852 1043,852 1044,852 1045,853 1046,853 1047,853 1048,854 1049,854 1050,854 1051,855 1052,855 1053,855 1054,856 1055,856 1056,856 1057,856 1058,857 1059,857 1060,857 1061,858 1062,858 1063,858 1064,859 1065,859 1066,859 1067,860 1068,860 1069,860 1070,860 1071,861 1072,861 1073,861 1074,862 1075,862 1076,862 1077,863 1078,863 1079,863 1080,863 1081,864 1082,864 1083,864 1084,865 1085,865 1086,865 1087,866 1088,866 1089,866 1090,866 1091,867 1092,867 1093,867 1094,868 1095,868 1096,868 1097,868 1098,869 1099,869 1100,869 1101,869 1102,870 1103,870 1104,870 1105,871 1106,871 1107,871 1108,871 1109,872 1110,872 1111,872 1112,872 1113,873 1114,873 1115,873 1116,873 1117,874 1118,874 1119,874 1120,874 1121,875 1122,875 1123,875 1124,875 1125,876 1126,876 1127,876 1128,876 1129,876 1130,877 1131,877 1132,877 1133,877 1134,877 1135,878 1136,878 1137,878 1138,878 1139,879 1140,879 1141,879 1142,879 1143,879 1144,879 1145,880 1146,880 1147,880 1148,880 1149,880 1150,881 1151,881 1152,881 1153,881 1154,881 1155,881 1156,881 1157,882 1158,882 1159,882 1160,882 1161,882 1162,882 1163,882 1164,883 1165,883 1166,883 1167,883 1168,883 1169,883 1170,883 1171,883 1172,884 1173,884 1174,884 1175,884 1176,884 1177,884 1178,884 1179,884 1180,884 1181,884 1182,884 1183,884 1184,885 1185,885 1186,885 1187,885 1188,885 1189,885 1190,885 1191,885 1192,885 1193,885 1194,885 1195,885 1196,885 1197,885 1198,885 1199,885 1200,885 1201,885 1202,885 1203,885 1204,885 1205,885 1206,885 1207,885 1208,885 1209,885 1210,885 1211,885 1212,885 1213,885 1214,885 1215,885 1216,885 1217,885 1218,885 1219,885 1220,885 1221,885 1222,885 1223,885 1224,885 1225,885 1226,885 1227,885 1228,885 1229,885 1230,885 1231,885 1232,885 1233,885 1234,885 1235,885 1236,885 1237,885 1238,885 1239,885 1240,885 1241,885 1242,885 1243,885 1244,885 1245,884 1246,884 1247,884 1248,884 1249,884 1250,884 1251,884 1252,884 1253,884 1254,884 1255,884 1256,884 1257,884 1258,884 1259,884 1260,884 1261,884 1262,884 1263,884 1264,884 1265,884 1266,884 1267,884 1268,884 1269,884 1270,884 1271,884 1272,884 1273,884 1274,884 1275,884 1276,884 1277,884 1278,884 1279,884 1280,884 1281,884 1282,884 1283,884 1284,884 1285,884 1286,884 1287,884 1288,884 1289,884 1290,884 1291,884 1292,884 1293,884 1294,884 1295,884 1296,884 1297,884 1298,884 1299,884 1300,884 1301,884 1302,884 1303,884 1304,884 1305,884 1306,884 1307,884 1308,884 1309,884 1310,884 1311,884 1312,884 1313,884 1314,884 1315,884 1316,884 1317,884 1318,884 1319,884 1320,884 1321,884 1322,884 1323,884 1324,884 1325,884 1326,884 1327,884 1328,884 1329,884 1330,884 1331,884 1332,884 1333,884 1334,884 1335,884 1336,884 1337,884 1338,884 1339,884 1340,884 1341,884 1342,884 1343,884 1344,884 1345,884 1346,884 1347,884 1348,884 1349,884 1350,884 1351,884 1352,884 1353,884 1354,884 1355,884 1356,884 1357,884 1358,884 1359,884 1360,884 1361,884 1362,884 1363,884 1364,884 1365,884 1366,884 1367,884 1368,884 1369,884 1370,884 1371,884 1372,884 1373,884 1374,884 1375,884 1376,884 1377,884 1378,884 1379,884 1380,884 1381,884 1382,884 1383,884 1384,884 1385,884 1386,884 1387,884 1388,884 1389,884 1390,884 1391,884 1392,884 1393,884 1394,884 1395,884 1396,884 1397,884 1398,884 1399,884 1400,884 1401,884 1402,884 1403,884 1404,884 1405,884 1406,884 1407,884 1408,884 1409,884 1410,884 1411,884 1412,884 1413,884 1414,884 1415,884 1416,884 1417,884 1418,884 1419,884 1420,884 1421,884 1422,884 1423,884 1424,884 1425,884 1426,884 1427,884 1428,884 1429,884 1430,884 1431,884 1432,884 1433,884 1434,884 1435,884 1436,884 1437,884 1438,884 1439,884 1440,884 1441,884 1442,884 1443,884 1444,884 1445,884 1446,884 1447,884 1448,884 1449,884 1450,884 1451,884 1452,884 1453,884 1454,884 1455,884 1456,884 1457,884 1458,884 1459,884 1460,884 1461,884 1462,884 1463,884 1464,884 1465,884 1466,884 1467,884 1468,884 1469,884 1470,884 1471,884 1472,884 1473,884 1474,884 1475,884 1476,884 1477,884 1478,884 1479,884 1480,884 1481,884 1482,884 1483,884 1484,884 1485,884 1486,884 1487,884 1488,884 1489,884 1490,884 1491,884 1492,884 1493,884 1494,884 1495,884 1496,884 1497,884 1498,884 1499,884 1500,884 1501,884 1502,884 1503,884 1504,884 1505,884 1506,884 1507,884 1508,884 1509,884 1510,884 1511,884 1512,884 1513,884 1514,884 1515,884 1516,884 1517,884 1518,884 1519,884 1520,884 1521,884 1522,884 1523,884 1524,884 1525,884 1526,884 1527,884 1528,884 1529,884 1530,884 1531,884 1532,884 1533,884 1534,884 1535,884 1536,884 1537,884 1538,884 1539,884 1540,884 1541,884 1542,884 1543,884 1544,884 1545,884 1546,884 1547,884 1548,884 1549,884 1550,884 1551,884 1552,884 1553,884 1554,884 1555,884 1556,884 1557,884 1558,884 1559,884 1560,884 1561,884 1562,884 1563,884 1564,884 1565,884 1566,884 1567,884 1568,884 1569,884 1570,884 1571,884 1572,884 1573,884 1574,884 1575,884 1576,884 1577,884 1578,884 1579,884 1580,884 1581,884 1582,884 1583,884 1584,884 1585,884 1586,884 1587,884 1588,884 1589,884 1590,884 1591,884 1592,884 1593,884 1594,884 1595,884 1596,884 1597,884 1598,884 1599,884 1600,884 1601,884 1602,884 1603,884 1604,884 1605,884 1606,884 1607,884 1608,884 1609,884 1610,884 1611,884 1612,884 1613,884 1614,884 1615,884 1616,884 1617,884 1618,884 1619,884 1620,884 1621,884 1622,884 1623,884 1624,884 1625,884 1626,884 1627,884 1628,884 1629,884 1630,884 1631,884 1632,884 1633,884 1634,884 1635,884 1636,884 1637,884 1638,884 1639,884 1640,884 1641,884 1642,884 1643,884 1644,884 1645,884 1646,884 1647,884 1648,884 1649,884 1650,884 1651,884 1652,884 1653,884 1654,884 1655,884 1656,884 1657,884 1658,884 1659,884 1660,884 1661,884 1662,884 1663,884 1664,884 1665,884 1666,884 1667,884 1668,884 1669,884 1670,884 1671,884 1672,884 1673,884 1674,884 1675,884 1676,884 1677,884 1678,884 1679,884 1680,884 1681,884 1682,884 1683,884 1684,884 1685,884 1686,884 1687,884 1688,884 1689,884 1690,884 1691,884 1692,884 1693,884 1694,884 1695,884 1696,884 1697,884 1698,884 1699,884 1700,884 1701,884 1702,884 1703,884 1704,884 1705,884 1706,884 1707,884 1708,884 1709,884 1710,884 1711,884 1712,884 1713,884 1714,884 1715,884 1716,884 1717,884 1718,884 1719,884 1720,884 1721,884 1722,884 1723,884 1724,884 1725,884 1726,884 1727,884 1728,884 1729,884 1730,884 1731,884 1732,884 1733,884 1734,884 1735,884 1736,884 1737,884 1738,884 1739,884 1740,884 1741,884 1742,884 1743,884 1744,884 1745,884 1746,884 1747,884 1748,884 1749,884 1750,884 1751,884 " />
    <circle stroke="#000000" stroke-width="1" stroke-linecap="round" stroke-linejoin="round" fill="#ff0000" cx="30" cy="884" r="5" />
    <circle stroke="#000000" stroke-width="1" stroke-linecap="round" stroke-linejoin="round" fill="#ff0000" cx="317" cy="884" r="5" />
    <circle stroke="#000000" stroke-width="1" stroke-linecap="round" stroke-linejoin="round" fill="#ff0000" cx="604" cy="884" r="5" />
    <circle stroke="#000000" stroke-width="1" stroke-linecap="round" stroke-linejoin="round" fill="#ff0000" cx="891" cy="820" r="5" />
    <circle stroke="#000000" stroke-width="1" stroke-linecap="round" stroke-linejoin="round" fill="#ff0000" cx="1177" cy="884" r="5" />
    <circle stroke="#000000" stroke-width="1" stroke-linecap="round" stroke-linejoin="round" fill="#ff0000" cx="1464" cy="884" r="5" />
    <circle stroke="#000000" stroke-width="1" stroke-linecap="round" stroke-linejoin="round" fill="#ff0000" cx="1751" cy="884" r="5" />
    <circle stroke="#000000" stroke-width="1" stroke-linecap="round" stroke-linejoin="round" fill="#ff0000" cx="483" cy="884" r="5" />
    <circle stroke="#000000" stroke-width="1" stroke-linecap="round" stroke-linejoin="round" fill="#ff0000" cx="1338" cy="884" r="5" />
    <circle stroke="#000000" stroke-width="1" stroke-linecap="round" stroke-linejoin="round" fill="#ff0000" cx="1263" cy="884" r="5" />
  </g>
</svg>
