<?xml version="1.0" encoding="UTF-8"?>
<!DOCTYPE svg PUBLIC "-//W3C//DTD SVG 1.1//EN" "http://www.w3.org/Graphics/SVG/1.1/DTD/svg11.dtd">
<svg width="1756px" height="943px" viewBox="0 0 1756 943" version="1.1" xmlns="http://www.w3.org/2000/svg" xmlns:xlink="http://www.w3.org/1999/xlink">
  <g>
    <polyline stroke="#0000ff" stroke-width="1" stroke-linecap="round" stroke-linejoin="round" fill="none" points="1711,20 1751,20 " />
    <circle stroke="#000000" stroke-width="1" stroke-linecap="round" stroke-linejoin="round" fill="#ff0000" cx="1731" cy="20" r="5" />
    <text x="1711" y="16" font-family="Times New Roman" font-size="11" fill="#000000">Ряд 1</text>
    <rect stroke="#000000" stroke-width="1" stroke-linecap="round" stroke-linejoin="round" fill="none" x="1706.5" y="0.5" width="49" height="29" />
  </g>
  <clipPath id="clippath1">
    <path d="M-1,-1 H1756 V942H-1 z M1705,-1 H1757 V31 H1705 z" clip-rule="evenodd" />
  </clipPath>
  <g clip-path="url(#clippath1)">
    <text x="42" y="874" font-family="Times New Roman" font-size="13" fill="#000000">-5</text>
    <text x="199" y="874" font-family="Times New Roman" font-size="13" fill="#000000">5</text>
    <text x="274" y="874" font-family="Times New Roman" font-size="13" fill="#000000">10</text>
    <text x="351" y="874" font-family="Times New Roman" font-size="13" fill="#000000">15</text>
    <text x="429" y="874" font-family="Times New Roman" font-size="13" fill="#000000">20</text>
    <text x="507" y="874" font-family="Times New Roman" font-size="13" fill="#000000">25</text>
    <text x="585" y="874" font-family="Times New Roman" font-size="13" fill="#000000">30</text>
    <text x="662" y="874" font-family="Times New Roman" font-size="13" fill="#000000">35</text>
    <text x="740" y="874" font-family="Times New Roman" font-size="13" fill="#000000">40</text>
    <text x="818" y="874" font-family="Times New Roman" font-size="13" fill="#000000">45</text>
    <text x="895" y="874" font-family="Times New Roman" font-size="13" fill="#000000">50</text>
    <text x="973" y="874" font-family="Times New Roman" font-size="13" fill="#000000">55</text>
    <text x="1051" y="874" font-family="Times New Roman" font-size="13" fill="#000000">60</text>
    <text x="1128" y="874" font-family="Times New Roman" font-size="13" fill="#000000">65</text>
    <text x="1206" y="874" font-family="Times New Roman" font-size="13" fill="#000000">70</text>
    <text x="1284" y="874" font-family="Times New Roman" font-size="13" fill="#000000">75</text>
    <text x="1362" y="874" font-family="Times New Roman" font-size="13" fill="#000000">80</text>
    <text x="1439" y="874" font-family="Times New Roman" font-size="13" fill="#000000">85</text>
    <text x="1517" y="874" font-family="Times New Roman" font-size="13" fill="#000000">90</text>
    <text x="1595" y="874" font-family="Times New Roman" font-size="13" fill="#000000">95</text>
    <text x="1669" y="874" font-family="Times New Roman" font-size="13" fill="#000000">100</text>
    <text x="98" y="906" font-family="Times New Roman" font-size="13" fill="#000000">-0.1</text>
    <text x="102" y="820" font-family="Times New Roman" font-size="13" fill="#000000">0.1</text>
    <text x="102" y="778" font-family="Times New Roman" font-size="13" fill="#000000">0.2</text>
    <text x="102" y="735" font-family="Times New Roman" font-size="13" fill="#000000">0.3</text>
    <text x="102" y="692" font-family="Times New Roman" font-size="13" fill="#000000">0.4</text>
    <text x="102" y="649" font-family="Times New Roman" font-size="13" fill="#000000">0.5</text>
    <text x="102" y="606" font-family="Times New Roman" font-size="13" fill="#000000">0.6</text>
    <text x="102" y="563" font-family="Times New Roman" font-size="13" fill="#000000">0.7</text>
    <text x="102" y="520" font-family="Times New Roman" font-size="13" fill="#000000">0.8</text>
    <text x="102" y="478" font-family="Times New Roman" font-size="13" fill="#000000">0.9</text>
    <text x="111" y="435" font-family="Times New Roman" font-size="13" fill="#000000">1</text>
    <text x="102" y="392" font-family="Times New Roman" font-size="13" fill="#000000">1.1</text>
    <text x="102" y="349" font-family="Times New Roman" font-size="13" fill="#000000">1.2</text>
    <text x="102" y="306" font-family="Times New Roman" font-size="13" fill="#000000">1.3</text>
    <text x="102" y="263" font-family="Times New Roman" font-size="13" fill="#000000">1.4</text>
    <text x="102" y="220" font-family="Times New Roman" font-size="13" fill="#000000">1.5</text>
    <text x="102" y="177" font-family="Times New Roman" font-size="13" fill="#000000">1.6</text>
    <text x="102" y="135" font-family="Times New Roman" font-size="13" fill="#000000">1.7</text>
    <text x="102" y="92" font-family="Times New Roman" font-size="13" fill="#000000">1.8</text>
    <text x="102" y="49" font-family="Times New Roman" font-size="13" fill="#000000">1.9</text>
    <text x="1745" y="847" font-family="Times New Roman" font-size="16" font-weight="700" fill="#000000">n</text>
    <text x="136" y="13" font-family="Times New Roman" font-size="16" font-weight="700" fill="#000000">P</text>
    <line stroke="#0000ff" stroke-width="2" stroke-linecap="butt" stroke-linejoin="bevel" x1="0" y1="857" x2="1751" y2="857" />
    <polygon stroke="#0000ff" stroke-width="1" stroke-linecap="round" stroke-linejoin="round" fill="#0000ff" points="1750.5,851.5 1755.5,856.5 1755.5,857.5 1750.5,862.5 " />
    <line stroke="#0000ff" stroke-width="1" stroke-linecap="round" stroke-linejoin="round" x1="47.5" y1="862.5" x2="47.5" y2="851.5" />
    <line stroke="#0000ff" stroke-width="1" stroke-linecap="round" stroke-linejoin="round" x1="202.5" y1="862.5" x2="202.5" y2="851.5" />
    <line stroke="#0000ff" stroke-width="1" stroke-linecap="round" stroke-linejoin="round" x1="280.5" y1="862.5" x2="280.5" y2="851.5" />
    <line stroke="#0000ff" stroke-width="1" stroke-linecap="round" stroke-linejoin="round" x1="357.5" y1="862.5" x2="357.5" y2="851.5" />
    <line stroke="#0000ff" stroke-width="1" stroke-linecap="round" stroke-linejoin="round" x1="435.5" y1="862.5" x2="435.5" y2="851.5" />
    <line stroke="#0000ff" stroke-width="1" stroke-linecap="round" stroke-linejoin="round" x1="513.5" y1="862.5" x2="513.5" y2="851.5" />
    <line stroke="#0000ff" stroke-width="1" stroke-linecap="round" stroke-linejoin="round" x1="591.5" y1="862.5" x2="591.5" y2="851.5" />
    <line stroke="#0000ff" stroke-width="1" stroke-linecap="round" stroke-linejoin="round" x1="668.5" y1="862.5" x2="668.5" y2="851.5" />
    <line stroke="#0000ff" stroke-width="1" stroke-linecap="round" stroke-linejoin="round" x1="746.5" y1="862.5" x2="746.5" y2="851.5" />
    <line stroke="#0000ff" stroke-width="1" stroke-linecap="round" stroke-linejoin="round" x1="824.5" y1="862.5" x2="824.5" y2="851.5" />
    <line stroke="#0000ff" stroke-width="1" stroke-linecap="round" stroke-linejoin="round" x1="901.5" y1="862.5" x2="901.5" y2="851.5" />
    <line stroke="#0000ff" stroke-width="1" stroke-linecap="round" stroke-linejoin="round" x1="979.5" y1="862.5" x2="979.5" y2="851.5" />
    <line stroke="#0000ff" stroke-width="1" stroke-linecap="round" stroke-linejoin="round" x1="1057.5" y1="862.5" x2="1057.5" y2="851.5" />
    <line stroke="#0000ff" stroke-width="1" stroke-linecap="round" stroke-linejoin="round" x1="1134.5" y1="862.5" x2="1134.5" y2="851.5" />
    <line stroke="#0000ff" stroke-width="1" stroke-linecap="round" stroke-linejoin="round" x1="1212.5" y1="862.5" x2="1212.5" y2="851.5" />
    <line stroke="#0000ff" stroke-width="1" stroke-linecap="round" stroke-linejoin="round" x1="1290.5" y1="862.5" x2="1290.5" y2="851.5" />
    <line stroke="#0000ff" stroke-width="1" stroke-linecap="round" stroke-linejoin="round" x1="1368.5" y1="862.5" x2="1368.5" y2="851.5" />
    <line stroke="#0000ff" stroke-width="1" stroke-linecap="round" stroke-linejoin="round" x1="1445.5" y1="862.5" x2="1445.5" y2="851.5" />
    <line stroke="#0000ff" stroke-width="1" stroke-linecap="round" stroke-linejoin="round" x1="1523.5" y1="862.5" x2="1523.5" y2="851.5" />
    <line stroke="#0000ff" stroke-width="1" stroke-linecap="round" stroke-linejoin="round" x1="1601.5" y1="862.5" x2="1601.5" y2="851.5" />
    <line stroke="#0000ff" stroke-width="1" stroke-linecap="round" stroke-linejoin="round" x1="1678.5" y1="862.5" x2="1678.5" y2="851.5" />
    <line stroke="#0000ff" stroke-width="2" stroke-linecap="butt" stroke-linejoin="bevel" x1="124" y1="3" x2="124" y2="942" />
    <polygon stroke="#0000ff" stroke-width="1" stroke-linecap="round" stroke-linejoin="round" fill="#0000ff" points="118.5,5.5 123.5,0.5 124.5,0.5 129.5,5.5 " />
    <line stroke="#0000ff" stroke-width="1" stroke-linecap="round" stroke-linejoin="round" x1="118.5" y1="900.5" x2="129.5" y2="900.5" />
    <line stroke="#0000ff" stroke-width="1" stroke-linecap="round" stroke-linejoin="round" x1="118.5" y1="814.5" x2="129.5" y2="814.5" />
    <line stroke="#0000ff" stroke-width="1" stroke-linecap="round" stroke-linejoin="round" x1="118.5" y1="772.5" x2="129.5" y2="772.5" />
    <line stroke="#0000ff" stroke-width="1" stroke-linecap="round" stroke-linejoin="round" x1="118.5" y1="729.5" x2="129.5" y2="729.5" />
    <line stroke="#0000ff" stroke-width="1" stroke-linecap="round" stroke-linejoin="round" x1="118.5" y1="686.5" x2="129.5" y2="686.5" />
    <line stroke="#0000ff" stroke-width="1" stroke-linecap="round" stroke-linejoin="round" x1="118.5" y1="643.5" x2="129.5" y2="643.5" />
    <line stroke="#0000ff" stroke-width="1" stroke-linecap="round" stroke-linejoin="round" x1="118.5" y1="600.5" x2="129.5" y2="600.5" />
    <line stroke="#0000ff" stroke-width="1" stroke-linecap="round" stroke-linejoin="round" x1="118.5" y1="557.5" x2="129.5" y2="557.5" />
    <line stroke="#0000ff" stroke-width="1" stroke-linecap="round" stroke-linejoin="round" x1="118.5" y1="514.5" x2="129.5" y2="514.5" />
    <line stroke="#0000ff" stroke-width="1" stroke-linecap="round" stroke-linejoin="round" x1="118.5" y1="471.5" x2="129.5" y2="471.5" />
    <line stroke="#0000ff" stroke-width="1" stroke-linecap="round" stroke-linejoin="round" x1="118.5" y1="429.5" x2="129.5" y2="429.5" />
    <line stroke="#0000ff" stroke-width="1" stroke-linecap="round" stroke-linejoin="round" x1="118.5" y1="386.5" x2="129.5" y2="386.5" />
    <line stroke="#0000ff" stroke-width="1" stroke-linecap="round" stroke-linejoin="round" x1="118.5" y1="343.5" x2="129.5" y2="343.5" />
    <line stroke="#0000ff" stroke-width="1" stroke-linecap="round" stroke-linejoin="round" x1="118.5" y1="300.5" x2="129.5" y2="300.5" />
    <line stroke="#0000ff" stroke-width="1" stroke-linecap="round" stroke-linejoin="round" x1="118.5" y1="257.5" x2="129.5" y2="257.5" />
    <line stroke="#0000ff" stroke-width="1" stroke-linecap="round" stroke-linejoin="round" x1="118.5" y1="214.5" x2="129.5" y2="214.5" />
    <line stroke="#0000ff" stroke-width="1" stroke-linecap="round" stroke-linejoin="round" x1="118.5" y1="171.5" x2="129.5" y2="171.5" />
    <line stroke="#0000ff" stroke-width="1" stroke-linecap="round" stroke-linejoin="round" x1="118.5" y1="129.5" x2="129.5" y2="129.5" />
    <line stroke="#0000ff" stroke-width="1" stroke-linecap="round" stroke-linejoin="round" x1="118.5" y1="86.5" x2="129.5" y2="86.5" />
    <line stroke="#0000ff" stroke-width="1" stroke-linecap="round" stroke-linejoin="round" x1="118.5" y1="43.5" x2="129.5" y2="43.5" />
  </g>
  <clipPath id="clippath2">
    <path d="M-1,-1 H1756 V942H-1 z M1705,-1 H1757 V31 H1705 z" clip-rule="evenodd" />
  </clipPath>
  <g clip-path="url(#clippath2)">
    <polyline stroke="#0000ff" stroke-width="1" stroke-linecap="round" stroke-linejoin="round" fill="none" points="513,429 514,429 515,429 516,429 517,429 518,429 519,429 520,429 521,429 522,429 523,429 524,429 525,429 526,429 527,429 528,429 529,429 530,429 531,429 532,429 533,429 534,429 535,429 536,429 537,429 538,429 539,430 540,430 541,430 542,430 543,430 544,430 545,430 546,430 547,430 548,430 549,430 550,430 551,430 552,430 553,430 554,430 555,430 556,430 557,430 558,430 559,430 560,430 561,430 562,430 563,430 564,430 565,430 566,430 567,430 568,430 569,430 570,430 571,430 572,430 573,430 574,430 575,430 576,430 577,430 578,430 579,430 580,430 581,430 582,430 583,430 584,430 585,430 586,430 587,430 588,430 589,430 590,431 591,431 592,431 593,431 594,431 595,431 596,431 597,431 598,431 599,431 600,431 601,431 602,431 603,431 604,431 605,431 606,431 607,431 608,431 609,431 610,431 611,431 612,431 613,431 614,431 615,431 616,431 617,431 618,431 619,431 620,431 621,431 622,431 623,431 624,431 625,431 626,431 627,431 628,431 629,431 630,431 631,431 632,431 633,431 634,431 635,431 636,431 637,431 638,431 639,432 640,432 641,432 642,432 643,432 644,432 645,432 646,432 647,432 648,432 649,432 650,432 651,432 652,432 653,432 654,432 655,432 656,432 657,432 658,432 659,432 660,432 661,432 662,432 663,432 664,432 665,432 666,432 667,432 668,432 669,432 670,432 671,432 672,432 673,432 674,432 675,432 676,432 677,432 678,432 679,432 680,432 681,432 682,432 683,432 684,432 685,432 686,433 687,433 688,433 689,433 690,433 691,433 692,433 693,433 694,433 695,433 696,433 697,433 698,433 699,433 700,433 701,433 702,433 703,433 704,433 705,433 706,433 707,433 708,433 709,433 710,433 711,433 712,433 713,433 714,433 715,433 716,433 717,433 718,433 719,433 720,433 721,433 722,433 723,433 724,433 725,433 726,433 727,433 728,433 729,433 730,433 731,434 732,434 733,434 734,434 735,434 736,434 737,434 738,434 739,434 740,434 741,434 742,434 743,434 744,434 745,434 746,434 747,434 748,434 749,434 750,434 751,434 752,434 753,434 754,434 755,434 756,434 757,434 758,434 759,434 760,434 761,434 762,434 763,434 764,434 765,434 766,434 767,434 768,434 769,434 770,434 771,434 772,434 773,435 774,435 775,435 776,435 777,435 778,435 779,435 780,435 781,435 782,435 783,435 784,435 785,435 786,435 787,435 788,435 789,435 790,435 791,435 792,435 793,435 794,435 795,435 796,435 797,435 798,435 799,435 800,435 801,435 802,435 803,435 804,435 805,435 806,435 807,435 808,435 809,435 810,435 811,435 812,435 813,436 814,436 815,436 816,436 817,436 818,436 819,436 820,436 821,436 822,436 823,436 824,436 825,436 826,436 827,436 828,436 829,436 830,436 831,436 832,436 833,436 834,436 835,436 836,436 837,436 838,436 839,436 840,436 841,436 842,436 843,436 844,436 845,436 846,436 847,436 848,436 849,436 850,437 851,437 852,437 853,437 854,437 855,437 856,437 857,437 858,437 859,437 860,437 861,437 862,437 863,437 864,437 865,437 866,437 867,437 868,437 869,437 870,437 871,437 872,437 873,437 874,437 875,437 876,437 877,437 878,437 879,437 880,437 881,437 882,437 883,437 884,437 885,438 886,438 887,438 888,438 889,438 890,438 891,438 892,438 893,438 894,438 895,438 896,438 897,438 898,438 899,438 900,438 901,438 902,438 903,438 904,438 905,438 906,438 907,438 908,438 909,438 910,438 911,438 912,438 913,438 914,438 915,438 916,438 917,438 918,439 919,439 920,439 921,439 922,439 923,439 924,439 925,439 926,439 927,439 928,439 929,439 930,439 931,439 932,439 933,439 934,439 935,439 936,439 937,439 938,439 939,439 940,439 941,439 942,439 943,439 944,439 945,439 946,439 947,439 948,439 949,440 950,440 951,440 952,440 953,440 954,440 955,440 956,440 957,440 958,440 959,440 960,440 961,440 962,440 963,440 964,440 965,440 966,440 967,440 968,440 969,440 970,440 971,440 972,440 973,440 974,440 975,440 976,440 977,440 978,441 979,441 980,441 981,441 982,441 983,441 984,441 985,441 986,441 987,441 988,441 989,441 990,441 991,441 992,441 993,441 994,441 995,441 996,441 997,441 998,441 999,441 1000,441 1001,441 1002,441 1003,441 1004,441 1005,441 1006,441 1007,442 1008,442 1009,442 1010,442 1011,442 1012,442 1013,442 1014,442 1015,442 1016,442 1017,442 1018,442 1019,442 1020,442 1021,442 1022,442 1023,442 1024,442 1025,442 1026,442 1027,442 1028,442 1029,442 1030,442 1031,442 1032,442 1033,442 1034,443 1035,443 1036,443 1037,443 1038,443 1039,443 1040,443 1041,443 1042,443 1043,443 1044,443 1045,443 1046,443 1047,443 1048,443 1049,443 1050,443 1051,443 1052,443 1053,443 1054,443 1055,443 1056,443 1057,443 1058,443 1059,443 1060,444 1061,444 1062,444 1063,444 1064,444 1065,444 1066,444 1067,444 1068,444 1069,444 1070,444 1071,444 1072,444 1073,444 1074,444 1075,444 1076,444 1077,444 1078,444 1079,444 1080,444 1081,444 1082,444 1083,444 1084,444 1085,444 1086,445 1087,445 1088,445 1089,445 1090,445 1091,445 1092,445 1093,445 1094,445 1095,445 1096,445 1097,445 1098,445 1099,445 1100,445 1101,445 1102,445 1103,445 1104,445 1105,445 1106,445 1107,445 1108,445 1109,445 1110,445 1111,446 1112,446 1113,446 1114,446 1115,446 1116,446 1117,446 1118,446 1119,446 1120,446 1121,446 1122,446 1123,446 1124,446 1125,446 1126,446 1127,446 1128,446 1129,446 1130,446 1131,446 1132,446 1133,446 1134,446 1135,447 1136,447 1137,447 1138,447 1139,447 1140,447 1141,447 1142,447 1143,447 1144,447 1145,447 1146,447 1147,447 1148,447 1149,447 1150,447 1151,447 1152,447 1153,447 1154,447 1155,447 1156,447 1157,447 1158,447 1159,448 1160,448 1161,448 1162,448 1163,448 1164,448 1165,448 1166,448 1167,448 1168,448 1169,448 1170,448 1171,448 1172,448 1173,448 1174,448 1175,448 1176,448 1177,448 1178,448 1179,448 1180,448 1181,448 1182,449 1183,449 1184,449 1185,449 1186,449 1187,449 1188,449 1189,449 1190,449 1191,449 1192,449 1193,449 1194,449 1195,449 1196,449 1197,449 1198,449 1199,449 1200,449 1201,449 1202,449 1203,449 1204,449 1205,450 1206,450 1207,450 1208,450 1209,450 1210,450 1211,450 1212,450 1213,450 1214,450 1215,450 1216,450 1217,450 1218,450 1219,450 1220,450 1221,450 1222,450 1223,450 1224,450 1225,450 1226,450 1227,451 1228,451 1229,451 1230,451 1231,451 1232,451 1233,451 1234,451 1235,451 1236,451 1237,451 1238,451 1239,451 1240,451 1241,451 1242,451 1243,451 1244,451 1245,451 1246,451 1247,451 1248,451 1249,452 1250,452 1251,452 1252,452 1253,452 1254,452 1255,452 1256,452 1257,452 1258,452 1259,452 1260,452 1261,452 1262,452 1263,452 1264,452 1265,452 1266,452 1267,452 1268,452 1269,452 1270,452 1271,453 1272,453 1273,453 1274,453 1275,453 1276,453 1277,453 1278,453 1279,453 1280,453 1281,453 1282,453 1283,453 1284,453 1285,453 1286,453 1287,453 1288,453 1289,453 1290,453 1291,453 1292,453 1293,454 1294,454 1295,454 1296,454 1297,454 1298,454 1299,454 1300,454 1301,454 1302,454 1303,454 1304,454 1305,454 1306,454 1307,454 1308,454 1309,454 1310,454 1311,454 1312,454 1313,454 1314,455 1315,455 1316,455 1317,455 1318,455 1319,455 1320,455 1321,455 1322,455 1323,455 1324,455 1325,455 1326,455 1327,455 1328,455 1329,455 1330,455 1331,455 1332,455 1333,455 1334,455 1335,456 1336,456 1337,456 1338,456 1339,456 1340,456 1341,456 1342,456 1343,456 1344,456 1345,456 1346,456 1347,456 1348,456 1349,456 1350,456 1351,456 1352,456 1353,456 1354,456 1355,457 1356,457 1357,457 1358,457 1359,457 1360,457 1361,457 1362,457 1363,457 1364,457 1365,457 1366,457 1367,457 1368,457 1369,457 1370,457 1371,457 1372,457 1373,457 1374,457 1375,457 1376,458 1377,458 1378,458 1379,458 1380,458 1381,458 1382,458 1383,458 1384,458 1385,458 1386,458 1387,458 1388,458 1389,458 1390,458 1391,458 1392,458 1393,458 1394,458 1395,458 1396,459 1397,459 1398,459 1399,459 1400,459 1401,459 1402,459 1403,459 1404,459 1405,459 1406,459 1407,459 1408,459 1409,459 1410,459 1411,459 1412,459 1413,459 1414,459 1415,459 1416,460 1417,460 1418,460 1419,460 1420,460 1421,460 1422,460 1423,460 1424,460 1425,460 1426,460 1427,460 1428,460 1429,460 1430,460 1431,460 1432,460 1433,460 1434,460 1435,460 1436,461 1437,461 1438,461 1439,461 1440,461 1441,461 1442,461 1443,461 1444,461 1445,461 1446,461 1447,461 1448,461 1449,461 1450,461 1451,461 1452,461 1453,461 1454,461 1455,461 1456,462 1457,462 1458,462 1459,462 1460,462 1461,462 1462,462 1463,462 1464,462 1465,462 1466,462 1467,462 1468,462 1469,462 1470,462 1471,462 1472,462 1473,462 1474,462 1475,462 1476,463 1477,463 1478,463 1479,463 1480,463 1481,463 1482,463 1483,463 1484,463 1485,463 1486,463 1487,463 1488,463 1489,463 1490,463 1491,463 1492,463 1493,463 1494,463 1495,463 1496,464 1497,464 1498,464 1499,464 1500,464 1501,464 1502,464 1503,464 1504,464 1505,464 1506,464 1507,464 1508,464 1509,464 1510,464 1511,464 1512,464 1513,464 1514,464 1515,465 1516,465 1517,465 1518,465 1519,465 1520,465 1521,465 1522,465 1523,465 1524,465 1525,465 1526,465 1527,465 1528,465 1529,465 1530,465 1531,465 1532,465 1533,465 1534,466 1535,466 1536,466 1537,466 1538,466 1539,466 1540,466 1541,466 1542,466 1543,466 1544,466 1545,466 1546,466 1547,466 1548,466 1549,466 1550,466 1551,466 1552,466 1553,466 1554,467 1555,467 1556,467 1557,467 1558,467 1559,467 1560,467 1561,467 1562,467 1563,467 1564,467 1565,467 1566,467 1567,467 1568,467 1569,467 1570,467 1571,467 1572,467 1573,468 1574,468 1575,468 1576,468 1577,468 1578,468 1579,468 1580,468 1581,468 1582,468 1583,468 1584,468 1585,468 1586,468 1587,468 1588,468 1589,468 1590,468 1591,468 1592,469 1593,469 1594,469 1595,469 1596,469 1597,469 1598,469 1599,469 1600,469 1601,469 1602,469 1603,469 1604,469 1605,469 1606,469 1607,469 1608,469 1609,469 1610,469 1611,469 1612,470 1613,470 1614,470 1615,470 1616,470 1617,470 1618,470 1619,470 1620,470 1621,470 1622,470 1623,470 1624,470 1625,470 1626,470 1627,470 1628,470 1629,470 1630,470 1631,471 1632,471 1633,471 1634,471 1635,471 1636,471 1637,471 1638,471 1639,471 1640,471 1641,471 1642,471 1643,471 1644,471 1645,471 1646,471 1647,471 1648,471 1649,471 1650,472 1651,472 1652,472 1653,472 1654,472 1655,472 1656,472 1657,472 1658,472 1659,472 1660,472 1661,472 1662,472 1663,472 1664,472 1665,472 1666,472 1667,472 1668,472 1669,473 1670,473 1671,473 1672,473 1673,473 1674,473 1675,473 1676,473 1677,473 1678,473 " />
    <circle stroke="#000000" stroke-width="1" stroke-linecap="round" stroke-linejoin="round" fill="#ff0000" cx="513" cy="429" r="5" />
    <circle stroke="#000000" stroke-width="1" stroke-linecap="round" stroke-linejoin="round" fill="#ff0000" cx="901" cy="438" r="5" />
    <circle stroke="#000000" stroke-width="1" stroke-linecap="round" stroke-linejoin="round" fill="#ff0000" cx="1678" cy="473" r="5" />
  </g>
</svg>
