<?xml version="1.0" encoding="UTF-8"?>
<!DOCTYPE svg PUBLIC "-//W3C//DTD SVG 1.1//EN" "http://www.w3.org/Graphics/SVG/1.1/DTD/svg11.dtd">
<svg width="1756px" height="943px" viewBox="0 0 1756 943" version="1.1" xmlns="http://www.w3.org/2000/svg" xmlns:xlink="http://www.w3.org/1999/xlink">
  <g>
    <polyline stroke="#0000ff" stroke-width="1" stroke-linecap="round" stroke-linejoin="round" fill="none" points="1711,20 1751,20 " />
    <circle stroke="#000000" stroke-width="1" stroke-linecap="round" stroke-linejoin="round" fill="#ff0000" cx="1731" cy="20" r="5" />
    <text x="1711" y="16" font-family="Times New Roman" font-size="11" fill="#000000">Ряд 1</text>
    <rect stroke="#000000" stroke-width="1" stroke-linecap="round" stroke-linejoin="round" fill="none" x="1706.5" y="0.5" width="49" height="29" />
  </g>
  <clipPath id="clippath1">
    <path d="M-1,-1 H1756 V942H-1 z M1705,-1 H1757 V31 H1705 z" clip-rule="evenodd" />
  </clipPath>
  <g clip-path="url(#clippath1)">
    <text x="79" y="915" font-family="Times New Roman" font-size="13" fill="#000000">5</text>
    <text x="127" y="915" font-family="Times New Roman" font-size="13" fill="#000000">10</text>
    <text x="178" y="915" font-family="Times New Roman" font-size="13" fill="#000000">15</text>
    <text x="229" y="915" font-family="Times New Roman" font-size="13" fill="#000000">20</text>
    <text x="280" y="915" font-family="Times New Roman" font-size="13" fill="#000000">25</text>
    <text x="331" y="915" font-family="Times New Roman" font-size="13" fill="#000000">30</text>
    <text x="382" y="915" font-family="Times New Roman" font-size="13" fill="#000000">35</text>
    <text x="433" y="915" font-family="Times New Roman" font-size="13" fill="#000000">40</text>
    <text x="484" y="915" font-family="Times New Roman" font-size="13" fill="#000000">45</text>
    <text x="535" y="915" font-family="Times New Roman" font-size="13" fill="#000000">50</text>
    <text x="586" y="915" font-family="Times New Roman" font-size="13" fill="#000000">55</text>
    <text x="637" y="915" font-family="Times New Roman" font-size="13" fill="#000000">60</text>
    <text x="688" y="915" font-family="Times New Roman" font-size="13" fill="#000000">65</text>
    <text x="739" y="915" font-family="Times New Roman" font-size="13" fill="#000000">70</text>
    <text x="790" y="915" font-family="Times New Roman" font-size="13" fill="#000000">75</text>
    <text x="841" y="915" font-family="Times New Roman" font-size="13" fill="#000000">80</text>
    <text x="892" y="915" font-family="Times New Roman" font-size="13" fill="#000000">85</text>
    <text x="943" y="915" font-family="Times New Roman" font-size="13" fill="#000000">90</text>
    <text x="995" y="915" font-family="Times New Roman" font-size="13" fill="#000000">95</text>
    <text x="1043" y="915" font-family="Times New Roman" font-size="13" fill="#000000">100</text>
    <text x="1094" y="915" font-family="Times New Roman" font-size="13" fill="#000000">105</text>
    <text x="1145" y="915" font-family="Times New Roman" font-size="13" fill="#000000">110</text>
    <text x="1196" y="915" font-family="Times New Roman" font-size="13" fill="#000000">115</text>
    <text x="1247" y="915" font-family="Times New Roman" font-size="13" fill="#000000">120</text>
    <text x="1298" y="915" font-family="Times New Roman" font-size="13" fill="#000000">125</text>
    <text x="1349" y="915" font-family="Times New Roman" font-size="13" fill="#000000">130</text>
    <text x="1400" y="915" font-family="Times New Roman" font-size="13" fill="#000000">135</text>
    <text x="1451" y="915" font-family="Times New Roman" font-size="13" fill="#000000">140</text>
    <text x="1502" y="915" font-family="Times New Roman" font-size="13" fill="#000000">145</text>
    <text x="1553" y="915" font-family="Times New Roman" font-size="13" fill="#000000">150</text>
    <text x="1604" y="915" font-family="Times New Roman" font-size="13" fill="#000000">155</text>
    <text x="1655" y="915" font-family="Times New Roman" font-size="13" fill="#000000">160</text>
    <text x="1706" y="915" font-family="Times New Roman" font-size="13" fill="#000000">165</text>
    <text x="3" y="859" font-family="Times New Roman" font-size="13" fill="#000000">0.05</text>
    <text x="9" y="814" font-family="Times New Roman" font-size="13" fill="#000000">0.1</text>
    <text x="3" y="769" font-family="Times New Roman" font-size="13" fill="#000000">0.15</text>
    <text x="9" y="724" font-family="Times New Roman" font-size="13" fill="#000000">0.2</text>
    <text x="3" y="680" font-family="Times New Roman" font-size="13" fill="#000000">0.25</text>
    <text x="9" y="635" font-family="Times New Roman" font-size="13" fill="#000000">0.3</text>
    <text x="3" y="590" font-family="Times New Roman" font-size="13" fill="#000000">0.35</text>
    <text x="9" y="545" font-family="Times New Roman" font-size="13" fill="#000000">0.4</text>
    <text x="3" y="500" font-family="Times New Roman" font-size="13" fill="#000000">0.45</text>
    <text x="9" y="455" font-family="Times New Roman" font-size="13" fill="#000000">0.5</text>
    <text x="3" y="410" font-family="Times New Roman" font-size="13" fill="#000000">0.55</text>
    <text x="9" y="365" font-family="Times New Roman" font-size="13" fill="#000000">0.6</text>
    <text x="3" y="320" font-family="Times New Roman" font-size="13" fill="#000000">0.65</text>
    <text x="9" y="275" font-family="Times New Roman" font-size="13" fill="#000000">0.7</text>
    <text x="3" y="231" font-family="Times New Roman" font-size="13" fill="#000000">0.75</text>
    <text x="9" y="186" font-family="Times New Roman" font-size="13" fill="#000000">0.8</text>
    <text x="3" y="141" font-family="Times New Roman" font-size="13" fill="#000000">0.85</text>
    <text x="9" y="96" font-family="Times New Roman" font-size="13" fill="#000000">0.9</text>
    <text x="3" y="51" font-family="Times New Roman" font-size="13" fill="#000000">0.95</text>
    <text x="1744" y="888" font-family="Times New Roman" font-size="16" font-weight="700" fill="#000000">k</text>
    <text x="43" y="13" font-family="Times New Roman" font-size="16" font-weight="700" fill="#000000">P(k)</text>
    <line stroke="#0000ff" stroke-width="2" stroke-linecap="butt" stroke-linejoin="bevel" x1="0" y1="898" x2="1751" y2="898" />
    <polygon stroke="#0000ff" stroke-width="1" stroke-linecap="round" stroke-linejoin="round" fill="#0000ff" points="1750.5,892.5 1755.5,897.5 1755.5,898.5 1750.5,903.5 " />
    <line stroke="#0000ff" stroke-width="1" stroke-linecap="round" stroke-linejoin="round" x1="82.5" y1="903.5" x2="82.5" y2="892.5" />
    <line stroke="#0000ff" stroke-width="1" stroke-linecap="round" stroke-linejoin="round" x1="133.5" y1="903.5" x2="133.5" y2="892.5" />
    <line stroke="#0000ff" stroke-width="1" stroke-linecap="round" stroke-linejoin="round" x1="184.5" y1="903.5" x2="184.5" y2="892.5" />
    <line stroke="#0000ff" stroke-width="1" stroke-linecap="round" stroke-linejoin="round" x1="235.5" y1="903.5" x2="235.5" y2="892.5" />
    <line stroke="#0000ff" stroke-width="1" stroke-linecap="round" stroke-linejoin="round" x1="286.5" y1="903.5" x2="286.5" y2="892.5" />
    <line stroke="#0000ff" stroke-width="1" stroke-linecap="round" stroke-linejoin="round" x1="337.5" y1="903.5" x2="337.5" y2="892.5" />
    <line stroke="#0000ff" stroke-width="1" stroke-linecap="round" stroke-linejoin="round" x1="388.5" y1="903.5" x2="388.5" y2="892.5" />
    <line stroke="#0000ff" stroke-width="1" stroke-linecap="round" stroke-linejoin="round" x1="439.5" y1="903.5" x2="439.5" y2="892.5" />
    <line stroke="#0000ff" stroke-width="1" stroke-linecap="round" stroke-linejoin="round" x1="490.5" y1="903.5" x2="490.5" y2="892.5" />
    <line stroke="#0000ff" stroke-width="1" stroke-linecap="round" stroke-linejoin="round" x1="541.5" y1="903.5" x2="541.5" y2="892.5" />
    <line stroke="#0000ff" stroke-width="1" stroke-linecap="round" stroke-linejoin="round" x1="592.5" y1="903.5" x2="592.5" y2="892.5" />
    <line stroke="#0000ff" stroke-width="1" stroke-linecap="round" stroke-linejoin="round" x1="643.5" y1="903.5" x2="643.5" y2="892.5" />
    <line stroke="#0000ff" stroke-width="1" stroke-linecap="round" stroke-linejoin="round" x1="694.5" y1="903.5" x2="694.5" y2="892.5" />
    <line stroke="#0000ff" stroke-width="1" stroke-linecap="round" stroke-linejoin="round" x1="745.5" y1="903.5" x2="745.5" y2="892.5" />
    <line stroke="#0000ff" stroke-width="1" stroke-linecap="round" stroke-linejoin="round" x1="796.5" y1="903.5" x2="796.5" y2="892.5" />
    <line stroke="#0000ff" stroke-width="1" stroke-linecap="round" stroke-linejoin="round" x1="847.5" y1="903.5" x2="847.5" y2="892.5" />
    <line stroke="#0000ff" stroke-width="1" stroke-linecap="round" stroke-linejoin="round" x1="898.5" y1="903.5" x2="898.5" y2="892.5" />
    <line stroke="#0000ff" stroke-width="1" stroke-linecap="round" stroke-linejoin="round" x1="949.5" y1="903.5" x2="949.5" y2="892.5" />
    <line stroke="#0000ff" stroke-width="1" stroke-linecap="round" stroke-linejoin="round" x1="1001.5" y1="903.5" x2="1001.5" y2="892.5" />
    <line stroke="#0000ff" stroke-width="1" stroke-linecap="round" stroke-linejoin="round" x1="1052.5" y1="903.5" x2="1052.5" y2="892.5" />
    <line stroke="#0000ff" stroke-width="1" stroke-linecap="round" stroke-linejoin="round" x1="1103.5" y1="903.5" x2="1103.5" y2="892.5" />
    <line stroke="#0000ff" stroke-width="1" stroke-linecap="round" stroke-linejoin="round" x1="1154.5" y1="903.5" x2="1154.5" y2="892.5" />
    <line stroke="#0000ff" stroke-width="1" stroke-linecap="round" stroke-linejoin="round" x1="1205.5" y1="903.5" x2="1205.5" y2="892.5" />
    <line stroke="#0000ff" stroke-width="1" stroke-linecap="round" stroke-linejoin="round" x1="1256.5" y1="903.5" x2="1256.5" y2="892.5" />
    <line stroke="#0000ff" stroke-width="1" stroke-linecap="round" stroke-linejoin="round" x1="1307.5" y1="903.5" x2="1307.5" y2="892.5" />
    <line stroke="#0000ff" stroke-width="1" stroke-linecap="round" stroke-linejoin="round" x1="1358.5" y1="903.5" x2="1358.5" y2="892.5" />
    <line stroke="#0000ff" stroke-width="1" stroke-linecap="round" stroke-linejoin="round" x1="1409.5" y1="903.5" x2="1409.5" y2="892.5" />
    <line stroke="#0000ff" stroke-width="1" stroke-linecap="round" stroke-linejoin="round" x1="1460.5" y1="903.5" x2="1460.5" y2="892.5" />
    <line stroke="#0000ff" stroke-width="1" stroke-linecap="round" stroke-linejoin="round" x1="1511.5" y1="903.5" x2="1511.5" y2="892.5" />
    <line stroke="#0000ff" stroke-width="1" stroke-linecap="round" stroke-linejoin="round" x1="1562.5" y1="903.5" x2="1562.5" y2="892.5" />
    <line stroke="#0000ff" stroke-width="1" stroke-linecap="round" stroke-linejoin="round" x1="1613.5" y1="903.5" x2="1613.5" y2="892.5" />
    <line stroke="#0000ff" stroke-width="1" stroke-linecap="round" stroke-linejoin="round" x1="1664.5" y1="903.5" x2="1664.5" y2="892.5" />
    <line stroke="#0000ff" stroke-width="1" stroke-linecap="round" stroke-linejoin="round" x1="1715.5" y1="903.5" x2="1715.5" y2="892.5" />
    <line stroke="#0000ff" stroke-width="2" stroke-linecap="butt" stroke-linejoin="bevel" x1="31" y1="3" x2="31" y2="942" />
    <polygon stroke="#0000ff" stroke-width="1" stroke-linecap="round" stroke-linejoin="round" fill="#0000ff" points="25.5,5.5 30.5,0.5 31.5,0.5 36.5,5.5 " />
    <line stroke="#0000ff" stroke-width="1" stroke-linecap="round" stroke-linejoin="round" x1="25.5" y1="853.5" x2="36.5" y2="853.5" />
    <line stroke="#0000ff" stroke-width="1" stroke-linecap="round" stroke-linejoin="round" x1="25.5" y1="808.5" x2="36.5" y2="808.5" />
    <line stroke="#0000ff" stroke-width="1" stroke-linecap="round" stroke-linejoin="round" x1="25.5" y1="763.5" x2="36.5" y2="763.5" />
    <line stroke="#0000ff" stroke-width="1" stroke-linecap="round" stroke-linejoin="round" x1="25.5" y1="718.5" x2="36.5" y2="718.5" />
    <line stroke="#0000ff" stroke-width="1" stroke-linecap="round" stroke-linejoin="round" x1="25.5" y1="674.5" x2="36.5" y2="674.5" />
    <line stroke="#0000ff" stroke-width="1" stroke-linecap="round" stroke-linejoin="round" x1="25.5" y1="629.5" x2="36.5" y2="629.5" />
    <line stroke="#0000ff" stroke-width="1" stroke-linecap="round" stroke-linejoin="round" x1="25.5" y1="584.5" x2="36.5" y2="584.5" />
    <line stroke="#0000ff" stroke-width="1" stroke-linecap="round" stroke-linejoin="round" x1="25.5" y1="539.5" x2="36.5" y2="539.5" />
    <line stroke="#0000ff" stroke-width="1" stroke-linecap="round" stroke-linejoin="round" x1="25.5" y1="494.5" x2="36.5" y2="494.5" />
    <line stroke="#0000ff" stroke-width="1" stroke-linecap="round" stroke-linejoin="round" x1="25.5" y1="449.5" x2="36.5" y2="449.5" />
    <line stroke="#0000ff" stroke-width="1" stroke-linecap="round" stroke-linejoin="round" x1="25.5" y1="404.5" x2="36.5" y2="404.5" />
    <line stroke="#0000ff" stroke-width="1" stroke-linecap="round" stroke-linejoin="round" x1="25.5" y1="359.5" x2="36.5" y2="359.5" />
    <line stroke="#0000ff" stroke-width="1" stroke-linecap="round" stroke-linejoin="round" x1="25.5" y1="314.5" x2="36.5" y2="314.5" />
    <line stroke="#0000ff" stroke-width="1" stroke-linecap="round" stroke-linejoin="round" x1="25.5" y1="269.5" x2="36.5" y2="269.5" />
    <line stroke="#0000ff" stroke-width="1" stroke-linecap="round" stroke-linejoin="round" x1="25.5" y1="225.5" x2="36.5" y2="225.5" />
    <line stroke="#0000ff" stroke-width="1" stroke-linecap="round" stroke-linejoin="round" x1="25.5" y1="180.5" x2="36.5" y2="180.5" />
    <line stroke="#0000ff" stroke-width="1" stroke-linecap="round" stroke-linejoin="round" x1="25.5" y1="135.5" x2="36.5" y2="135.5" />
    <line stroke="#0000ff" stroke-width="1" stroke-linecap="round" stroke-linejoin="round" x1="25.5" y1="90.5" x2="36.5" y2="90.5" />
    <line stroke="#0000ff" stroke-width="1" stroke-linecap="round" stroke-linejoin="round" x1="25.5" y1="45.5" x2="36.5" y2="45.5" />
  </g>
  <clipPath id="clippath2">
    <path d="M-1,-1 H1756 V942H-1 z M1705,-1 H1757 V31 H1705 z" clip-rule="evenodd" />
  </clipPath>
  <g clip-path="url(#clippath2)">
    <polyline stroke="#0000ff" stroke-width="1" stroke-linecap="round" stroke-linejoin="round" fill="none" points="31,898 32,898 33,898 34,898 35,898 36,898 37,898 38,898 39,898 40,898 41,898 42,898 43,898 44,898 45,898 46,898 47,898 48,898 49,898 50,898 51,898 52,898 53,898 54,898 55,898 56,898 57,898 58,898 59,898 60,898 61,898 62,898 63,898 64,898 65,898 66,898 67,898 68,898 69,898 70,898 71,898 72,898 73,898 74,898 75,898 76,898 77,898 78,898 79,898 80,898 81,898 82,898 83,898 84,898 85,898 86,898 87,898 88,898 89,898 90,898 91,898 92,898 93,898 94,898 95,898 96,898 97,898 98,898 99,898 100,898 101,898 102,898 103,898 104,898 105,898 106,898 107,898 108,898 109,898 110,898 111,898 112,898 113,898 114,898 115,898 116,898 117,898 118,898 119,898 120,898 121,898 122,898 123,898 124,898 125,898 126,898 127,898 128,898 129,898 130,898 131,898 132,898 133,898 134,898 135,898 136,898 137,898 138,898 139,898 140,898 141,898 142,898 143,898 144,898 145,898 146,898 147,898 148,898 149,898 150,898 151,898 152,898 153,898 154,898 155,898 156,898 157,898 158,898 159,898 160,898 161,898 162,898 163,898 164,898 165,898 166,898 167,898 168,898 169,898 170,898 171,898 172,898 173,898 174,898 175,898 176,898 177,898 178,898 179,898 180,898 181,898 182,898 183,898 184,898 185,898 186,898 187,898 188,898 189,898 190,898 191,898 192,898 193,898 194,898 195,898 196,898 197,898 198,898 199,898 200,898 201,898 202,898 203,898 204,898 205,898 206,898 207,898 208,898 209,898 210,898 211,898 212,898 213,898 214,898 215,898 216,898 217,898 218,898 219,898 220,898 221,898 222,898 223,898 224,898 225,898 226,898 227,898 228,898 229,898 230,898 231,898 232,898 233,898 234,898 235,898 236,898 237,898 238,898 239,898 240,898 241,898 242,898 243,898 244,898 245,898 246,898 247,898 248,898 249,898 250,898 251,898 252,898 253,898 254,898 255,898 256,898 257,898 258,898 259,898 260,898 261,898 262,898 263,898 264,898 265,898 266,898 267,898 268,898 269,898 270,898 271,898 272,898 273,898 274,898 275,898 276,898 277,898 278,898 279,898 280,898 281,898 282,898 283,898 284,898 285,898 286,898 287,898 288,898 289,898 290,898 291,898 292,898 293,898 294,898 295,898 296,898 297,898 298,898 299,898 300,898 301,898 302,898 303,898 304,898 305,898 306,898 307,898 308,898 309,898 310,898 311,898 312,898 313,898 314,898 315,898 316,898 317,898 318,898 319,898 320,898 321,898 322,898 323,898 324,898 325,898 326,898 327,898 328,898 329,898 330,898 331,898 332,898 333,898 334,898 335,898 336,898 337,898 338,898 339,898 340,898 341,898 342,898 343,898 344,898 345,898 346,898 347,898 348,898 349,898 350,898 351,898 352,898 353,898 354,898 355,898 356,898 357,898 358,898 359,898 360,898 361,898 362,898 363,898 364,898 365,898 366,898 367,898 368,898 369,898 370,898 371,898 372,898 373,898 374,898 375,898 376,898 377,898 378,898 379,898 380,898 381,898 382,898 383,898 384,898 385,898 386,898 387,898 388,898 389,898 390,898 391,898 392,898 393,898 394,898 395,898 396,898 397,898 398,898 399,898 400,898 401,898 402,898 403,898 404,898 405,898 406,898 407,898 408,898 409,898 410,898 411,898 412,898 413,898 414,898 415,898 416,898 417,898 418,898 419,898 420,898 421,898 422,898 423,898 424,898 425,898 426,898 427,898 428,898 429,898 430,898 431,898 432,898 433,898 434,898 435,898 436,898 437,898 438,898 439,898 440,898 441,898 442,898 443,898 444,898 445,898 446,898 447,898 448,898 449,898 450,898 451,898 452,898 453,898 454,898 455,898 456,898 457,898 458,899 459,899 460,899 461,899 462,899 463,899 464,899 465,899 466,899 467,899 468,899 469,899 470,899 471,899 472,899 473,899 474,899 475,899 476,899 477,899 478,899 479,899 480,899 481,899 482,899 483,899 484,899 485,899 486,899 487,899 488,899 489,899 490,900 491,900 492,900 493,900 494,900 495,900 496,900 497,900 498,900 499,900 500,900 501,900 502,900 503,900 504,900 505,900 506,900 507,900 508,900 509,900 510,900 511,900 512,900 513,900 514,900 515,900 516,900 517,900 518,900 519,900 520,900 521,900 522,900 523,900 524,900 525,900 526,900 527,900 528,900 529,900 530,900 531,900 532,900 533,900 534,900 535,900 536,900 537,900 538,900 539,900 540,900 541,900 542,900 543,900 544,900 545,900 546,900 547,900 548,900 549,900 550,900 551,900 552,900 553,900 554,900 555,900 556,900 557,900 558,900 559,900 560,900 561,900 562,900 563,900 564,900 565,900 566,900 567,900 568,900 569,900 570,900 571,900 572,900 573,900 574,900 575,900 576,900 577,900 578,900 579,900 580,900 581,900 582,899 583,899 584,899 585,899 586,899 587,899 588,899 589,899 590,899 591,899 592,899 593,899 594,899 595,899 596,899 597,898 598,898 599,898 600,898 601,898 602,898 603,898 604,898 605,898 606,898 607,898 608,897 609,897 610,897 611,897 612,897 613,897 614,897 615,897 616,897 617,896 618,896 619,896 620,896 621,896 622,896 623,896 624,896 625,895 626,895 627,895 628,895 629,895 630,895 631,895 632,894 633,894 634,894 635,894 636,894 637,894 638,894 639,893 640,893 641,893 642,893 643,893 644,893 645,892 646,892 647,892 648,892 649,892 650,892 651,891 652,891 653,891 654,891 655,891 656,891 657,890 658,890 659,890 660,890 661,890 662,890 663,889 664,889 665,889 666,889 667,889 668,888 669,888 670,888 671,888 672,888 673,888 674,887 675,887 676,887 677,887 678,887 679,886 680,886 681,886 682,886 683,886 684,885 685,885 686,885 687,885 688,885 689,884 690,884 691,884 692,884 693,884 694,883 695,883 696,883 697,883 698,883 699,882 700,882 701,882 702,882 703,881 704,881 705,881 706,881 707,881 708,880 709,880 710,880 711,880 712,880 713,879 714,879 715,879 716,879 717,879 718,878 719,878 720,878 721,878 722,877 723,877 724,877 725,877 726,877 727,876 728,876 729,876 730,876 731,876 732,875 733,875 734,875 735,875 736,875 737,874 738,874 739,874 740,874 741,873 742,873 743,873 744,873 745,873 746,872 747,872 748,872 749,872 750,872 751,871 752,871 753,871 754,871 755,871 756,870 757,870 758,870 759,870 760,870 761,869 762,869 763,869 764,869 765,869 766,868 767,868 768,868 769,868 770,868 771,867 772,867 773,867 774,867 775,867 776,866 777,866 778,866 779,866 780,866 781,865 782,865 783,865 784,865 785,865 786,865 787,864 788,864 789,864 790,864 791,864 792,863 793,863 794,863 795,863 796,863 797,863 798,862 799,862 800,862 801,862 802,862 803,862 804,861 805,861 806,861 807,861 808,861 809,861 810,861 811,860 812,860 813,860 814,860 815,860 816,860 817,859 818,859 819,859 820,859 821,859 822,859 823,859 824,859 825,858 826,858 827,858 828,858 829,858 830,858 831,858 832,858 833,857 834,857 835,857 836,857 837,857 838,857 839,857 840,857 841,857 842,856 843,856 844,856 845,856 846,856 847,856 848,856 849,856 850,856 851,856 852,855 853,855 854,855 855,855 856,855 857,855 858,855 859,855 860,855 861,855 862,855 863,855 864,855 865,855 866,855 867,854 868,854 869,854 870,854 871,854 872,854 873,854 874,854 875,854 876,854 877,854 878,854 879,854 880,854 881,854 882,854 883,854 884,854 885,854 886,854 887,854 888,854 889,854 890,854 891,854 892,854 893,854 894,854 895,854 896,854 897,854 898,854 899,854 900,854 901,854 902,854 903,854 904,854 905,854 906,854 907,855 908,855 909,855 910,855 911,855 912,855 913,855 914,855 915,855 916,855 917,855 918,855 919,855 920,855 921,855 922,855 923,856 924,856 925,856 926,856 927,856 928,856 929,856 930,856 931,856 932,856 933,857 934,857 935,857 936,857 937,857 938,857 939,857 940,857 941,857 942,858 943,858 944,858 945,858 946,858 947,858 948,858 949,858 950,859 951,859 952,859 953,859 954,859 955,859 956,859 957,860 958,860 959,860 960,860 961,860 962,860 963,860 964,861 965,861 966,861 967,861 968,861 969,861 970,862 971,862 972,862 973,862 974,862 975,862 976,863 977,863 978,863 979,863 980,863 981,863 982,864 983,864 984,864 985,864 986,864 987,864 988,865 989,865 990,865 991,865 992,865 993,866 994,866 995,866 996,866 997,866 998,867 999,867 1000,867 1001,867 1002,867 1003,867 1004,868 1005,868 1006,868 1007,868 1008,868 1009,869 1010,869 1011,869 1012,869 1013,869 1014,870 1015,870 1016,870 1017,870 1018,871 1019,871 1020,871 1021,871 1022,871 1023,872 1024,872 1025,872 1026,872 1027,872 1028,873 1029,873 1030,873 1031,873 1032,873 1033,874 1034,874 1035,874 1036,874 1037,874 1038,875 1039,875 1040,875 1041,875 1042,876 1043,876 1044,876 1045,876 1046,876 1047,877 1048,877 1049,877 1050,877 1051,877 1052,878 1053,878 1054,878 1055,878 1056,878 1057,879 1058,879 1059,879 1060,879 1061,880 1062,880 1063,880 1064,880 1065,880 1066,881 1067,881 1068,881 1069,881 1070,881 1071,882 1072,882 1073,882 1074,882 1075,882 1076,883 1077,883 1078,883 1079,883 1080,883 1081,884 1082,884 1083,884 1084,884 1085,885 1086,885 1087,885 1088,885 1089,885 1090,885 1091,886 1092,886 1093,886 1094,886 1095,886 1096,887 1097,887 1098,887 1099,887 1100,887 1101,888 1102,888 1103,888 1104,888 1105,888 1106,889 1107,889 1108,889 1109,889 1110,889 1111,889 1112,890 1113,890 1114,890 1115,890 1116,890 1117,891 1118,891 1119,891 1120,891 1121,891 1122,891 1123,892 1124,892 1125,892 1126,892 1127,892 1128,892 1129,893 1130,893 1131,893 1132,893 1133,893 1134,893 1135,893 1136,894 1137,894 1138,894 1139,894 1140,894 1141,894 1142,894 1143,895 1144,895 1145,895 1146,895 1147,895 1148,895 1149,895 1150,895 1151,896 1152,896 1153,896 1154,896 1155,896 1156,896 1157,896 1158,896 1159,897 1160,897 1161,897 1162,897 1163,897 1164,897 1165,897 1166,897 1167,897 1168,897 1169,898 1170,898 1171,898 1172,898 1173,898 1174,898 1175,898 1176,898 1177,898 1178,898 1179,898 1180,898 1181,899 1182,899 1183,899 1184,899 1185,899 1186,899 1187,899 1188,899 1189,899 1190,899 1191,899 1192,899 1193,899 1194,899 1195,899 1196,899 1197,899 1198,899 1199,899 1200,899 1201,899 1202,900 1203,900 1204,900 1205,900 1206,900 1207,900 1208,900 1209,900 1210,900 1211,900 1212,900 1213,900 1214,900 1215,900 1216,900 1217,900 1218,900 1219,900 1220,900 1221,900 1222,900 1223,900 1224,900 1225,900 1226,900 1227,900 1228,900 1229,900 1230,900 1231,900 1232,900 1233,900 1234,900 1235,900 1236,900 1237,900 1238,900 1239,900 1240,900 1241,900 1242,900 1243,900 1244,900 1245,900 1246,900 1247,900 1248,900 1249,900 1250,900 1251,900 1252,900 1253,900 1254,899 1255,899 1256,899 1257,899 1258,899 1259,899 1260,899 1261,899 1262,899 1263,899 1264,899 1265,899 1266,899 1267,899 1268,899 1269,899 1270,899 1271,899 1272,899 1273,899 1274,899 1275,899 1276,899 1277,899 1278,899 1279,899 1280,899 1281,899 1282,899 1283,899 1284,899 1285,899 1286,899 1287,899 1288,899 1289,898 1290,898 1291,898 1292,898 1293,898 1294,898 1295,898 1296,898 1297,898 1298,898 1299,898 1300,898 1301,898 1302,898 1303,898 1304,898 1305,898 1306,898 1307,898 1308,898 1309,898 1310,898 1311,898 1312,898 1313,898 1314,898 1315,898 1316,898 1317,898 1318,898 1319,898 1320,898 1321,898 1322,898 1323,898 1324,898 1325,898 1326,898 1327,898 1328,898 1329,898 1330,898 1331,898 1332,898 1333,898 1334,898 1335,898 1336,898 1337,898 1338,897 1339,897 1340,897 1341,897 1342,897 1343,897 1344,897 1345,897 1346,897 1347,897 1348,897 1349,897 1350,897 1351,897 1352,897 1353,897 1354,897 1355,897 1356,897 1357,897 1358,897 1359,897 1360,897 1361,897 1362,897 1363,897 1364,897 1365,897 1366,897 1367,897 1368,897 1369,897 1370,897 1371,897 1372,897 1373,897 1374,897 1375,897 1376,897 1377,897 1378,897 1379,897 1380,897 1381,897 1382,897 1383,897 1384,897 1385,897 1386,897 1387,897 1388,897 1389,897 1390,897 1391,897 1392,897 1393,897 1394,897 1395,897 1396,897 1397,897 1398,897 1399,897 1400,897 1401,897 1402,897 1403,897 1404,898 1405,898 1406,898 1407,898 1408,898 1409,898 1410,898 1411,898 1412,898 1413,898 1414,898 1415,898 1416,898 1417,898 1418,898 1419,898 1420,898 1421,898 1422,898 1423,898 1424,898 1425,898 1426,898 1427,898 1428,898 1429,898 1430,898 1431,898 1432,898 1433,898 1434,898 1435,898 1436,898 1437,898 1438,898 1439,898 1440,898 1441,898 1442,898 1443,898 1444,898 1445,898 1446,898 1447,898 1448,898 1449,898 1450,898 1451,898 1452,898 1453,898 1454,898 1455,898 1456,898 1457,898 1458,898 1459,898 1460,898 1461,898 1462,898 1463,898 1464,898 1465,898 1466,898 1467,898 1468,898 1469,898 1470,898 1471,898 1472,898 1473,898 1474,898 1475,898 1476,898 1477,898 1478,898 1479,898 1480,898 1481,898 1482,898 1483,898 1484,898 1485,898 1486,898 1487,898 1488,898 1489,898 1490,898 1491,898 1492,898 1493,898 1494,898 1495,898 1496,898 1497,898 1498,898 1499,898 1500,898 1501,898 1502,898 1503,898 1504,898 1505,898 1506,898 1507,898 1508,898 1509,898 1510,898 1511,898 1512,898 1513,898 1514,898 1515,898 1516,898 1517,898 1518,898 1519,898 1520,898 1521,898 1522,898 1523,898 1524,898 1525,898 1526,898 1527,898 1528,898 1529,898 1530,898 1531,898 1532,898 1533,898 1534,898 1535,898 1536,898 1537,898 1538,898 1539,898 1540,898 1541,898 1542,898 1543,898 1544,898 1545,898 1546,898 1547,898 1548,898 1549,898 1550,898 1551,898 1552,898 1553,898 1554,898 1555,898 1556,898 1557,898 1558,898 1559,898 1560,898 1561,898 1562,898 1563,898 1564,898 1565,898 1566,898 1567,898 1568,898 1569,898 1570,898 1571,898 1572,898 1573,898 1574,898 1575,898 1576,898 1577,898 1578,898 1579,898 1580,898 1581,898 1582,898 1583,898 1584,898 1585,898 1586,898 1587,898 1588,898 1589,898 1590,898 1591,898 1592,898 1593,898 1594,898 1595,898 1596,898 1597,898 1598,898 1599,898 1600,898 1601,898 1602,898 1603,898 1604,898 1605,898 1606,898 1607,898 1608,898 1609,898 1610,898 1611,898 1612,898 1613,898 1614,898 1615,898 1616,898 1617,898 1618,898 1619,898 1620,898 1621,898 1622,898 1623,898 1624,898 1625,898 1626,898 1627,898 1628,898 1629,898 1630,898 1631,898 1632,898 1633,898 1634,898 1635,898 1636,898 1637,898 1638,898 1639,898 1640,898 1641,898 1642,898 1643,898 1644,898 1645,898 1646,898 1647,898 1648,898 1649,898 1650,898 1651,898 1652,898 1653,898 1654,898 1655,898 1656,898 1657,898 1658,898 1659,898 1660,898 1661,898 1662,898 1663,898 1664,898 1665,898 1666,898 1667,898 1668,898 1669,898 1670,898 1671,898 1672,898 1673,898 1674,898 1675,898 1676,898 1677,898 1678,898 1679,898 1680,898 1681,898 1682,898 1683,898 1684,898 1685,898 1686,898 1687,898 1688,898 1689,898 1690,898 1691,898 1692,898 1693,898 1694,898 1695,898 1696,898 1697,898 1698,898 1699,898 1700,898 1701,898 1702,898 1703,898 1704,898 1705,898 1706,898 1707,898 1708,898 1709,898 1710,898 1711,898 1712,898 1713,898 1714,898 1715,898 1716,898 1717,898 1718,898 1719,898 1720,898 1721,898 1722,898 1723,898 1724,898 1725,898 1726,898 1727,898 1728,898 1729,898 1730,898 1731,898 1732,898 1733,898 1734,898 1735,898 1736,898 1737,898 1738,898 1739,898 1740,898 1741,898 1742,898 1743,898 1744,898 1745,898 1746,898 " />
    <circle stroke="#000000" stroke-width="1" stroke-linecap="round" stroke-linejoin="round" fill="#ff0000" cx="31" cy="898" r="5" />
    <circle stroke="#000000" stroke-width="1" stroke-linecap="round" stroke-linejoin="round" fill="#ff0000" cx="316" cy="898" r="5" />
    <circle stroke="#000000" stroke-width="1" stroke-linecap="round" stroke-linejoin="round" fill="#ff0000" cx="602" cy="898" r="5" />
    <circle stroke="#000000" stroke-width="1" stroke-linecap="round" stroke-linejoin="round" fill="#ff0000" cx="888" cy="854" r="5" />
    <circle stroke="#000000" stroke-width="1" stroke-linecap="round" stroke-linejoin="round" fill="#ff0000" cx="1174" cy="898" r="5" />
    <circle stroke="#000000" stroke-width="1" stroke-linecap="round" stroke-linejoin="round" fill="#ff0000" cx="1460" cy="898" r="5" />
    <circle stroke="#000000" stroke-width="1" stroke-linecap="round" stroke-linejoin="round" fill="#ff0000" cx="1746" cy="898" r="5" />
    <circle stroke="#000000" stroke-width="1" stroke-linecap="round" stroke-linejoin="round" fill="#ff0000" cx="439" cy="898" r="5" />
    <circle stroke="#000000" stroke-width="1" stroke-linecap="round" stroke-linejoin="round" fill="#ff0000" cx="1307" cy="898" r="5" />
  </g>
</svg>
