<?xml version="1.0" encoding="UTF-8"?>
<!DOCTYPE svg PUBLIC "-//W3C//DTD SVG 1.1//EN" "http://www.w3.org/Graphics/SVG/1.1/DTD/svg11.dtd">
<svg width="1756px" height="943px" viewBox="0 0 1756 943" version="1.1" xmlns="http://www.w3.org/2000/svg" xmlns:xlink="http://www.w3.org/1999/xlink">
  <g>
    <line stroke="#000000" stroke-width="1" stroke-linecap="round" stroke-linejoin="round" x1="1652.5" y1="20.5" x2="1750.5" y2="20.5" />
    <text x="1652" y="16" font-family="Times New Roman" font-size="11" fill="#000000">f(x)=0</text>
    <line stroke="#000000" stroke-width="1" stroke-linecap="round" stroke-linejoin="round" x1="1652.5" y1="40.5" x2="1750.5" y2="40.5" />
    <text x="1652" y="36" font-family="Times New Roman" font-size="11" fill="#000000">f(x)=0.00000000775</text>
    <line stroke="#000000" stroke-width="1" stroke-linecap="round" stroke-linejoin="round" x1="1652.5" y1="60.5" x2="1750.5" y2="60.5" />
    <text x="1652" y="56" font-family="Times New Roman" font-size="11" fill="#000000">f(x)=0.00009132</text>
    <line stroke="#000000" stroke-width="1" stroke-linecap="round" stroke-linejoin="round" x1="1652.5" y1="80.5" x2="1750.5" y2="80.5" />
    <text x="1652" y="76" font-family="Times New Roman" font-size="11" fill="#000000">f(x)=0.001792</text>
    <line stroke="#000000" stroke-width="1" stroke-linecap="round" stroke-linejoin="round" x1="1652.5" y1="100.5" x2="1750.5" y2="100.5" />
    <text x="1652" y="96" font-family="Times New Roman" font-size="11" fill="#000000">f(x)=0.0171</text>
    <line stroke="#000000" stroke-width="1" stroke-linecap="round" stroke-linejoin="round" x1="1652.5" y1="120.5" x2="1750.5" y2="120.5" />
    <text x="1652" y="116" font-family="Times New Roman" font-size="11" fill="#000000">f(x)=0.08996</text>
    <line stroke="#000000" stroke-width="1" stroke-linecap="round" stroke-linejoin="round" x1="1652.5" y1="140.5" x2="1750.5" y2="140.5" />
    <text x="1652" y="136" font-family="Times New Roman" font-size="11" fill="#000000">f(x)=0.2843</text>
    <line stroke="#000000" stroke-width="1" stroke-linecap="round" stroke-linejoin="round" x1="1652.5" y1="160.5" x2="1750.5" y2="160.5" />
    <text x="1652" y="156" font-family="Times New Roman" font-size="11" fill="#000000">f(x)=0.5817</text>
    <line stroke="#000000" stroke-width="1" stroke-linecap="round" stroke-linejoin="round" x1="1652.5" y1="180.5" x2="1750.5" y2="180.5" />
    <text x="1652" y="176" font-family="Times New Roman" font-size="11" fill="#000000">f(x)=0.8419</text>
    <line stroke="#000000" stroke-width="1" stroke-linecap="round" stroke-linejoin="round" x1="1652.5" y1="200.5" x2="1750.5" y2="200.5" />
    <text x="1652" y="196" font-family="Times New Roman" font-size="11" fill="#000000">f(x)=0.9672</text>
    <line stroke="#000000" stroke-width="1" stroke-linecap="round" stroke-linejoin="round" x1="1652.5" y1="220.5" x2="1750.5" y2="220.5" />
    <text x="1652" y="216" font-family="Times New Roman" font-size="11" fill="#000000">f(x)=0.9973</text>
    <line stroke="#000000" stroke-width="1" stroke-linecap="round" stroke-linejoin="round" x1="1652.5" y1="240.5" x2="1750.5" y2="240.5" />
    <text x="1652" y="236" font-family="Times New Roman" font-size="11" fill="#000000">f(x)=1</text>
    <rect stroke="#000000" stroke-width="1" stroke-linecap="round" stroke-linejoin="round" fill="none" x="1647.5" y="0.5" width="108" height="249" />
  </g>
  <clipPath id="clippath1">
    <path d="M-1,-1 H1756 V942H-1 z M1646,-1 H1757 V251 H1646 z" clip-rule="evenodd" />
  </clipPath>
  <g clip-path="url(#clippath1)">
    <text x="114" y="901" font-family="Times New Roman" font-size="13" fill="#000000">0.5</text>
    <text x="179" y="901" font-family="Times New Roman" font-size="13" fill="#000000">1</text>
    <text x="235" y="901" font-family="Times New Roman" font-size="13" fill="#000000">1.5</text>
    <text x="300" y="901" font-family="Times New Roman" font-size="13" fill="#000000">2</text>
    <text x="356" y="901" font-family="Times New Roman" font-size="13" fill="#000000">2.5</text>
    <text x="421" y="901" font-family="Times New Roman" font-size="13" fill="#000000">3</text>
    <text x="477" y="901" font-family="Times New Roman" font-size="13" fill="#000000">3.5</text>
    <text x="542" y="901" font-family="Times New Roman" font-size="13" fill="#000000">4</text>
    <text x="599" y="901" font-family="Times New Roman" font-size="13" fill="#000000">4.5</text>
    <text x="663" y="901" font-family="Times New Roman" font-size="13" fill="#000000">5</text>
    <text x="720" y="901" font-family="Times New Roman" font-size="13" fill="#000000">5.5</text>
    <text x="784" y="901" font-family="Times New Roman" font-size="13" fill="#000000">6</text>
    <text x="841" y="901" font-family="Times New Roman" font-size="13" fill="#000000">6.5</text>
    <text x="905" y="901" font-family="Times New Roman" font-size="13" fill="#000000">7</text>
    <text x="962" y="901" font-family="Times New Roman" font-size="13" fill="#000000">7.5</text>
    <text x="1026" y="901" font-family="Times New Roman" font-size="13" fill="#000000">8</text>
    <text x="1083" y="901" font-family="Times New Roman" font-size="13" fill="#000000">8.5</text>
    <text x="1147" y="901" font-family="Times New Roman" font-size="13" fill="#000000">9</text>
    <text x="1204" y="901" font-family="Times New Roman" font-size="13" fill="#000000">9.5</text>
    <text x="1266" y="901" font-family="Times New Roman" font-size="13" fill="#000000">10</text>
    <text x="1322" y="901" font-family="Times New Roman" font-size="13" fill="#000000">10.5</text>
    <text x="1387" y="901" font-family="Times New Roman" font-size="13" fill="#000000">11</text>
    <text x="1443" y="901" font-family="Times New Roman" font-size="13" fill="#000000">11.5</text>
    <text x="1508" y="901" font-family="Times New Roman" font-size="13" fill="#000000">12</text>
    <text x="1564" y="901" font-family="Times New Roman" font-size="13" fill="#000000">12.5</text>
    <text x="1629" y="901" font-family="Times New Roman" font-size="13" fill="#000000">13</text>
    <text x="1685" y="901" font-family="Times New Roman" font-size="13" fill="#000000">13.5</text>
    <text x="39" y="831" font-family="Times New Roman" font-size="13" fill="#000000">0.1</text>
    <text x="39" y="772" font-family="Times New Roman" font-size="13" fill="#000000">0.2</text>
    <text x="39" y="713" font-family="Times New Roman" font-size="13" fill="#000000">0.3</text>
    <text x="39" y="654" font-family="Times New Roman" font-size="13" fill="#000000">0.4</text>
    <text x="39" y="595" font-family="Times New Roman" font-size="13" fill="#000000">0.5</text>
    <text x="39" y="536" font-family="Times New Roman" font-size="13" fill="#000000">0.6</text>
    <text x="39" y="478" font-family="Times New Roman" font-size="13" fill="#000000">0.7</text>
    <text x="39" y="419" font-family="Times New Roman" font-size="13" fill="#000000">0.8</text>
    <text x="39" y="360" font-family="Times New Roman" font-size="13" fill="#000000">0.9</text>
    <text x="48" y="301" font-family="Times New Roman" font-size="13" fill="#000000">1</text>
    <text x="39" y="242" font-family="Times New Roman" font-size="13" fill="#000000">1.1</text>
    <text x="39" y="183" font-family="Times New Roman" font-size="13" fill="#000000">1.2</text>
    <text x="39" y="124" font-family="Times New Roman" font-size="13" fill="#000000">1.3</text>
    <text x="39" y="65" font-family="Times New Roman" font-size="13" fill="#000000">1.4</text>
    <text x="1745" y="874" font-family="Times New Roman" font-size="16" font-weight="700" fill="#000000">x</text>
    <text x="73" y="13" font-family="Times New Roman" font-size="16" font-weight="700" fill="#000000">P</text>
    <line stroke="#0000ff" stroke-width="2" stroke-linecap="butt" stroke-linejoin="bevel" x1="0" y1="884" x2="1751" y2="884" />
    <polygon stroke="#0000ff" stroke-width="1" stroke-linecap="round" stroke-linejoin="round" fill="#0000ff" points="1750.5,878.5 1755.5,883.5 1755.5,884.5 1750.5,889.5 " />
    <line stroke="#0000ff" stroke-width="1" stroke-linecap="round" stroke-linejoin="round" x1="121.5" y1="889.5" x2="121.5" y2="878.5" />
    <line stroke="#0000ff" stroke-width="1" stroke-linecap="round" stroke-linejoin="round" x1="182.5" y1="889.5" x2="182.5" y2="878.5" />
    <line stroke="#0000ff" stroke-width="1" stroke-linecap="round" stroke-linejoin="round" x1="242.5" y1="889.5" x2="242.5" y2="878.5" />
    <line stroke="#0000ff" stroke-width="1" stroke-linecap="round" stroke-linejoin="round" x1="303.5" y1="889.5" x2="303.5" y2="878.5" />
    <line stroke="#0000ff" stroke-width="1" stroke-linecap="round" stroke-linejoin="round" x1="363.5" y1="889.5" x2="363.5" y2="878.5" />
    <line stroke="#0000ff" stroke-width="1" stroke-linecap="round" stroke-linejoin="round" x1="424.5" y1="889.5" x2="424.5" y2="878.5" />
    <line stroke="#0000ff" stroke-width="1" stroke-linecap="round" stroke-linejoin="round" x1="484.5" y1="889.5" x2="484.5" y2="878.5" />
    <line stroke="#0000ff" stroke-width="1" stroke-linecap="round" stroke-linejoin="round" x1="545.5" y1="889.5" x2="545.5" y2="878.5" />
    <line stroke="#0000ff" stroke-width="1" stroke-linecap="round" stroke-linejoin="round" x1="606.5" y1="889.5" x2="606.5" y2="878.5" />
    <line stroke="#0000ff" stroke-width="1" stroke-linecap="round" stroke-linejoin="round" x1="666.5" y1="889.5" x2="666.5" y2="878.5" />
    <line stroke="#0000ff" stroke-width="1" stroke-linecap="round" stroke-linejoin="round" x1="727.5" y1="889.5" x2="727.5" y2="878.5" />
    <line stroke="#0000ff" stroke-width="1" stroke-linecap="round" stroke-linejoin="round" x1="787.5" y1="889.5" x2="787.5" y2="878.5" />
    <line stroke="#0000ff" stroke-width="1" stroke-linecap="round" stroke-linejoin="round" x1="848.5" y1="889.5" x2="848.5" y2="878.5" />
    <line stroke="#0000ff" stroke-width="1" stroke-linecap="round" stroke-linejoin="round" x1="908.5" y1="889.5" x2="908.5" y2="878.5" />
    <line stroke="#0000ff" stroke-width="1" stroke-linecap="round" stroke-linejoin="round" x1="969.5" y1="889.5" x2="969.5" y2="878.5" />
    <line stroke="#0000ff" stroke-width="1" stroke-linecap="round" stroke-linejoin="round" x1="1029.5" y1="889.5" x2="1029.5" y2="878.5" />
    <line stroke="#0000ff" stroke-width="1" stroke-linecap="round" stroke-linejoin="round" x1="1090.5" y1="889.5" x2="1090.5" y2="878.5" />
    <line stroke="#0000ff" stroke-width="1" stroke-linecap="round" stroke-linejoin="round" x1="1150.5" y1="889.5" x2="1150.5" y2="878.5" />
    <line stroke="#0000ff" stroke-width="1" stroke-linecap="round" stroke-linejoin="round" x1="1211.5" y1="889.5" x2="1211.5" y2="878.5" />
    <line stroke="#0000ff" stroke-width="1" stroke-linecap="round" stroke-linejoin="round" x1="1272.5" y1="889.5" x2="1272.5" y2="878.5" />
    <line stroke="#0000ff" stroke-width="1" stroke-linecap="round" stroke-linejoin="round" x1="1332.5" y1="889.5" x2="1332.5" y2="878.5" />
    <line stroke="#0000ff" stroke-width="1" stroke-linecap="round" stroke-linejoin="round" x1="1393.5" y1="889.5" x2="1393.5" y2="878.5" />
    <line stroke="#0000ff" stroke-width="1" stroke-linecap="round" stroke-linejoin="round" x1="1453.5" y1="889.5" x2="1453.5" y2="878.5" />
    <line stroke="#0000ff" stroke-width="1" stroke-linecap="round" stroke-linejoin="round" x1="1514.5" y1="889.5" x2="1514.5" y2="878.5" />
    <line stroke="#0000ff" stroke-width="1" stroke-linecap="round" stroke-linejoin="round" x1="1574.5" y1="889.5" x2="1574.5" y2="878.5" />
    <line stroke="#0000ff" stroke-width="1" stroke-linecap="round" stroke-linejoin="round" x1="1635.5" y1="889.5" x2="1635.5" y2="878.5" />
    <line stroke="#0000ff" stroke-width="1" stroke-linecap="round" stroke-linejoin="round" x1="1695.5" y1="889.5" x2="1695.5" y2="878.5" />
    <line stroke="#0000ff" stroke-width="2" stroke-linecap="butt" stroke-linejoin="bevel" x1="61" y1="3" x2="61" y2="942" />
    <polygon stroke="#0000ff" stroke-width="1" stroke-linecap="round" stroke-linejoin="round" fill="#0000ff" points="55.5,5.5 60.5,0.5 61.5,0.5 66.5,5.5 " />
    <line stroke="#0000ff" stroke-width="1" stroke-linecap="round" stroke-linejoin="round" x1="55.5" y1="825.5" x2="66.5" y2="825.5" />
    <line stroke="#0000ff" stroke-width="1" stroke-linecap="round" stroke-linejoin="round" x1="55.5" y1="766.5" x2="66.5" y2="766.5" />
    <line stroke="#0000ff" stroke-width="1" stroke-linecap="round" stroke-linejoin="round" x1="55.5" y1="707.5" x2="66.5" y2="707.5" />
    <line stroke="#0000ff" stroke-width="1" stroke-linecap="round" stroke-linejoin="round" x1="55.5" y1="648.5" x2="66.5" y2="648.5" />
    <line stroke="#0000ff" stroke-width="1" stroke-linecap="round" stroke-linejoin="round" x1="55.5" y1="589.5" x2="66.5" y2="589.5" />
    <line stroke="#0000ff" stroke-width="1" stroke-linecap="round" stroke-linejoin="round" x1="55.5" y1="530.5" x2="66.5" y2="530.5" />
    <line stroke="#0000ff" stroke-width="1" stroke-linecap="round" stroke-linejoin="round" x1="55.5" y1="472.5" x2="66.5" y2="472.5" />
    <line stroke="#0000ff" stroke-width="1" stroke-linecap="round" stroke-linejoin="round" x1="55.5" y1="413.5" x2="66.5" y2="413.5" />
    <line stroke="#0000ff" stroke-width="1" stroke-linecap="round" stroke-linejoin="round" x1="55.5" y1="354.5" x2="66.5" y2="354.5" />
    <line stroke="#0000ff" stroke-width="1" stroke-linecap="round" stroke-linejoin="round" x1="55.5" y1="295.5" x2="66.5" y2="295.5" />
    <line stroke="#0000ff" stroke-width="1" stroke-linecap="round" stroke-linejoin="round" x1="55.5" y1="236.5" x2="66.5" y2="236.5" />
    <line stroke="#0000ff" stroke-width="1" stroke-linecap="round" stroke-linejoin="round" x1="55.5" y1="177.5" x2="66.5" y2="177.5" />
    <line stroke="#0000ff" stroke-width="1" stroke-linecap="round" stroke-linejoin="round" x1="55.5" y1="118.5" x2="66.5" y2="118.5" />
    <line stroke="#0000ff" stroke-width="1" stroke-linecap="round" stroke-linejoin="round" x1="55.5" y1="59.5" x2="66.5" y2="59.5" />
  </g>
  <clipPath id="clippath2">
    <path d="M-1,-1 H1756 V942H-1 z M1646,-1 H1757 V251 H1646 z" clip-rule="evenodd" />
  </clipPath>
  <g clip-path="url(#clippath2)">
    <polyline stroke="#000000" stroke-width="1" stroke-linecap="round" stroke-linejoin="round" fill="none" points="0,884 1,884 2,884 3,884 4,884 5,884 6,884 7,884 8,884 9,884 10,884 11,884 12,884 13,884 14,884 15,884 16,884 17,884 18,884 19,884 20,884 21,884 22,884 23,884 24,884 25,884 26,884 27,884 28,884 29,884 30,884 31,884 32,884 33,884 34,884 35,884 36,884 37,884 38,884 39,884 40,884 41,884 42,884 43,884 44,884 45,884 46,884 47,884 48,884 49,884 50,884 51,884 52,884 53,884 54,884 55,884 56,884 57,884 58,884 59,884 60,884 61,884 " />
  </g>
  <clipPath id="clippath3">
    <path d="M-1,-1 H1756 V942H-1 z M1646,-1 H1757 V251 H1646 z" clip-rule="evenodd" />
  </clipPath>
  <g clip-path="url(#clippath3)">
    <polyline stroke="#000000" stroke-width="1" stroke-linecap="round" stroke-linejoin="round" fill="none" points="61,884 62,884 63,884 64,884 65,884 66,884 67,884 68,884 69,884 70,884 71,884 72,884 73,884 74,884 75,884 76,884 77,884 78,884 79,884 80,884 81,884 82,884 83,884 84,884 85,884 86,884 87,884 88,884 89,884 90,884 91,884 92,884 93,884 94,884 95,884 96,884 97,884 98,884 99,884 100,884 101,884 102,884 103,884 104,884 105,884 106,884 107,884 108,884 109,884 110,884 111,884 112,884 113,884 114,884 115,884 116,884 117,884 118,884 119,884 120,884 121,884 122,884 123,884 124,884 125,884 126,884 127,884 128,884 129,884 130,884 131,884 132,884 133,884 134,884 135,884 136,884 137,884 138,884 139,884 140,884 141,884 142,884 143,884 144,884 145,884 146,884 147,884 148,884 149,884 150,884 151,884 152,884 153,884 154,884 155,884 156,884 157,884 158,884 159,884 160,884 161,884 162,884 163,884 164,884 165,884 166,884 167,884 168,884 169,884 170,884 171,884 172,884 173,884 174,884 175,884 176,884 177,884 178,884 179,884 180,884 181,884 182,884 " />
  </g>
  <clipPath id="clippath4">
    <path d="M-1,-1 H1756 V942H-1 z M1646,-1 H1757 V251 H1646 z" clip-rule="evenodd" />
  </clipPath>
  <g clip-path="url(#clippath4)">
    <polyline stroke="#000000" stroke-width="1" stroke-linecap="round" stroke-linejoin="round" fill="none" points="303,884 304,884 305,884 306,884 307,884 308,884 309,884 310,884 311,884 312,884 313,884 314,884 315,884 316,884 317,884 318,884 319,884 320,884 321,884 322,884 323,884 324,884 325,884 326,884 327,884 328,884 329,884 330,884 331,884 332,884 333,884 334,884 335,884 336,884 337,884 338,884 339,884 340,884 341,884 342,884 343,884 344,884 345,884 346,884 347,884 348,884 349,884 350,884 351,884 352,884 353,884 354,884 355,884 356,884 357,884 358,884 359,884 360,884 361,884 362,884 363,884 364,884 365,884 366,884 367,884 368,884 369,884 370,884 371,884 372,884 373,884 374,884 375,884 376,884 377,884 378,884 379,884 380,884 381,884 382,884 383,884 384,884 385,884 386,884 387,884 388,884 389,884 390,884 391,884 392,884 393,884 394,884 395,884 396,884 397,884 398,884 399,884 400,884 401,884 402,884 403,884 404,884 405,884 406,884 407,884 408,884 409,884 410,884 411,884 412,884 413,884 414,884 415,884 416,884 417,884 418,884 419,884 420,884 421,884 422,884 423,884 424,884 " />
  </g>
  <clipPath id="clippath5">
    <path d="M-1,-1 H1756 V942H-1 z M1646,-1 H1757 V251 H1646 z" clip-rule="evenodd" />
  </clipPath>
  <g clip-path="url(#clippath5)">
    <polyline stroke="#000000" stroke-width="1" stroke-linecap="round" stroke-linejoin="round" fill="none" points="424,883 425,883 426,883 427,883 428,883 429,883 430,883 431,883 432,883 433,883 434,883 435,883 436,883 437,883 438,883 439,883 440,883 441,883 442,883 443,883 444,883 445,883 446,883 447,883 448,883 449,883 450,883 451,883 452,883 453,883 454,883 455,883 456,883 457,883 458,883 459,883 460,883 461,883 462,883 463,883 464,883 465,883 466,883 467,883 468,883 469,883 470,883 471,883 472,883 473,883 474,883 475,883 476,883 477,883 478,883 479,883 480,883 481,883 482,883 483,883 484,883 485,883 486,883 487,883 488,883 489,883 490,883 491,883 492,883 493,883 494,883 495,883 496,883 497,883 498,883 499,883 500,883 501,883 502,883 503,883 504,883 505,883 506,883 507,883 508,883 509,883 510,883 511,883 512,883 513,883 514,883 515,883 516,883 517,883 518,883 519,883 520,883 521,883 522,883 523,883 524,883 525,883 526,883 527,883 528,883 529,883 530,883 531,883 532,883 533,883 534,883 535,883 536,883 537,883 538,883 539,883 540,883 541,883 542,883 543,883 544,883 545,883 " />
  </g>
  <clipPath id="clippath6">
    <path d="M-1,-1 H1756 V942H-1 z M1646,-1 H1757 V251 H1646 z" clip-rule="evenodd" />
  </clipPath>
  <g clip-path="url(#clippath6)">
    <polyline stroke="#000000" stroke-width="1" stroke-linecap="round" stroke-linejoin="round" fill="none" points="545,874 546,874 547,874 548,874 549,874 550,874 551,874 552,874 553,874 554,874 555,874 556,874 557,874 558,874 559,874 560,874 561,874 562,874 563,874 564,874 565,874 566,874 567,874 568,874 569,874 570,874 571,874 572,874 573,874 574,874 575,874 576,874 577,874 578,874 579,874 580,874 581,874 582,874 583,874 584,874 585,874 586,874 587,874 588,874 589,874 590,874 591,874 592,874 593,874 594,874 595,874 596,874 597,874 598,874 599,874 600,874 601,874 602,874 603,874 604,874 605,874 606,874 607,874 608,874 609,874 610,874 611,874 612,874 613,874 614,874 615,874 616,874 617,874 618,874 619,874 620,874 621,874 622,874 623,874 624,874 625,874 626,874 627,874 628,874 629,874 630,874 631,874 632,874 633,874 634,874 635,874 636,874 637,874 638,874 639,874 640,874 641,874 642,874 643,874 644,874 645,874 646,874 647,874 648,874 649,874 650,874 651,874 652,874 653,874 654,874 655,874 656,874 657,874 658,874 659,874 660,874 661,874 662,874 663,874 664,874 665,874 666,874 " />
  </g>
  <clipPath id="clippath7">
    <path d="M-1,-1 H1756 V942H-1 z M1646,-1 H1757 V251 H1646 z" clip-rule="evenodd" />
  </clipPath>
  <g clip-path="url(#clippath7)">
    <polyline stroke="#000000" stroke-width="1" stroke-linecap="round" stroke-linejoin="round" fill="none" points="666,831 667,831 668,831 669,831 670,831 671,831 672,831 673,831 674,831 675,831 676,831 677,831 678,831 679,831 680,831 681,831 682,831 683,831 684,831 685,831 686,831 687,831 688,831 689,831 690,831 691,831 692,831 693,831 694,831 695,831 696,831 697,831 698,831 699,831 700,831 701,831 702,831 703,831 704,831 705,831 706,831 707,831 708,831 709,831 710,831 711,831 712,831 713,831 714,831 715,831 716,831 717,831 718,831 719,831 720,831 721,831 722,831 723,831 724,831 725,831 726,831 727,831 728,831 729,831 730,831 731,831 732,831 733,831 734,831 735,831 736,831 737,831 738,831 739,831 740,831 741,831 742,831 743,831 744,831 745,831 746,831 747,831 748,831 749,831 750,831 751,831 752,831 753,831 754,831 755,831 756,831 757,831 758,831 759,831 760,831 761,831 762,831 763,831 764,831 765,831 766,831 767,831 768,831 769,831 770,831 771,831 772,831 773,831 774,831 775,831 776,831 777,831 778,831 779,831 780,831 781,831 782,831 783,831 784,831 785,831 786,831 787,831 " />
  </g>
  <clipPath id="clippath8">
    <path d="M-1,-1 H1756 V942H-1 z M1646,-1 H1757 V251 H1646 z" clip-rule="evenodd" />
  </clipPath>
  <g clip-path="url(#clippath8)">
    <polyline stroke="#000000" stroke-width="1" stroke-linecap="round" stroke-linejoin="round" fill="none" points="787,717 788,717 789,717 790,717 791,717 792,717 793,717 794,717 795,717 796,717 797,717 798,717 799,717 800,717 801,717 802,717 803,717 804,717 805,717 806,717 807,717 808,717 809,717 810,717 811,717 812,717 813,717 814,717 815,717 816,717 817,717 818,717 819,717 820,717 821,717 822,717 823,717 824,717 825,717 826,717 827,717 828,717 829,717 830,717 831,717 832,717 833,717 834,717 835,717 836,717 837,717 838,717 839,717 840,717 841,717 842,717 843,717 844,717 845,717 846,717 847,717 848,717 849,717 850,717 851,717 852,717 853,717 854,717 855,717 856,717 857,717 858,717 859,717 860,717 861,717 862,717 863,717 864,717 865,717 866,717 867,717 868,717 869,717 870,717 871,717 872,717 873,717 874,717 875,717 876,717 877,717 878,717 879,717 880,717 881,717 882,717 883,717 884,717 885,717 886,717 887,717 888,717 889,717 890,717 891,717 892,717 893,717 894,717 895,717 896,717 897,717 898,717 899,717 900,717 901,717 902,717 903,717 904,717 905,717 906,717 907,717 908,717 " />
  </g>
  <clipPath id="clippath9">
    <path d="M-1,-1 H1756 V942H-1 z M1646,-1 H1757 V251 H1646 z" clip-rule="evenodd" />
  </clipPath>
  <g clip-path="url(#clippath9)">
    <polyline stroke="#000000" stroke-width="1" stroke-linecap="round" stroke-linejoin="round" fill="none" points="908,541 909,541 910,541 911,541 912,541 913,541 914,541 915,541 916,541 917,541 918,541 919,541 920,541 921,541 922,541 923,541 924,541 925,541 926,541 927,541 928,541 929,541 930,541 931,541 932,541 933,541 934,541 935,541 936,541 937,541 938,541 939,541 940,541 941,541 942,541 943,541 944,541 945,541 946,541 947,541 948,541 949,541 950,541 951,541 952,541 953,541 954,541 955,541 956,541 957,541 958,541 959,541 960,541 961,541 962,541 963,541 964,541 965,541 966,541 967,541 968,541 969,541 970,541 971,541 972,541 973,541 974,541 975,541 976,541 977,541 978,541 979,541 980,541 981,541 982,541 983,541 984,541 985,541 986,541 987,541 988,541 989,541 990,541 991,541 992,541 993,541 994,541 995,541 996,541 997,541 998,541 999,541 1000,541 1001,541 1002,541 1003,541 1004,541 1005,541 1006,541 1007,541 1008,541 1009,541 1010,541 1011,541 1012,541 1013,541 1014,541 1015,541 1016,541 1017,541 1018,541 1019,541 1020,541 1021,541 1022,541 1023,541 1024,541 1025,541 1026,541 1027,541 1028,541 1029,541 " />
  </g>
  <clipPath id="clippath10">
    <path d="M-1,-1 H1756 V942H-1 z M1646,-1 H1757 V251 H1646 z" clip-rule="evenodd" />
  </clipPath>
  <g clip-path="url(#clippath10)">
    <polyline stroke="#000000" stroke-width="1" stroke-linecap="round" stroke-linejoin="round" fill="none" points="1029,388 1030,388 1031,388 1032,388 1033,388 1034,388 1035,388 1036,388 1037,388 1038,388 1039,388 1040,388 1041,388 1042,388 1043,388 1044,388 1045,388 1046,388 1047,388 1048,388 1049,388 1050,388 1051,388 1052,388 1053,388 1054,388 1055,388 1056,388 1057,388 1058,388 1059,388 1060,388 1061,388 1062,388 1063,388 1064,388 1065,388 1066,388 1067,388 1068,388 1069,388 1070,388 1071,388 1072,388 1073,388 1074,388 1075,388 1076,388 1077,388 1078,388 1079,388 1080,388 1081,388 1082,388 1083,388 1084,388 1085,388 1086,388 1087,388 1088,388 1089,388 1090,388 1091,388 1092,388 1093,388 1094,388 1095,388 1096,388 1097,388 1098,388 1099,388 1100,388 1101,388 1102,388 1103,388 1104,388 1105,388 1106,388 1107,388 1108,388 1109,388 1110,388 1111,388 1112,388 1113,388 1114,388 1115,388 1116,388 1117,388 1118,388 1119,388 1120,388 1121,388 1122,388 1123,388 1124,388 1125,388 1126,388 1127,388 1128,388 1129,388 1130,388 1131,388 1132,388 1133,388 1134,388 1135,388 1136,388 1137,388 1138,388 1139,388 1140,388 1141,388 1142,388 1143,388 1144,388 1145,388 1146,388 1147,388 1148,388 1149,388 1150,388 " />
  </g>
  <clipPath id="clippath11">
    <path d="M-1,-1 H1756 V942H-1 z M1646,-1 H1757 V251 H1646 z" clip-rule="evenodd" />
  </clipPath>
  <g clip-path="url(#clippath11)">
    <polyline stroke="#000000" stroke-width="1" stroke-linecap="round" stroke-linejoin="round" fill="none" points="1150,314 1151,314 1152,314 1153,314 1154,314 1155,314 1156,314 1157,314 1158,314 1159,314 1160,314 1161,314 1162,314 1163,314 1164,314 1165,314 1166,314 1167,314 1168,314 1169,314 1170,314 1171,314 1172,314 1173,314 1174,314 1175,314 1176,314 1177,314 1178,314 1179,314 1180,314 1181,314 1182,314 1183,314 1184,314 1185,314 1186,314 1187,314 1188,314 1189,314 1190,314 1191,314 1192,314 1193,314 1194,314 1195,314 1196,314 1197,314 1198,314 1199,314 1200,314 1201,314 1202,314 1203,314 1204,314 1205,314 1206,314 1207,314 1208,314 1209,314 1210,314 1211,314 1212,314 1213,314 1214,314 1215,314 1216,314 1217,314 1218,314 1219,314 1220,314 1221,314 1222,314 1223,314 1224,314 1225,314 1226,314 1227,314 1228,314 1229,314 1230,314 1231,314 1232,314 1233,314 1234,314 1235,314 1236,314 1237,314 1238,314 1239,314 1240,314 1241,314 1242,314 1243,314 1244,314 1245,314 1246,314 1247,314 1248,314 1249,314 1250,314 1251,314 1252,314 1253,314 1254,314 1255,314 1256,314 1257,314 1258,314 1259,314 1260,314 1261,314 1262,314 1263,314 1264,314 1265,314 1266,314 1267,314 1268,314 1269,314 1270,314 1271,314 1272,314 " />
  </g>
  <clipPath id="clippath12">
    <path d="M-1,-1 H1756 V942H-1 z M1646,-1 H1757 V251 H1646 z" clip-rule="evenodd" />
  </clipPath>
  <g clip-path="url(#clippath12)">
    <polyline stroke="#000000" stroke-width="1" stroke-linecap="round" stroke-linejoin="round" fill="none" points="1272,296 1273,296 1274,296 1275,296 1276,296 1277,296 1278,296 1279,296 1280,296 1281,296 1282,296 1283,296 1284,296 1285,296 1286,296 1287,296 1288,296 1289,296 1290,296 1291,296 1292,296 1293,296 1294,296 1295,296 1296,296 1297,296 1298,296 1299,296 1300,296 1301,296 1302,296 1303,296 1304,296 1305,296 1306,296 1307,296 1308,296 1309,296 1310,296 1311,296 1312,296 1313,296 1314,296 1315,296 1316,296 1317,296 1318,296 1319,296 1320,296 1321,296 1322,296 1323,296 1324,296 1325,296 1326,296 1327,296 1328,296 1329,296 1330,296 1331,296 1332,296 1333,296 1334,296 1335,296 1336,296 1337,296 1338,296 1339,296 1340,296 1341,296 1342,296 1343,296 1344,296 1345,296 1346,296 1347,296 1348,296 1349,296 1350,296 1351,296 1352,296 1353,296 1354,296 1355,296 1356,296 1357,296 1358,296 1359,296 1360,296 1361,296 1362,296 1363,296 1364,296 1365,296 1366,296 1367,296 1368,296 1369,296 1370,296 1371,296 1372,296 1373,296 1374,296 1375,296 1376,296 1377,296 1378,296 1379,296 1380,296 1381,296 1382,296 1383,296 1384,296 1385,296 1386,296 1387,296 1388,296 1389,296 1390,296 1391,296 1392,296 1393,296 " />
  </g>
  <clipPath id="clippath13">
    <path d="M-1,-1 H1756 V942H-1 z M1646,-1 H1757 V251 H1646 z" clip-rule="evenodd" />
  </clipPath>
  <g clip-path="url(#clippath13)">
    <polyline stroke="#000000" stroke-width="1" stroke-linecap="round" stroke-linejoin="round" fill="none" points="1393,295 1394,295 1395,295 1396,295 1397,295 1398,295 1399,295 1400,295 1401,295 1402,295 1403,295 1404,295 1405,295 1406,295 1407,295 1408,295 1409,295 1410,295 1411,295 1412,295 1413,295 1414,295 1415,295 1416,295 1417,295 1418,295 1419,295 1420,295 1421,295 1422,295 1423,295 1424,295 1425,295 1426,295 1427,295 1428,295 1429,295 1430,295 1431,295 1432,295 1433,295 1434,295 1435,295 1436,295 1437,295 1438,295 1439,295 1440,295 1441,295 1442,295 1443,295 1444,295 1445,295 1446,295 1447,295 1448,295 1449,295 1450,295 1451,295 1452,295 1453,295 1454,295 1455,295 1456,295 1457,295 1458,295 1459,295 1460,295 1461,295 1462,295 1463,295 1464,295 1465,295 1466,295 1467,295 1468,295 1469,295 1470,295 1471,295 1472,295 1473,295 1474,295 1475,295 1476,295 1477,295 1478,295 1479,295 1480,295 1481,295 1482,295 1483,295 1484,295 1485,295 1486,295 1487,295 1488,295 1489,295 1490,295 1491,295 1492,295 1493,295 1494,295 1495,295 1496,295 1497,295 1498,295 1499,295 1500,295 1501,295 1502,295 1503,295 1504,295 1505,295 1506,295 1507,295 1508,295 1509,295 1510,295 1511,295 1512,295 1513,295 1514,295 1515,295 1516,295 1517,295 1518,295 1519,295 1520,295 1521,295 1522,295 1523,295 1524,295 1525,295 1526,295 1527,295 1528,295 1529,295 1530,295 1531,295 1532,295 1533,295 1534,295 1535,295 1536,295 1537,295 1538,295 1539,295 1540,295 1541,295 1542,295 1543,295 1544,295 1545,295 1546,295 1547,295 1548,295 1549,295 1550,295 1551,295 1552,295 1553,295 1554,295 1555,295 1556,295 1557,295 1558,295 1559,295 1560,295 1561,295 1562,295 1563,295 1564,295 1565,295 1566,295 1567,295 1568,295 1569,295 1570,295 1571,295 1572,295 1573,295 1574,295 1575,295 1576,295 1577,295 1578,295 1579,295 1580,295 1581,295 1582,295 1583,295 1584,295 1585,295 1586,295 1587,295 1588,295 1589,295 1590,295 1591,295 1592,295 1593,295 1594,295 1595,295 1596,295 1597,295 1598,295 1599,295 1600,295 1601,295 1602,295 1603,295 1604,295 1605,295 1606,295 1607,295 1608,295 1609,295 1610,295 1611,295 1612,295 1613,295 1614,295 1615,295 1616,295 1617,295 1618,295 1619,295 1620,295 1621,295 1622,295 1623,295 1624,295 1625,295 1626,295 1627,295 1628,295 1629,295 1630,295 1631,295 1632,295 1633,295 1634,295 1635,295 " />
  </g>
</svg>
